<svg xmlns="http://www.w3.org/2000/svg" fill="none" viewBox="0 0 76 12" preserveAspectRatio="none"><path fill="#DCD6F7" d="M71.508 4.749c-2.198-.224-4.182-.188-6.264-.193-4.063-.011-8.126-.88-12.188-.85-9.1.079-18.34-.421-27.47.402-2.697.239-5.391.442-8.061.786-.256.03-.51.063-.767.099-2.505.328-5.775.136-8.265.48-2.192.457-3.891 1.03-5.99.874-.557-.108-1.15-.303-1.484-.698C.289 4.8-.05 4.025.304 3.378c.115-.213.313-.432.527-.63.417-.365.917-.652 1.189-.677 4.692-.5 10.014-.594 14.255-.683 2.093-.042 4.254-.1 6.896-.208C29.274 1.024 38.9.924 45.01.774c5.339-.135 10.692.609 15.979 1.162 2.01.209 3.276.209 5.078.266.3.004.64.015.99.025 1.78.057 4.989-.224 6.025.317 1.037.547 1.76.604 2.667 1.609.047.99-.317 1.449-.78 1.615-1.08.396-2.069.839-2.907.975-.983.156-1.776.162-1.938-.213-.155-.376-.067-.61.089-.781.27-.281.76-.59 1.198-.797l.097-.203Z"/><path fill="#DCD6F7" d="M28.721 9.232c1.677-.088 3.365-.203 5.037-.142 2.114.074 3.906.314 6.005.28.709-.008 5.017.006 5.605-.003 1.832-.032 3.636-.026 5.463.025 1.213.036 2.432.109 3.636.25 2.834.334 5.76.558 8.547 1.193.708.162 1.432.297 2.145.167.709-.125 1.792-.5 1.72-1.276-.084-.907-.834-2.036-1.736-2.322-.275-.084-.91-.475-1.191-.533-.265-.052-.5-.238-.745-.27-.578-.078-1.011.188-1.547.318-.625.15-1.98-.272-2.625-.287-2.281-.057-3.61.525-5.891.505-1.349-.01-2.703-.052-4.052-.074-1.295-.021-2.593.017-3.886-.052-.902-.046-1.792-.292-2.687-.312-.767-.016-1.542.125-2.297.276-.645.135-1.355.078-2.01.083-.599.01-1.333-.14-1.89 0-.72.183-1.518.188-2.25.26-1.38.136-2.075-.11-3.449.063-.855.104-1.486.432-2.338.313-.438-.063-1.558.219-1.994.172-.45-.042-.48.28-.886.333-.49.06-.986.047-1.475.067-.207.01-.765-.011-.91.152-.204.224.203.687.509.818 1.12.489 2.74.098 3.922.057.421-.014.845-.035 1.27-.061Z"/></svg>