<svg width="769" height="130" viewBox="0 0 769 130" fill="none" xmlns="http://www.w3.org/2000/svg">
<mask id="path-1-outside-1_64_124" maskUnits="userSpaceOnUse" x="26.5074" y="0.690063" width="718" height="130" fill="black">
<rect fill="white" x="26.5074" y="0.690063" width="718" height="130"/>
<path d="M29.8624 128.338V126.802L35.4944 126.162C36.7744 125.991 37.6277 125.565 38.0544 124.882C38.5664 124.199 38.8224 122.663 38.8224 120.274V45.0101C38.8224 41.8527 38.5237 39.8047 37.9264 38.8661C37.4144 37.8421 36.2197 37.2874 34.3424 37.2021L28.5824 36.6901L28.7104 35.2821L52.3904 34.1301L53.0304 34.7701V45.2661H53.2864C54.7371 42.3647 56.4864 40.0181 58.5344 38.2261C60.5824 36.4341 62.8864 35.1114 65.4464 34.2581C68.0064 33.4047 70.7371 32.9781 73.6384 32.9781C79.1851 32.9781 83.9637 34.1727 87.9744 36.5621C91.9851 38.8661 95.0571 42.4501 97.1904 47.3141C99.4091 52.1781 100.518 58.3647 100.518 65.8741C100.518 73.2127 99.2811 79.6127 96.8064 85.0741C94.4171 90.5354 90.8757 94.8021 86.1824 97.8741C81.4891 100.946 75.6437 102.482 68.6464 102.482C66.1717 102.482 63.5264 102.098 60.7104 101.33C57.8944 100.647 55.4624 99.7087 53.4144 98.5141V120.274C53.4144 122.407 53.6277 123.858 54.0544 124.626C54.5664 125.479 55.7611 125.991 57.6384 126.162L64.9344 126.802V128.338H29.8624ZM68.3904 100.178C71.8037 100.178 74.7477 99.2394 77.2224 97.3621C79.7824 95.3994 81.7451 92.0287 83.1104 87.2501C84.4757 82.4714 85.1584 75.7301 85.1584 67.0261C85.1584 59.8581 84.5184 54.1834 83.2384 50.0021C81.9584 45.8207 80.1237 42.8341 77.7344 41.0421C75.3451 39.1647 72.4864 38.2261 69.1584 38.2261C65.9157 38.2261 63.0997 38.9087 60.7104 40.2741C58.4064 41.5541 56.6144 43.4314 55.3344 45.9061C54.0544 48.3807 53.4144 51.4101 53.4144 54.9941V94.1621C55.1211 95.6981 57.2971 97.1061 59.9424 98.3861C62.6731 99.5807 65.4891 100.178 68.3904 100.178ZM137.769 102.482C131.199 102.482 126.164 100.605 122.665 96.8501C119.167 93.0954 117.417 87.5061 117.417 80.0821V44.7541C117.417 41.8527 117.161 39.8901 116.649 38.8661C116.137 37.8421 114.985 37.2874 113.193 37.2021L108.713 36.8181L108.841 35.4101L131.113 34.1301L132.009 34.7701V80.8501C132.009 84.7754 132.351 87.9754 133.033 90.4501C133.716 92.8394 134.868 94.5887 136.489 95.6981C138.196 96.8074 140.415 97.3621 143.145 97.3621C146.132 97.3621 148.735 96.7221 150.953 95.4421C153.172 94.0767 154.879 92.1994 156.073 89.8101C157.353 87.3354 157.993 84.3914 157.993 80.9781V44.7541C157.993 41.9381 157.737 40.0181 157.225 38.9941C156.799 37.8847 155.689 37.2874 153.897 37.2021L149.417 36.8181V35.4101L171.817 34.1301L172.585 34.7701V92.6261C172.585 94.7594 172.841 96.2527 173.353 97.1061C173.951 97.9594 175.103 98.4714 176.809 98.6421L182.697 99.0261V100.562L159.785 101.842L158.377 90.0661H158.121C156.585 93.1381 154.836 95.5701 152.873 97.3621C150.911 99.1541 148.649 100.434 146.089 101.202C143.615 102.055 140.841 102.482 137.769 102.482ZM198.59 102.482L197.054 101.586V13.0101C197.054 10.2794 196.841 8.3594 196.414 7.25006C195.988 6.05539 194.622 5.37273 192.318 5.20206L186.686 4.69006L186.814 3.41006L210.75 2.64206L211.646 3.28206V44.6261H211.774C213.225 41.8101 214.974 39.5914 217.022 37.9701C219.07 36.2634 221.332 35.0261 223.806 34.2581C226.366 33.4047 229.097 32.9781 231.998 32.9781C237.46 32.9781 242.196 34.1727 246.206 36.5621C250.217 38.8661 253.289 42.4074 255.422 47.1861C257.641 51.8794 258.75 57.8527 258.75 65.1061C258.75 72.8714 257.513 79.5701 255.038 85.2021C252.564 90.7487 248.98 95.0154 244.286 98.0021C239.593 100.989 233.833 102.482 227.006 102.482C223.593 102.482 220.222 101.97 216.894 100.946C213.652 99.9221 210.793 98.5994 208.318 96.9781L198.59 102.482ZM226.11 100.178C229.609 100.178 232.638 99.2394 235.198 97.3621C237.844 95.3994 239.849 92.0714 241.214 87.3781C242.58 82.6847 243.262 76.2421 243.262 68.0501C243.262 60.7967 242.665 54.9941 241.47 50.6421C240.276 46.2901 238.441 43.1327 235.966 41.1701C233.492 39.2074 230.42 38.2261 226.75 38.2261C223.849 38.2261 221.246 38.8661 218.942 40.1461C216.724 41.3407 214.932 43.2181 213.566 45.7781C212.286 48.2527 211.646 51.4101 211.646 55.2501V94.1621C213.438 95.8687 215.529 97.3194 217.918 98.5141C220.393 99.6234 223.124 100.178 226.11 100.178ZM269.002 100.69V99.1541L274.25 98.5141C275.872 98.4287 276.896 97.9594 277.322 97.1061C277.834 96.1674 278.09 94.5461 278.09 92.2421V12.6261C278.09 9.81006 277.792 7.89006 277.194 6.86606C276.682 5.84206 275.488 5.28739 273.61 5.20206L267.722 4.69006L267.85 3.41006L291.786 2.64206L292.682 3.28206V92.6261C292.682 94.6741 292.896 96.1247 293.322 96.9781C293.834 97.8314 294.944 98.3434 296.65 98.5141L302.666 99.2821V100.69H269.002ZM310.996 100.69V99.1541L317.396 98.5141C318.762 98.3434 319.615 97.8314 319.956 96.9781C320.383 96.0394 320.596 94.5034 320.596 92.3701V45.0101C320.596 42.1087 320.34 40.1034 319.828 38.9941C319.316 37.8847 318.122 37.2874 316.244 37.2021L310.228 36.6901L310.356 35.2821L334.292 34.1301L335.188 34.7701V92.8821C335.188 94.8447 335.402 96.2101 335.828 96.9781C336.255 97.7461 337.151 98.2154 338.516 98.3861L345.172 99.2821V100.69H310.996ZM326.228 21.5861C323.412 21.5861 321.108 20.7754 319.316 19.1541C317.524 17.4474 316.628 15.2714 316.628 12.6261C316.628 9.98073 317.524 7.80473 319.316 6.09806C321.108 4.39139 323.412 3.53806 326.228 3.53806C329.3 3.53806 331.69 4.39139 333.396 6.09806C335.103 7.71939 335.956 9.85273 335.956 12.4981C335.956 15.2287 335.06 17.4474 333.268 19.1541C331.562 20.7754 329.215 21.5861 326.228 21.5861ZM382.704 102.482C376.902 102.482 371.782 101.202 367.344 98.6421C362.992 95.9967 359.579 92.1994 357.104 87.2501C354.63 82.3007 353.392 76.2421 353.392 69.0741C353.392 61.6501 354.715 55.2501 357.36 49.8741C360.091 44.4981 363.888 40.3594 368.752 37.4581C373.616 34.4714 379.248 32.9781 385.648 32.9781C390.256 32.9781 394.182 33.7461 397.424 35.2821C400.752 36.7327 403.312 38.6954 405.104 41.1701C406.896 43.5594 407.792 46.1194 407.792 48.8501C407.792 50.5567 407.494 52.0927 406.896 53.4581C406.384 54.7381 405.531 55.7621 404.336 56.5301C403.142 57.2981 401.563 57.6821 399.6 57.6821C397.126 57.6821 395.206 57.0847 393.84 55.8901C392.56 54.6954 391.92 53.1167 391.92 51.1541C391.92 49.7887 392.39 48.2101 393.328 46.4181C394.267 44.6261 395.718 42.1514 397.68 38.9941C396.059 37.7141 394.31 36.7754 392.432 36.1781C390.555 35.4954 388.422 35.1541 386.032 35.1541C382.704 35.1541 379.718 36.1354 377.072 38.0981C374.427 40.0607 372.336 43.2181 370.8 47.5701C369.35 51.8367 368.624 57.4687 368.624 64.4661C368.624 73.7674 370.374 80.7647 373.872 85.4581C377.371 90.1514 382.15 92.4981 388.208 92.4981C392.56 92.4981 396.23 91.7727 399.216 90.3221C402.288 88.8714 404.976 87.1221 407.28 85.0741L408.432 85.9701C405.531 91.4314 401.99 95.5701 397.808 98.3861C393.627 101.117 388.592 102.482 382.704 102.482ZM436.955 102.482C431.238 102.482 426.801 100.989 423.643 98.0021C420.571 94.9301 419.035 90.6634 419.035 85.2021C419.035 80.8501 420.145 77.3087 422.363 74.5781C424.582 71.7621 428.337 69.6287 433.627 68.1781C438.918 66.6421 446.086 65.6607 455.131 65.2341V49.3621C455.131 45.9487 454.705 43.2181 453.851 41.1701C452.998 39.0367 451.675 37.5007 449.883 36.5621C448.091 35.5381 445.702 35.0261 442.715 35.0261C439.985 35.0261 437.254 35.4954 434.523 36.4341C431.793 37.2874 429.702 38.4394 428.251 39.8901C429.958 41.7674 431.281 43.4314 432.219 44.8821C433.158 46.2474 433.798 47.4421 434.139 48.4661C434.566 49.4047 434.779 50.2581 434.779 51.0261C434.779 52.5621 434.097 53.9701 432.731 55.2501C431.451 56.4447 429.617 57.0421 427.227 57.0421C424.582 57.0421 422.619 56.4021 421.339 55.1221C420.059 53.7567 419.419 51.9647 419.419 49.7461C419.419 47.0154 420.529 44.3701 422.747 41.8101C424.966 39.2501 427.995 37.1594 431.835 35.5381C435.675 33.8314 439.942 32.9781 444.635 32.9781C450.182 32.9781 454.79 33.8314 458.459 35.5381C462.214 37.1594 465.03 39.7194 466.907 43.2181C468.785 46.7167 469.723 51.2394 469.723 56.7861V90.4501C469.723 92.7541 470.193 94.4181 471.131 95.4421C472.155 96.3807 473.478 96.8501 475.099 96.8501C476.123 96.8501 477.147 96.7221 478.171 96.4661C479.195 96.2101 480.219 95.7834 481.243 95.1861L481.883 96.2101C479.835 98.5994 477.659 100.221 475.355 101.074C473.137 102.013 470.918 102.482 468.699 102.482C464.689 102.482 461.659 101.458 459.611 99.4101C457.649 97.2767 456.411 94.1621 455.899 90.0661C454.534 93.1381 452.955 95.6127 451.163 97.4901C449.371 99.2821 447.323 100.562 445.019 101.33C442.715 102.098 440.027 102.482 436.955 102.482ZM443.611 96.8501C445.915 96.8501 447.921 96.2954 449.627 95.1861C451.419 93.9914 452.785 92.4127 453.723 90.4501C454.662 88.4021 455.131 86.0554 455.131 83.4101V67.1541C449.926 67.2394 445.745 67.7941 442.587 68.8181C439.515 69.8421 437.297 71.5487 435.931 73.9381C434.566 76.2421 433.883 79.4421 433.883 83.5381C433.883 87.8901 434.694 91.2181 436.315 93.5221C438.022 95.7407 440.454 96.8501 443.611 96.8501ZM517.097 129.618C513.684 129.618 510.825 129.063 508.521 127.954C506.303 126.845 504.34 125.394 502.633 123.602L503.913 122.066C505.193 123.005 506.516 123.815 507.881 124.498C509.247 125.181 510.868 125.522 512.745 125.522C515.135 125.522 517.097 124.797 518.633 123.346C520.255 121.895 521.065 119.975 521.065 117.586C521.065 115.709 520.553 114.258 519.529 113.234C518.505 112.21 517.055 111.698 515.177 111.698C514.324 111.698 513.599 111.741 513.001 111.826C512.489 111.997 511.935 112.167 511.337 112.338L510.697 111.058L514.153 102.482C508.863 102.141 504.169 100.647 500.073 98.0021C495.977 95.3567 492.777 91.6021 490.473 86.7381C488.169 81.8741 487.017 75.9861 487.017 69.0741C487.017 61.6501 488.34 55.2501 490.985 49.8741C493.716 44.4981 497.513 40.3594 502.377 37.4581C507.241 34.4714 512.873 32.9781 519.273 32.9781C523.881 32.9781 527.807 33.7461 531.049 35.2821C534.377 36.7327 536.937 38.6954 538.729 41.1701C540.521 43.5594 541.417 46.1194 541.417 48.8501C541.417 50.5567 541.119 52.0927 540.521 53.4581C540.009 54.7381 539.156 55.7621 537.961 56.5301C536.767 57.2981 535.188 57.6821 533.225 57.6821C530.751 57.6821 528.831 57.0847 527.465 55.8901C526.185 54.6954 525.545 53.1167 525.545 51.1541C525.545 49.7887 526.015 48.2101 526.953 46.4181C527.892 44.6261 529.343 42.1514 531.305 38.9941C529.684 37.7141 527.935 36.7754 526.057 36.1781C524.18 35.4954 522.047 35.1541 519.657 35.1541C516.329 35.1541 513.343 36.1354 510.697 38.0981C508.052 40.0607 505.961 43.2181 504.425 47.5701C502.975 51.8367 502.249 57.4687 502.249 64.4661C502.249 73.7674 503.999 80.7647 507.497 85.4581C510.996 90.1514 515.775 92.4981 521.833 92.4981C526.185 92.4981 529.855 91.7727 532.841 90.3221C535.913 88.8714 538.601 87.1221 540.905 85.0741L542.057 85.9701C539.071 91.3461 535.529 95.3994 531.433 98.1301C527.423 100.861 522.473 102.311 516.585 102.482L514.025 108.882C517.695 108.199 520.809 108.157 523.369 108.754C525.929 109.437 527.849 110.631 529.129 112.338C530.495 114.045 531.177 116.093 531.177 118.482C531.177 120.53 530.623 122.365 529.513 123.986C528.489 125.693 526.911 127.058 524.777 128.082C522.644 129.106 520.084 129.618 517.097 129.618ZM583.011 102.482C576.611 102.482 571.022 101.159 566.243 98.5141C561.465 95.7834 557.753 91.9434 555.107 86.9941C552.547 82.0447 551.267 76.1141 551.267 69.2021C551.267 61.6074 552.633 55.1221 555.363 49.7461C558.094 44.3701 561.977 40.2314 567.011 37.3301C572.046 34.4287 578.019 32.9781 584.931 32.9781C591.161 32.9781 596.579 34.3007 601.187 36.9461C605.795 39.5914 609.379 43.3887 611.939 48.3381C614.585 53.2874 615.907 59.2181 615.907 66.1301C615.907 73.5541 614.542 79.9967 611.811 85.4581C609.081 90.8341 605.241 95.0154 600.291 98.0021C595.342 100.989 589.582 102.482 583.011 102.482ZM585.059 100.178C588.387 100.178 591.161 99.1967 593.379 97.2341C595.598 95.1861 597.262 91.9007 598.371 87.3781C599.566 82.7701 600.163 76.6687 600.163 69.0741C600.163 63.0154 599.737 57.8527 598.883 53.5861C598.115 49.2341 596.963 45.7354 595.427 43.0901C593.891 40.3594 592.057 38.3967 589.923 37.2021C587.79 35.9221 585.358 35.2821 582.627 35.2821C579.214 35.2821 576.313 36.2634 573.923 38.2261C571.619 40.1034 569.87 43.2607 568.675 47.6981C567.481 52.1354 566.883 58.0661 566.883 65.4901C566.883 73.7674 567.651 80.4661 569.187 85.5861C570.723 90.7061 572.857 94.4181 575.587 96.7221C578.318 99.0261 581.475 100.178 585.059 100.178ZM591.971 21.7141C590.265 21.7141 588.515 21.4581 586.723 20.9461C585.017 20.3487 582.883 19.5381 580.323 18.5141C577.934 17.4901 576.099 16.7647 574.819 16.3381C573.625 15.8261 572.686 15.4847 572.003 15.3141C571.406 15.1434 570.851 15.0581 570.339 15.0581C569.059 15.0581 567.993 15.3567 567.139 15.9541C566.286 16.4661 565.39 17.7034 564.451 19.6661L563.043 19.2821C563.641 15.6127 564.366 12.7114 565.219 10.5781C566.158 8.44473 567.31 6.95139 568.675 6.09806C570.041 5.24473 571.705 4.81806 573.667 4.81806C575.459 4.81806 577.166 5.11673 578.787 5.71406C580.409 6.22606 582.457 6.99406 584.931 8.01806C588.174 9.38339 590.435 10.3221 591.715 10.8341C592.995 11.2607 594.233 11.4741 595.427 11.4741C596.707 11.4741 597.731 11.1754 598.499 10.5781C599.353 9.98073 600.249 8.70073 601.187 6.73806L602.595 7.12206C601.827 11.0474 600.974 14.0767 600.035 16.2101C599.097 18.2581 597.987 19.7087 596.707 20.5621C595.427 21.3301 593.849 21.7141 591.971 21.7141ZM657.216 102.482C651.158 102.482 645.867 101.202 641.344 98.6421C636.907 96.0821 633.451 92.3701 630.976 87.5061C628.587 82.5567 627.392 76.4554 627.392 69.2021C627.392 61.3514 628.715 54.7807 631.36 49.4901C634.091 44.1141 637.846 40.0181 642.624 37.2021C647.488 34.3861 653.078 32.9781 659.392 32.9781C664.342 32.9781 668.608 33.9594 672.192 35.9221C675.862 37.7994 678.678 40.4874 680.64 43.9861C682.688 47.4847 683.712 51.6234 683.712 56.4021C683.712 57.6821 683.67 58.8767 683.584 59.9861C683.584 61.0954 683.499 62.2901 683.328 63.5701H642.624C642.454 70.3114 643.136 75.8154 644.672 80.0821C646.294 84.3487 648.64 87.5061 651.712 89.5541C654.784 91.5167 658.368 92.4981 662.464 92.4981C666.134 92.4981 669.59 91.9861 672.832 90.9621C676.075 89.8527 679.446 87.6341 682.944 84.3061L684.096 85.0741C680.854 91.1327 677.014 95.5701 672.576 98.3861C668.139 101.117 663.019 102.482 657.216 102.482ZM642.752 61.5221H668.992C669.078 60.5834 669.12 59.5594 669.12 58.4501C669.206 57.3407 669.248 56.1887 669.248 54.9941C669.248 47.5701 668.352 42.4074 666.56 39.5061C664.854 36.5194 662.08 35.0261 658.24 35.0261C655.254 35.0261 652.651 35.8367 650.432 37.4581C648.299 39.0794 646.592 41.8527 645.312 45.7781C644.032 49.6181 643.179 54.8661 642.752 61.5221ZM696.943 102.61L695.151 78.9301L697.071 78.6741C698.351 84.0501 700.015 88.2741 702.063 91.3461C704.111 94.4181 706.458 96.6367 709.103 98.0021C711.834 99.2821 714.863 99.9221 718.191 99.9221C722.629 99.9221 726.127 98.7274 728.687 96.3381C731.247 93.9487 732.527 90.7061 732.527 86.6101C732.527 83.7087 731.802 81.4474 730.351 79.8261C728.986 78.2047 727.066 76.9247 724.591 75.9861C722.117 75.0474 719.258 74.1514 716.015 73.2981C713.626 72.5301 711.237 71.7194 708.847 70.8661C706.458 69.9274 704.282 68.7327 702.319 67.2821C700.357 65.8314 698.821 63.9541 697.711 61.6501C696.602 59.2607 696.047 56.3594 696.047 52.9461C696.047 49.1061 696.901 45.6927 698.607 42.7061C700.399 39.7194 702.959 37.3727 706.287 35.6661C709.615 33.8741 713.669 32.9781 718.447 32.9781C722.202 32.9781 725.359 33.5327 727.919 34.6421C730.565 35.6661 732.783 36.8607 734.575 38.2261L736.367 32.9781H737.775L739.311 53.7141L737.263 53.5861C735.557 47.6981 733.253 43.2181 730.351 40.1461C727.45 36.9887 723.525 35.4101 718.575 35.4101C714.65 35.4101 711.535 36.3914 709.231 38.3541C706.927 40.2314 705.775 42.9194 705.775 46.4181C705.775 49.4047 706.501 51.7087 707.951 53.3301C709.487 54.9514 711.45 56.2314 713.839 57.1701C716.314 58.0234 718.959 58.9194 721.775 59.8581C724.421 60.6261 726.981 61.5221 729.455 62.5461C731.93 63.5701 734.149 64.8501 736.111 66.3861C738.159 67.9221 739.738 69.8847 740.847 72.2741C742.042 74.5781 742.639 77.4367 742.639 80.8501C742.639 85.3727 741.615 89.2554 739.567 92.4981C737.519 95.6554 734.661 98.1301 730.991 99.9221C727.322 101.629 723.013 102.482 718.063 102.482C714.821 102.482 711.663 102.013 708.591 101.074C705.605 100.221 702.789 98.7274 700.143 96.5941L698.607 102.61H696.943Z"/>
</mask>
<path d="M29.8624 128.338H28.8624V129.338H29.8624V128.338ZM29.8624 126.802L29.7495 125.808L28.8624 125.909V126.802H29.8624ZM35.4944 126.162L35.6073 127.156L35.6169 127.155L35.6265 127.153L35.4944 126.162ZM38.0544 124.882L37.2544 124.282L37.2289 124.316L37.2064 124.352L38.0544 124.882ZM37.9264 38.8661L37.032 39.3133L37.055 39.3594L37.0827 39.4029L37.9264 38.8661ZM34.3424 37.2021L34.2538 38.1981L34.2754 38.2L34.297 38.201L34.3424 37.2021ZM28.5824 36.6901L27.5865 36.5995L27.4958 37.5974L28.4938 37.6861L28.5824 36.6901ZM28.7104 35.2821L28.6618 34.2832L27.7932 34.3255L27.7145 35.1915L28.7104 35.2821ZM52.3904 34.1301L53.0975 33.423L52.7843 33.1097L52.3418 33.1312L52.3904 34.1301ZM53.0304 34.7701H54.0304V34.3558L53.7375 34.063L53.0304 34.7701ZM53.0304 45.2661H52.0304V46.2661H53.0304V45.2661ZM53.2864 45.2661V46.2661H53.9044L54.1808 45.7133L53.2864 45.2661ZM58.5344 38.2261L57.8759 37.4735L57.8759 37.4735L58.5344 38.2261ZM65.4464 34.2581L65.1302 33.3094L65.1302 33.3094L65.4464 34.2581ZM87.9744 36.5621L87.4626 37.4212L87.4694 37.4252L87.4763 37.4292L87.9744 36.5621ZM97.1904 47.3141L96.2746 47.7157L96.2775 47.7224L96.2806 47.7291L97.1904 47.3141ZM96.8064 85.0741L95.8955 84.6613L95.8902 84.6732L96.8064 85.0741ZM86.1824 97.8741L85.6347 97.0374L85.6347 97.0374L86.1824 97.8741ZM60.7104 101.33L60.9735 100.365L60.9598 100.362L60.946 100.358L60.7104 101.33ZM53.4144 98.5141L53.9183 97.6503L52.4144 96.773V98.5141H53.4144ZM54.0544 124.626L53.1802 125.112L53.1883 125.126L53.1969 125.141L54.0544 124.626ZM57.6384 126.162L57.5478 127.158L57.551 127.158L57.6384 126.162ZM64.9344 126.802H65.9344V125.886L65.0218 125.806L64.9344 126.802ZM64.9344 128.338V129.338H65.9344V128.338H64.9344ZM77.2224 97.3621L77.8268 98.1588L77.8308 98.1557L77.2224 97.3621ZM83.1104 87.2501L84.0719 87.5248L84.0719 87.5248L83.1104 87.2501ZM83.2384 50.0021L84.1946 49.7093L84.1946 49.7093L83.2384 50.0021ZM77.7344 41.0421L77.1166 41.8284L77.1254 41.8353L77.1344 41.8421L77.7344 41.0421ZM60.7104 40.2741L61.1961 41.1483L61.2065 41.1423L60.7104 40.2741ZM55.3344 45.9061L54.4462 45.4466L54.4462 45.4466L55.3344 45.9061ZM53.4144 94.1621H52.4144V94.6074L52.7454 94.9054L53.4144 94.1621ZM59.9424 98.3861L59.5068 99.2862L59.524 99.2946L59.5416 99.3022L59.9424 98.3861ZM30.8624 128.338V126.802H28.8624V128.338H30.8624ZM29.9753 127.796L35.6073 127.156L35.3815 125.168L29.7495 125.808L29.9753 127.796ZM35.6265 127.153C37.0251 126.967 38.2428 126.467 38.9024 125.412L37.2064 124.352C37.0126 124.662 36.5236 125.016 35.3622 125.171L35.6265 127.153ZM38.8544 125.482C39.2565 124.946 39.4808 124.198 39.6168 123.382C39.7573 122.54 39.8224 121.498 39.8224 120.274H37.8224C37.8224 121.439 37.7595 122.361 37.644 123.054C37.524 123.774 37.3643 124.136 37.2544 124.282L38.8544 125.482ZM39.8224 120.274V45.0101H37.8224V120.274H39.8224ZM39.8224 45.0101C39.8224 43.4054 39.7468 42.0514 39.5879 40.9618C39.4328 39.8978 39.1845 38.9804 38.77 38.3292L37.0827 39.4029C37.2656 39.6903 37.4653 40.2663 37.6089 41.2504C37.7486 42.2087 37.8224 43.4574 37.8224 45.0101H39.8224ZM38.8208 38.4188C38.0609 36.899 36.3829 36.2938 34.3878 36.2031L34.297 38.201C36.0566 38.281 36.7679 38.7851 37.032 39.3133L38.8208 38.4188ZM34.4309 36.206L28.6709 35.694L28.4938 37.6861L34.2538 38.1981L34.4309 36.206ZM29.5783 36.7806L29.7063 35.3726L27.7145 35.1915L27.5865 36.5995L29.5783 36.7806ZM28.759 36.2809L52.439 35.1289L52.3418 33.1312L28.6618 34.2832L28.759 36.2809ZM51.6833 34.8372L52.3233 35.4772L53.7375 34.063L53.0975 33.423L51.6833 34.8372ZM52.0304 34.7701V45.2661H54.0304V34.7701H52.0304ZM53.0304 46.2661H53.2864V44.2661H53.0304V46.2661ZM54.1808 45.7133C55.5843 42.9062 57.2595 40.6704 59.1929 38.9786L57.8759 37.4735C55.7133 39.3657 53.8898 41.8232 52.392 44.8188L54.1808 45.7133ZM59.1929 38.9786C61.1418 37.2733 63.3297 36.0177 65.7626 35.2067L65.1302 33.3094C62.4431 34.2051 60.023 35.5948 57.8759 37.4735L59.1929 38.9786ZM65.7626 35.2067C68.2133 34.3899 70.8365 33.9781 73.6384 33.9781V31.9781C70.6377 31.9781 67.7995 32.4196 65.1302 33.3094L65.7626 35.2067ZM73.6384 33.9781C79.039 33.9781 83.6336 35.1401 87.4626 37.4212L88.4862 35.703C84.2938 33.2054 79.3311 31.9781 73.6384 31.9781V33.9781ZM87.4763 37.4292C91.2748 39.6113 94.2139 43.0173 96.2746 47.7157L98.1062 46.9124C95.9002 41.8828 92.6953 38.1208 88.4725 35.695L87.4763 37.4292ZM96.2806 47.7291C98.4209 52.4212 99.5184 58.4539 99.5184 65.8741H101.518C101.518 58.2756 100.397 51.9349 98.1002 46.8991L96.2806 47.7291ZM99.5184 65.8741C99.5184 73.1015 98.2998 79.3553 95.8955 84.6613L97.7172 85.4868C100.262 79.8701 101.518 73.3239 101.518 65.8741H99.5184ZM95.8902 84.6732C93.5737 89.9683 90.1551 94.0786 85.6347 97.0374L86.73 98.7108C91.5963 95.5256 95.2605 91.1025 97.7225 85.4749L95.8902 84.6732ZM85.6347 97.0374C81.1403 99.9792 75.4973 101.482 68.6464 101.482V103.482C75.7901 103.482 81.8378 101.913 86.73 98.7108L85.6347 97.0374ZM68.6464 101.482C66.2748 101.482 63.7187 101.114 60.9735 100.365L60.4473 102.295C63.3341 103.082 66.0686 103.482 68.6464 103.482V101.482ZM60.946 100.358C58.2041 99.6935 55.8664 98.7867 53.9183 97.6503L52.9105 99.3778C55.0584 100.631 57.5847 101.601 60.4748 102.302L60.946 100.358ZM52.4144 98.5141V120.274H54.4144V98.5141H52.4144ZM52.4144 120.274C52.4144 121.37 52.4689 122.318 52.585 123.108C52.6991 123.883 52.882 124.575 53.1802 125.112L54.9285 124.14C54.8001 123.909 54.663 123.491 54.5637 122.817C54.4666 122.156 54.4144 121.312 54.4144 120.274H52.4144ZM53.1969 125.141C53.974 126.436 55.619 126.983 57.5478 127.158L57.7289 125.166C55.9031 125 55.1587 124.523 54.9119 124.112L53.1969 125.141ZM57.551 127.158L64.847 127.798L65.0218 125.806L57.7258 125.166L57.551 127.158ZM63.9344 126.802V128.338H65.9344V126.802H63.9344ZM64.9344 127.338H29.8624V129.338H64.9344V127.338ZM68.3904 101.178C71.9992 101.178 75.1609 100.181 77.8268 98.1588L76.618 96.5654C74.3346 98.2976 71.6083 99.1781 68.3904 99.1781V101.178ZM77.8308 98.1557C80.631 96.0088 82.6776 92.405 84.0719 87.5248L82.1489 86.9753C80.8126 91.6524 78.9337 94.79 76.614 96.5685L77.8308 98.1557ZM84.0719 87.5248C85.475 82.6141 86.1584 75.7645 86.1584 67.0261H84.1584C84.1584 75.6956 83.4765 82.3287 82.1489 86.9753L84.0719 87.5248ZM86.1584 67.0261C86.1584 59.8136 85.5162 54.0266 84.1946 49.7093L82.2822 50.2948C83.5206 54.3402 84.1584 59.9025 84.1584 67.0261H86.1584ZM84.1946 49.7093C82.8801 45.4154 80.9555 42.2079 78.3344 40.2421L77.1344 41.8421C79.292 43.4602 81.0367 46.2261 82.2822 50.2948L84.1946 49.7093ZM78.3522 40.2557C75.7696 38.2266 72.6878 37.2261 69.1584 37.2261V39.2261C72.285 39.2261 74.9205 40.1029 77.1166 41.8284L78.3522 40.2557ZM69.1584 37.2261C65.7729 37.2261 62.7796 37.9399 60.2142 39.4058L61.2065 41.1423C63.4198 39.8776 66.0585 39.2261 69.1584 39.2261V37.2261ZM60.2247 39.3999C57.7386 40.7811 55.8112 42.8076 54.4462 45.4466L56.2226 46.3655C57.4176 44.0552 59.0742 42.327 61.196 41.1482L60.2247 39.3999ZM54.4462 45.4466C53.0747 48.0981 52.4144 51.2946 52.4144 54.9941H54.4144C54.4144 51.5255 55.0341 48.6633 56.2226 46.3655L54.4462 45.4466ZM52.4144 54.9941V94.1621H54.4144V54.9941H52.4144ZM52.7454 94.9054C54.5385 96.5191 56.7991 97.976 59.5068 99.2862L60.3779 97.4859C57.795 96.2361 55.7036 94.877 54.0834 93.4188L52.7454 94.9054ZM59.5416 99.3022C62.3951 100.551 65.3473 101.178 68.3904 101.178V99.1781C65.6308 99.1781 62.951 98.6108 60.3432 97.4699L59.5416 99.3022ZM122.665 96.8501L123.397 96.1683L123.397 96.1683L122.665 96.8501ZM116.649 38.8661L115.755 39.3133L115.755 39.3133L116.649 38.8661ZM113.193 37.2021L113.108 38.1984L113.127 38.2L113.146 38.2009L113.193 37.2021ZM108.713 36.8181L107.717 36.7275L107.626 37.7286L108.628 37.8144L108.713 36.8181ZM108.841 35.4101L108.784 34.4117L107.924 34.4612L107.845 35.3195L108.841 35.4101ZM131.113 34.1301L131.695 33.3163L131.408 33.1115L131.056 33.1317L131.113 34.1301ZM132.009 34.7701H133.009V34.2554L132.591 33.9563L132.009 34.7701ZM133.033 90.4501L132.069 90.716L132.072 90.7248L133.033 90.4501ZM136.489 95.6981L135.925 96.5234L135.934 96.5301L135.944 96.5365L136.489 95.6981ZM150.953 95.4421L151.453 96.3082L151.465 96.3012L151.477 96.2937L150.953 95.4421ZM156.073 89.8101L155.185 89.3506L155.179 89.3628L156.073 89.8101ZM157.225 38.9941L156.292 39.353L156.309 39.3981L156.331 39.4413L157.225 38.9941ZM153.897 37.2021L153.812 38.1984L153.831 38.2L153.85 38.2009L153.897 37.2021ZM149.417 36.8181H148.417V37.736L149.332 37.8144L149.417 36.8181ZM149.417 35.4101L149.36 34.4117L148.417 34.4656V35.4101H149.417ZM171.817 34.1301L172.458 33.3618L172.154 33.1092L171.76 33.1317L171.817 34.1301ZM172.585 34.7701H173.585V34.3017L173.226 34.0018L172.585 34.7701ZM173.353 97.1061L172.496 97.6206L172.514 97.6507L172.534 97.6795L173.353 97.1061ZM176.809 98.6421L176.71 99.6371L176.727 99.6388L176.744 99.6399L176.809 98.6421ZM182.697 99.0261H183.697V98.0892L182.762 98.0282L182.697 99.0261ZM182.697 100.562L182.753 101.561L183.697 101.508V100.562H182.697ZM159.785 101.842L158.792 101.961L158.904 102.893L159.841 102.841L159.785 101.842ZM158.377 90.0661L159.37 89.9473L159.265 89.0661H158.377V90.0661ZM158.121 90.0661V89.0661H157.503L157.227 89.6188L158.121 90.0661ZM152.873 97.3621L153.548 98.1005L153.548 98.1005L152.873 97.3621ZM146.089 101.202L145.802 100.244L145.783 100.25L145.763 100.257L146.089 101.202ZM137.769 101.482C131.394 101.482 126.657 99.6667 123.397 96.1683L121.934 97.5318C125.671 101.543 131.004 103.482 137.769 103.482V101.482ZM123.397 96.1683C120.134 92.6671 118.417 87.3651 118.417 80.0821H116.417C116.417 87.647 118.199 93.5237 121.934 97.5318L123.397 96.1683ZM118.417 80.0821V44.7541H116.417V80.0821H118.417ZM118.417 44.7541C118.417 43.2781 118.353 42.0157 118.217 40.9767C118.083 39.9531 117.873 39.0778 117.544 38.4188L115.755 39.3133C115.937 39.6784 116.111 40.2964 116.234 41.2354C116.354 42.1591 116.417 43.3287 116.417 44.7541H118.417ZM117.544 38.4188C116.791 36.9135 115.174 36.2953 113.241 36.2032L113.146 38.2009C114.796 38.2795 115.484 38.7706 115.755 39.3133L117.544 38.4188ZM113.279 36.2057L108.799 35.8217L108.628 37.8144L113.108 38.1984L113.279 36.2057ZM109.709 36.9086L109.837 35.5006L107.845 35.3195L107.717 36.7275L109.709 36.9086ZM108.899 36.4084L131.171 35.1284L131.056 33.1317L108.784 34.4117L108.899 36.4084ZM130.532 34.9438L131.428 35.5838L132.591 33.9563L131.695 33.3163L130.532 34.9438ZM131.009 34.7701V80.8501H133.009V34.7701H131.009ZM131.009 80.8501C131.009 84.8232 131.354 88.1218 132.069 90.716L133.997 90.1841C133.348 87.829 133.009 84.7276 133.009 80.8501H131.009ZM132.072 90.7248C132.801 93.2775 134.065 95.2506 135.925 96.5234L137.054 94.8728C135.672 93.9268 134.631 92.4013 133.995 90.1753L132.072 90.7248ZM135.944 96.5365C137.86 97.7816 140.286 98.3621 143.145 98.3621V96.3621C140.544 96.3621 138.532 95.8332 137.034 94.8596L135.944 96.5365ZM143.145 98.3621C146.278 98.3621 149.059 97.6895 151.453 96.3082L150.454 94.5759C148.411 95.7546 145.986 96.3621 143.145 96.3621V98.3621ZM151.477 96.2937C153.859 94.8281 155.692 92.8088 156.968 90.2573L155.179 89.3628C154.065 91.59 152.485 93.3253 150.429 94.5904L151.477 96.2937ZM156.962 90.2695C158.33 87.6243 158.993 84.5158 158.993 80.9781H156.993C156.993 84.267 156.377 87.0465 155.185 89.3506L156.962 90.2695ZM158.993 80.9781V44.7541H156.993V80.9781H158.993ZM158.993 44.7541C158.993 43.3198 158.928 42.0885 158.793 41.0699C158.659 40.0651 158.448 39.203 158.12 38.5468L156.331 39.4413C156.515 39.8091 156.688 40.419 156.81 41.3342C156.93 42.2357 156.993 43.3723 156.993 44.7541H158.993ZM158.159 38.6351C157.522 36.9804 155.903 36.2964 153.945 36.2032L153.85 38.2009C155.476 38.2783 156.075 38.7891 156.292 39.353L158.159 38.6351ZM153.983 36.2057L149.503 35.8217L149.332 37.8144L153.812 38.1984L153.983 36.2057ZM150.417 36.8181V35.4101H148.417V36.8181H150.417ZM149.474 36.4084L171.874 35.1284L171.76 33.1317L149.36 34.4117L149.474 36.4084ZM171.177 34.8983L171.945 35.5383L173.226 34.0018L172.458 33.3618L171.177 34.8983ZM171.585 34.7701V92.6261H173.585V34.7701H171.585ZM171.585 92.6261C171.585 94.7768 171.832 96.5144 172.496 97.6206L174.211 96.5916C173.851 95.991 173.585 94.742 173.585 92.6261H171.585ZM172.534 97.6795C173.381 98.8891 174.896 99.4557 176.71 99.6371L176.909 97.647C175.31 97.4871 174.521 97.0297 174.173 96.5326L172.534 97.6795ZM176.744 99.6399L182.632 100.024L182.762 98.0282L176.874 97.6442L176.744 99.6399ZM181.697 99.0261V100.562H183.697V99.0261H181.697ZM182.642 99.5636L159.73 100.844L159.841 102.841L182.753 101.561L182.642 99.5636ZM160.778 101.723L159.37 89.9473L157.384 90.1848L158.792 101.961L160.778 101.723ZM158.377 89.0661H158.121V91.0661H158.377V89.0661ZM157.227 89.6188C155.731 92.6116 154.049 94.9346 152.199 96.6236L153.548 98.1005C155.623 96.2055 157.44 93.6645 159.016 90.5133L157.227 89.6188ZM152.199 96.6236C150.348 98.3138 148.219 99.5191 145.802 100.244L146.377 102.16C149.08 101.349 151.473 99.9944 153.548 98.1005L152.199 96.6236ZM145.763 100.257C143.41 101.068 140.749 101.482 137.769 101.482V103.482C140.934 103.482 143.819 103.043 146.415 102.147L145.763 100.257ZM198.59 102.482L198.087 103.346L198.583 103.635L199.083 103.352L198.59 102.482ZM197.054 101.586H196.054V102.16L196.551 102.45L197.054 101.586ZM196.414 7.25006L195.473 7.5864L195.477 7.59777L195.481 7.60904L196.414 7.25006ZM192.318 5.20206L192.228 6.19795L192.236 6.19871L192.245 6.19932L192.318 5.20206ZM186.686 4.69006L185.691 4.59055L185.591 5.59459L186.596 5.68595L186.686 4.69006ZM186.814 3.41006L186.782 2.41057L185.907 2.43867L185.819 3.31055L186.814 3.41006ZM210.75 2.64206L211.332 1.82833L211.056 1.63173L210.718 1.64257L210.75 2.64206ZM211.646 3.28206H212.646V2.76744L212.228 2.46833L211.646 3.28206ZM211.646 44.6261H210.646V45.6261H211.646V44.6261ZM211.774 44.6261V45.6261H212.384L212.663 45.084L211.774 44.6261ZM217.022 37.9701L217.643 38.7541L217.653 38.7463L217.663 38.7383L217.022 37.9701ZM223.806 34.2581L224.103 35.2131L224.113 35.21L224.123 35.2067L223.806 34.2581ZM246.206 36.5621L245.695 37.4212L245.701 37.4252L245.708 37.4292L246.206 36.5621ZM255.422 47.1861L254.509 47.5937L254.514 47.6036L254.518 47.6134L255.422 47.1861ZM255.038 85.2021L255.952 85.6095L255.954 85.6043L255.038 85.2021ZM244.286 98.0021L244.823 98.8457L244.823 98.8457L244.286 98.0021ZM216.894 100.946L216.593 101.9L216.6 101.902L216.894 100.946ZM208.318 96.9781L208.866 96.1416L208.357 95.8075L207.826 96.1077L208.318 96.9781ZM235.198 97.3621L235.79 98.1685L235.794 98.1652L235.198 97.3621ZM241.214 87.3781L242.175 87.6574L242.175 87.6574L241.214 87.3781ZM241.47 50.6421L242.435 50.3773L242.435 50.3773L241.47 50.6421ZM235.966 41.1701L236.588 40.3866L236.588 40.3866L235.966 41.1701ZM218.942 40.1461L219.417 41.0266L219.428 41.0202L218.942 40.1461ZM213.566 45.7781L212.684 45.3074L212.678 45.3186L213.566 45.7781ZM211.646 94.1621H210.646V94.5906L210.957 94.8862L211.646 94.1621ZM217.918 98.5141L217.471 99.4085L217.49 99.4179L217.509 99.4266L217.918 98.5141ZM199.094 101.618L197.558 100.722L196.551 102.45L198.087 103.346L199.094 101.618ZM198.054 101.586V13.0101H196.054V101.586H198.054ZM198.054 13.0101C198.054 10.2749 197.847 8.18908 197.348 6.89108L195.481 7.60904C195.835 8.52971 196.054 10.2839 196.054 13.0101H198.054ZM197.356 6.91372C196.711 5.10786 194.753 4.37966 192.392 4.20479L192.245 6.19932C194.492 6.36579 195.264 7.00293 195.473 7.5864L197.356 6.91372ZM192.409 4.20616L186.777 3.69416L186.596 5.68595L192.228 6.19795L192.409 4.20616ZM187.681 4.78956L187.809 3.50956L185.819 3.31055L185.691 4.59055L187.681 4.78956ZM186.846 4.40954L210.782 3.64154L210.718 1.64257L186.782 2.41057L186.846 4.40954ZM210.169 3.45579L211.065 4.09579L212.228 2.46833L211.332 1.82833L210.169 3.45579ZM210.646 3.28206V44.6261H212.646V3.28206H210.646ZM211.646 45.6261H211.774V43.6261H211.646V45.6261ZM212.663 45.084C214.062 42.3682 215.728 40.2703 217.643 38.7541L216.402 37.186C214.221 38.9124 212.388 41.2519 210.885 44.1681L212.663 45.084ZM217.663 38.7383C219.612 37.1134 221.758 35.9409 224.103 35.2131L223.51 33.303C220.906 34.1112 218.528 35.4133 216.382 37.2018L217.663 38.7383ZM224.123 35.2067C226.573 34.3899 229.196 33.9781 231.998 33.9781V31.9781C228.998 31.9781 226.16 32.4196 223.49 33.3094L224.123 35.2067ZM231.998 33.9781C237.31 33.9781 241.863 35.1387 245.695 37.4212L246.718 35.703C242.528 33.2068 237.609 31.9781 231.998 31.9781V33.9781ZM245.708 37.4292C249.512 39.6142 252.45 42.9818 254.509 47.5937L256.336 46.7784C254.128 41.833 250.922 38.1179 246.705 35.695L245.708 37.4292ZM254.518 47.6134C256.654 52.131 257.75 57.9455 257.75 65.1061H259.75C259.75 57.7599 258.628 51.6277 256.326 46.7587L254.518 47.6134ZM257.75 65.1061C257.75 72.768 256.529 79.3232 254.123 84.7998L255.954 85.6043C258.497 79.8169 259.75 72.9748 259.75 65.1061H257.75ZM254.125 84.7946C251.723 90.1793 248.262 94.2867 243.75 97.1584L244.823 98.8457C249.697 95.7441 253.405 91.3182 255.952 85.6095L254.125 84.7946ZM243.75 97.1584C239.25 100.022 233.686 101.482 227.006 101.482V103.482C233.98 103.482 239.936 101.956 244.823 98.8457L243.75 97.1584ZM227.006 101.482C223.695 101.482 220.423 100.986 217.188 99.9903L216.6 101.902C220.022 102.955 223.491 103.482 227.006 103.482V101.482ZM217.196 99.9925C214.027 98.992 211.254 97.706 208.866 96.1416L207.77 97.8145C210.332 99.4928 213.276 100.852 216.593 101.9L217.196 99.9925ZM207.826 96.1077L198.098 101.612L199.083 103.352L208.811 97.8484L207.826 96.1077ZM226.11 101.178C229.799 101.178 233.041 100.184 235.79 98.1685L234.607 96.5557C232.236 98.2943 229.419 99.1781 226.11 99.1781V101.178ZM235.794 98.1652C238.682 96.0229 240.776 92.4634 242.175 87.6574L240.254 87.0987C238.922 91.6794 237.006 94.7759 234.603 96.559L235.794 98.1652ZM242.175 87.6574C243.578 82.8327 244.262 76.282 244.262 68.0501H242.262C242.262 76.2021 241.581 82.5368 240.254 87.0987L242.175 87.6574ZM244.262 68.0501C244.262 60.7544 243.663 54.8516 242.435 50.3773L240.506 50.9068C241.667 55.1366 242.262 60.839 242.262 68.0501H244.262ZM242.435 50.3773C241.207 45.9053 239.287 42.5272 236.588 40.3866L235.345 41.9536C237.595 43.7383 239.344 46.6749 240.506 50.9068L242.435 50.3773ZM236.588 40.3866C233.909 38.2617 230.607 37.2261 226.75 37.2261V39.2261C230.232 39.2261 233.075 40.1531 235.345 41.9536L236.588 40.3866ZM226.75 37.2261C223.697 37.2261 220.924 37.9013 218.457 39.2719L219.428 41.0202C221.569 39.8309 224.001 39.2261 226.75 39.2261V37.2261ZM218.468 39.2656C216.051 40.5672 214.128 42.6007 212.684 45.3075L214.449 46.2486C215.736 43.8355 217.396 42.1142 219.416 41.0265L218.468 39.2656ZM212.678 45.3186C211.302 47.9787 210.646 51.3075 210.646 55.2501H212.646C212.646 51.5127 213.27 48.5268 214.455 46.2375L212.678 45.3186ZM210.646 55.2501V94.1621H212.646V55.2501H210.646ZM210.957 94.8862C212.826 96.6666 215 98.1729 217.471 99.4085L218.366 97.6196C216.058 96.4659 214.051 95.0709 212.336 93.4379L210.957 94.8862ZM217.509 99.4266C220.125 100.599 222.997 101.178 226.11 101.178V99.1781C223.25 99.1781 220.661 98.6476 218.327 97.6016L217.509 99.4266ZM269.002 100.69H268.002V101.69H269.002V100.69ZM269.002 99.1541L268.881 98.1614L268.002 98.2686V99.1541H269.002ZM274.25 98.5141L274.198 97.5154L274.163 97.5173L274.129 97.5214L274.25 98.5141ZM277.322 97.1061L276.444 96.6272L276.436 96.6429L276.428 96.6588L277.322 97.1061ZM277.194 6.86606L276.3 7.31327L276.314 7.34209L276.331 7.36993L277.194 6.86606ZM273.61 5.20206L273.524 6.1983L273.544 6.20009L273.565 6.20103L273.61 5.20206ZM267.722 4.69006L266.727 4.59055L266.627 5.59854L267.636 5.6863L267.722 4.69006ZM267.85 3.41006L267.818 2.41057L266.943 2.43867L266.855 3.31055L267.85 3.41006ZM291.786 2.64206L292.368 1.82833L292.092 1.63173L291.754 1.64257L291.786 2.64206ZM292.682 3.28206H293.682V2.76744L293.264 2.46833L292.682 3.28206ZM293.322 96.9781L292.428 97.4253L292.445 97.4596L292.465 97.4926L293.322 96.9781ZM296.65 98.5141L296.777 97.5221L296.763 97.5204L296.75 97.519L296.65 98.5141ZM302.666 99.2821H303.666V98.4016L302.793 98.2901L302.666 99.2821ZM302.666 100.69V101.69H303.666V100.69H302.666ZM270.002 100.69V99.1541H268.002V100.69H270.002ZM269.123 100.147L274.371 99.5067L274.129 97.5214L268.881 98.1614L269.123 100.147ZM274.303 99.5127C276.024 99.4221 277.539 98.9082 278.217 97.5533L276.428 96.6588C276.252 97.0106 275.72 97.4353 274.198 97.5154L274.303 99.5127ZM278.2 97.5849C278.842 96.4076 279.09 94.5621 279.09 92.2421H277.09C277.09 94.53 276.826 95.9272 276.444 96.6272L278.2 97.5849ZM279.09 92.2421V12.6261H277.09V92.2421H279.09ZM279.09 12.6261C279.09 11.1873 279.014 9.94823 278.855 8.92035C278.697 7.90564 278.447 7.02924 278.058 6.36219L276.331 7.36993C276.539 7.72688 276.737 8.32248 276.878 9.22777C277.017 10.1199 277.09 11.2488 277.09 12.6261H279.09ZM278.089 6.41885C277.329 4.89904 275.651 4.29377 273.656 4.20309L273.565 6.20103C275.325 6.28101 276.036 6.78507 276.3 7.31327L278.089 6.41885ZM273.697 4.20582L267.809 3.69382L267.636 5.6863L273.524 6.1983L273.697 4.20582ZM268.717 4.78956L268.845 3.50956L266.855 3.31055L266.727 4.59055L268.717 4.78956ZM267.882 4.40954L291.818 3.64154L291.754 1.64257L267.818 2.41057L267.882 4.40954ZM291.205 3.45579L292.101 4.09579L293.264 2.46833L292.368 1.82833L291.205 3.45579ZM291.682 3.28206V92.6261H293.682V3.28206H291.682ZM291.682 92.6261C291.682 94.6905 291.889 96.3472 292.428 97.4253L294.217 96.5309C293.903 95.9023 293.682 94.6576 293.682 92.6261H291.682ZM292.465 97.4926C293.228 98.7636 294.752 99.3292 296.551 99.5091L296.75 97.519C295.135 97.3576 294.441 96.8992 294.18 96.4636L292.465 97.4926ZM296.524 99.506L302.54 100.274L302.793 98.2901L296.777 97.5221L296.524 99.506ZM301.666 99.2821V100.69H303.666V99.2821H301.666ZM302.666 99.6901H269.002V101.69H302.666V99.6901ZM310.996 100.69H309.996V101.69H310.996V100.69ZM310.996 99.1541L310.897 98.159L309.996 98.2491V99.1541H310.996ZM317.396 98.5141L317.496 99.5091L317.508 99.5079L317.52 99.5063L317.396 98.5141ZM319.956 96.9781L319.046 96.5643L319.036 96.5853L319.028 96.6067L319.956 96.9781ZM319.828 38.9941L320.736 38.575L320.736 38.575L319.828 38.9941ZM316.244 37.2021L316.16 38.1985L316.179 38.2001L316.199 38.201L316.244 37.2021ZM310.228 36.6901L309.232 36.5995L309.141 37.6012L310.144 37.6865L310.228 36.6901ZM310.356 35.2821L310.308 34.2832L309.439 34.325L309.36 35.1915L310.356 35.2821ZM334.292 34.1301L334.874 33.3163L334.591 33.1145L334.244 33.1312L334.292 34.1301ZM335.188 34.7701H336.188V34.2554L335.77 33.9563L335.188 34.7701ZM335.828 96.9781L334.954 97.4637L334.954 97.4637L335.828 96.9781ZM338.516 98.3861L338.65 97.395L338.64 97.3938L338.516 98.3861ZM345.172 99.2821H346.172V98.4077L345.306 98.291L345.172 99.2821ZM345.172 100.69V101.69H346.172V100.69H345.172ZM319.316 19.1541L318.627 19.8782L318.636 19.887L318.645 19.8956L319.316 19.1541ZM319.316 6.09806L320.006 6.8222L320.006 6.8222L319.316 6.09806ZM333.396 6.09806L332.689 6.80517L332.698 6.81423L332.708 6.82306L333.396 6.09806ZM333.268 19.1541L333.957 19.8791L333.958 19.8782L333.268 19.1541ZM311.996 100.69V99.1541H309.996V100.69H311.996ZM311.096 100.149L317.496 99.5091L317.297 97.519L310.897 98.159L311.096 100.149ZM317.52 99.5063C319.05 99.3151 320.348 98.6917 320.885 97.3495L319.028 96.6067C318.882 96.9711 318.473 97.3716 317.272 97.5218L317.52 99.5063ZM320.867 97.3919C321.388 96.2461 321.596 94.5257 321.596 92.3701H319.596C319.596 94.4811 319.379 95.8327 319.046 96.5643L320.867 97.3919ZM321.596 92.3701V45.0101H319.596V92.3701H321.596ZM321.596 45.0101C321.596 42.1104 321.35 39.9037 320.736 38.575L318.92 39.4131C319.331 40.3031 319.596 42.1071 319.596 45.0101H321.596ZM320.736 38.575C319.993 36.9643 318.32 36.2954 316.29 36.2031L316.199 38.201C317.923 38.2794 318.64 38.8052 318.92 39.4131L320.736 38.575ZM316.329 36.2057L310.313 35.6937L310.144 37.6865L316.16 38.1985L316.329 36.2057ZM311.224 36.7806L311.352 35.3726L309.36 35.1915L309.232 36.5995L311.224 36.7806ZM310.404 36.2809L334.34 35.1289L334.244 33.1312L310.308 34.2832L310.404 36.2809ZM333.711 34.9438L334.607 35.5838L335.77 33.9563L334.874 33.3163L333.711 34.9438ZM334.188 34.7701V92.8821H336.188V34.7701H334.188ZM334.188 92.8821C334.188 94.8534 334.392 96.4512 334.954 97.4637L336.703 96.4924C336.412 95.9689 336.188 94.8361 336.188 92.8821H334.188ZM334.954 97.4637C335.608 98.64 336.894 99.191 338.392 99.3783L338.64 97.3938C337.408 97.2398 336.902 96.8521 336.703 96.4924L334.954 97.4637ZM338.383 99.3771L345.039 100.273L345.306 98.291L338.65 97.395L338.383 99.3771ZM344.172 99.2821V100.69H346.172V99.2821H344.172ZM345.172 99.6901H310.996V101.69H345.172V99.6901ZM326.228 20.5861C323.617 20.5861 321.565 19.8404 319.987 18.4125L318.645 19.8956C320.651 21.7104 323.208 22.5861 326.228 22.5861V20.5861ZM320.006 18.4299C318.427 16.9261 317.628 15.0188 317.628 12.6261H315.628C315.628 15.524 316.622 17.9687 318.627 19.8782L320.006 18.4299ZM317.628 12.6261C317.628 10.2333 318.427 8.32607 320.006 6.8222L318.627 5.37392C316.622 7.28338 315.628 9.72812 315.628 12.6261H317.628ZM320.006 6.8222C321.586 5.31734 323.631 4.53806 326.228 4.53806V2.53806C323.194 2.53806 320.631 3.46544 318.627 5.37392L320.006 6.8222ZM326.228 4.53806C329.111 4.53806 331.218 5.33367 332.689 6.80517L334.103 5.39095C332.162 3.44911 329.49 2.53806 326.228 2.53806V4.53806ZM332.708 6.82306C334.19 8.23133 334.956 10.0895 334.956 12.4981H336.956C336.956 9.61596 336.016 7.20745 334.085 5.37306L332.708 6.82306ZM334.956 12.4981C334.956 14.9864 334.151 16.9326 332.579 18.4299L333.958 19.8782C335.97 17.9622 336.956 15.4711 336.956 12.4981H334.956ZM332.58 18.4291C331.105 19.8299 329.031 20.5861 326.228 20.5861V22.5861C329.4 22.5861 332.018 21.7209 333.957 19.8791L332.58 18.4291ZM367.344 98.6421L366.825 99.4966L366.835 99.5025L366.845 99.5082L367.344 98.6421ZM357.104 87.2501L356.21 87.6973L356.21 87.6973L357.104 87.2501ZM357.36 49.8741L356.469 49.4212L356.463 49.4326L357.36 49.8741ZM368.752 37.4581L369.265 38.317L369.276 38.3102L368.752 37.4581ZM397.424 35.2821L396.996 36.1858L397.01 36.1925L397.025 36.1988L397.424 35.2821ZM405.104 41.1701L404.294 41.7566L404.299 41.7634L404.304 41.7701L405.104 41.1701ZM406.896 53.4581L405.98 53.0572L405.974 53.0719L405.968 53.0867L406.896 53.4581ZM404.336 56.5301L403.796 55.6889L403.796 55.6889L404.336 56.5301ZM393.84 55.8901L393.158 56.6211L393.17 56.6321L393.182 56.6426L393.84 55.8901ZM397.68 38.9941L398.53 39.522L399.002 38.763L398.3 38.2092L397.68 38.9941ZM392.432 36.1781L392.091 37.1179L392.11 37.1248L392.129 37.131L392.432 36.1781ZM377.072 38.0981L376.477 37.295L376.477 37.295L377.072 38.0981ZM370.8 47.5701L369.857 47.2372L369.854 47.2482L370.8 47.5701ZM373.872 85.4581L374.674 84.8604L374.674 84.8604L373.872 85.4581ZM399.216 90.3221L398.789 89.4178L398.779 89.4226L399.216 90.3221ZM407.28 85.0741L407.894 84.2847L407.238 83.774L406.616 84.3267L407.28 85.0741ZM408.432 85.9701L409.316 86.4392L409.71 85.6968L409.046 85.1807L408.432 85.9701ZM397.808 98.3861L398.355 99.2233L398.361 99.2195L398.367 99.2155L397.808 98.3861ZM382.704 101.482C377.053 101.482 372.11 100.237 367.844 97.7759L366.845 99.5082C371.453 102.167 376.75 103.482 382.704 103.482V101.482ZM367.864 97.7875C363.687 95.2484 360.397 91.599 357.999 86.8028L356.21 87.6973C358.761 92.7998 362.298 96.7451 366.825 99.4966L367.864 97.7875ZM357.999 86.8028C355.611 82.0272 354.392 76.1311 354.392 69.0741H352.392C352.392 76.353 353.648 82.5743 356.21 87.6973L357.999 86.8028ZM354.392 69.0741C354.392 61.7673 355.694 55.5253 358.258 50.3156L356.463 49.4326C353.736 54.9748 352.392 61.5328 352.392 69.0741H354.392ZM358.252 50.3269C360.903 45.108 364.574 41.1151 369.265 38.3169L368.24 36.5992C363.203 39.6037 359.279 43.8881 356.469 49.4212L358.252 50.3269ZM369.276 38.3102C373.964 35.4316 379.41 33.9781 385.648 33.9781V31.9781C379.087 31.9781 373.269 33.5112 368.229 36.6059L369.276 38.3102ZM385.648 33.9781C390.149 33.9781 393.92 34.7285 396.996 36.1858L397.852 34.3783C394.444 32.7636 390.364 31.9781 385.648 31.9781V33.9781ZM397.025 36.1988C400.22 37.5915 402.625 39.4518 404.294 41.7566L405.914 40.5835C403.999 37.939 401.285 35.8739 397.824 34.3654L397.025 36.1988ZM404.304 41.7701C405.979 44.0035 406.792 46.3563 406.792 48.8501H408.792C408.792 45.8825 407.813 43.1153 405.904 40.5701L404.304 41.7701ZM406.792 48.8501C406.792 50.4387 406.515 51.8354 405.98 53.0572L407.813 53.8589C408.473 52.3501 408.792 50.6747 408.792 48.8501H406.792ZM405.968 53.0867C405.536 54.1674 404.821 55.0297 403.796 55.6889L404.877 57.3712C406.241 56.4944 407.233 55.3087 407.825 53.8295L405.968 53.0867ZM403.796 55.6889C402.813 56.3207 401.442 56.6821 399.6 56.6821V58.6821C401.684 58.6821 403.471 58.2754 404.877 57.3712L403.796 55.6889ZM399.6 56.6821C397.279 56.6821 395.625 56.1226 394.499 55.1375L393.182 56.6426C394.787 58.0468 396.972 58.6821 399.6 58.6821V56.6821ZM394.523 55.159C393.471 54.1773 392.92 52.8766 392.92 51.1541H390.92C390.92 53.3569 391.65 55.2135 393.158 56.6211L394.523 55.159ZM392.92 51.1541C392.92 50.0095 393.317 48.5945 394.214 46.8821L392.443 45.9541C391.462 47.8256 390.92 49.568 390.92 51.1541H392.92ZM394.214 46.8821C395.136 45.1228 396.571 42.6726 398.53 39.522L396.831 38.4661C394.864 41.6302 393.398 44.1293 392.443 45.9541L394.214 46.8821ZM398.3 38.2092C396.589 36.8582 394.733 35.8607 392.736 35.2251L392.129 37.131C393.886 37.6901 395.529 38.5699 397.061 39.7789L398.3 38.2092ZM392.774 35.2383C390.768 34.5088 388.516 34.1541 386.032 34.1541V36.1541C388.327 36.1541 390.342 36.482 392.091 37.1179L392.774 35.2383ZM386.032 34.1541C382.492 34.1541 379.296 35.203 376.477 37.295L377.668 38.9012C380.139 37.0678 382.917 36.1541 386.032 36.1541V34.1541ZM376.477 37.295C373.619 39.4151 371.434 42.77 369.857 47.2372L371.743 47.9029C373.239 43.6661 375.235 40.7063 377.668 38.9012L376.477 37.295ZM369.854 47.2482C368.354 51.6593 367.624 57.4128 367.624 64.4661H369.624C369.624 57.5246 370.346 52.0141 371.747 47.892L369.854 47.2482ZM367.624 64.4661C367.624 73.8651 369.387 81.1146 373.071 86.0557L374.674 84.8604C371.36 80.4149 369.624 73.6697 369.624 64.4661H367.624ZM373.071 86.0557C376.766 91.0125 381.847 93.4981 388.208 93.4981V91.4981C382.453 91.4981 377.976 89.2903 374.674 84.8604L373.071 86.0557ZM388.208 93.4981C392.667 93.4981 396.495 92.7556 399.653 91.2216L398.779 89.4226C395.964 90.7899 392.454 91.4981 388.208 91.4981V93.4981ZM399.643 91.2263C402.793 89.7391 405.563 87.9389 407.945 85.8215L406.616 84.3267C404.39 86.3052 401.784 88.0037 398.789 89.4178L399.643 91.2263ZM406.666 85.8634L407.818 86.7594L409.046 85.1807L407.894 84.2847L406.666 85.8634ZM407.549 85.5009C404.708 90.8498 401.268 94.8508 397.25 97.5566L398.367 99.2155C402.712 96.2893 406.354 92.013 409.316 86.4392L407.549 85.5009ZM397.262 97.5488C393.27 100.155 388.434 101.482 382.704 101.482V103.482C388.751 103.482 393.984 102.078 398.355 99.2233L397.262 97.5488ZM423.643 98.0021L422.936 98.7092L422.946 98.719L422.956 98.7285L423.643 98.0021ZM422.363 74.5781L423.14 75.2087L423.144 75.2028L423.149 75.1969L422.363 74.5781ZM433.627 68.1781L433.892 69.1425L433.899 69.1405L433.906 69.1384L433.627 68.1781ZM455.131 65.2341L455.179 66.233L456.131 66.188V65.2341H455.131ZM453.851 41.1701L452.923 41.5414L452.926 41.5481L452.928 41.5547L453.851 41.1701ZM449.883 36.5621L449.387 37.4303L449.403 37.4394L449.419 37.4479L449.883 36.5621ZM434.523 36.4341L434.822 37.3885L434.835 37.3843L434.848 37.3797L434.523 36.4341ZM428.251 39.8901L427.544 39.183L426.87 39.8572L427.511 40.5627L428.251 39.8901ZM432.219 44.8821L431.38 45.4253L431.387 45.4371L431.395 45.4486L432.219 44.8821ZM434.139 48.4661L433.191 48.7823L433.207 48.8321L433.229 48.8799L434.139 48.4661ZM432.731 55.2501L433.414 55.9811L433.415 55.9796L432.731 55.2501ZM421.339 55.1221L420.61 55.806L420.621 55.8178L420.632 55.8292L421.339 55.1221ZM422.747 41.8101L423.503 42.465L423.503 42.465L422.747 41.8101ZM431.835 35.5381L432.224 36.4593L432.233 36.4557L432.242 36.4519L431.835 35.5381ZM458.459 35.5381L458.038 36.4448L458.05 36.4506L458.063 36.4561L458.459 35.5381ZM466.907 43.2181L466.026 43.6909L466.026 43.6909L466.907 43.2181ZM471.131 95.4421L470.394 96.1178L470.424 96.1498L470.456 96.1792L471.131 95.4421ZM478.171 96.4661L477.929 95.4959L477.929 95.4959L478.171 96.4661ZM481.243 95.1861L482.091 94.6561L481.577 93.8336L480.74 94.3223L481.243 95.1861ZM481.883 96.2101L482.643 96.8609L483.121 96.3031L482.731 95.6801L481.883 96.2101ZM475.355 101.074L475.008 100.136L474.987 100.144L474.966 100.153L475.355 101.074ZM459.611 99.4101L458.875 100.087L458.89 100.102L458.904 100.117L459.611 99.4101ZM455.899 90.0661L456.892 89.942L456.446 86.3746L454.986 89.6599L455.899 90.0661ZM451.163 97.4901L451.87 98.1972L451.879 98.1889L451.887 98.1805L451.163 97.4901ZM445.019 101.33L444.703 100.381L444.703 100.381L445.019 101.33ZM449.627 95.1861L450.172 96.0246L450.182 96.0181L449.627 95.1861ZM453.723 90.4501L454.626 90.8815L454.629 90.8741L454.632 90.8667L453.723 90.4501ZM455.131 67.1541H456.131V66.1375L455.115 66.1542L455.131 67.1541ZM442.587 68.8181L442.279 67.8668L442.271 67.8694L442.587 68.8181ZM435.931 73.9381L436.792 74.4479L436.796 74.4411L436.8 74.4342L435.931 73.9381ZM436.315 93.5221L435.498 94.0976L435.51 94.1149L435.523 94.1318L436.315 93.5221ZM436.955 101.482C431.411 101.482 427.25 100.037 424.331 97.2756L422.956 98.7285C426.352 101.941 431.065 103.482 436.955 103.482V101.482ZM424.35 97.295C421.511 94.4558 420.035 90.4701 420.035 85.2021H418.035C418.035 90.8567 419.631 95.4043 422.936 98.7092L424.35 97.295ZM420.035 85.2021C420.035 81.0237 421.097 77.722 423.14 75.2087L421.587 73.9475C419.192 76.8955 418.035 80.6764 418.035 85.2021H420.035ZM423.149 75.1969C425.182 72.6168 428.704 70.5648 433.892 69.1425L433.363 67.2137C427.969 68.6926 423.982 70.9074 421.578 73.9592L423.149 75.1969ZM433.906 69.1384C439.089 67.6338 446.168 66.658 455.179 66.233L455.084 64.2352C446.004 64.6635 438.747 65.6503 433.349 67.2177L433.906 69.1384ZM456.131 65.2341V49.3621H454.131V65.2341H456.131ZM456.131 49.3621C456.131 45.8804 455.698 43.0029 454.774 40.7854L452.928 41.5547C453.711 43.4332 454.131 46.017 454.131 49.3621H456.131ZM454.78 40.7987C453.851 38.4759 452.379 36.7405 450.347 35.6762L449.419 37.4479C450.972 38.2609 452.145 39.5975 452.923 41.5414L454.78 40.7987ZM450.38 35.6938C448.384 34.5533 445.803 34.0261 442.715 34.0261V36.0261C445.601 36.0261 447.799 36.5228 449.387 37.4303L450.38 35.6938ZM442.715 34.0261C439.868 34.0261 437.028 34.5158 434.198 35.4884L434.848 37.3797C437.481 36.475 440.102 36.0261 442.715 36.0261V34.0261ZM434.225 35.4796C431.398 36.3632 429.145 37.5819 427.544 39.183L428.958 40.5972C430.259 39.2969 432.188 38.2116 434.822 37.3885L434.225 35.4796ZM427.511 40.5627C429.197 42.4166 430.481 44.0362 431.38 45.4253L433.059 44.3388C432.08 42.8266 430.719 41.1182 428.991 39.2174L427.511 40.5627ZM431.395 45.4486C432.306 46.7733 432.89 47.8812 433.191 48.7823L435.088 48.1498C434.706 47.0029 434.01 45.7215 433.043 44.3155L431.395 45.4486ZM433.229 48.8799C433.616 49.7308 433.779 50.4408 433.779 51.0261H435.779C435.779 50.0753 435.516 49.0787 435.05 48.0523L433.229 48.8799ZM433.779 51.0261C433.779 52.2268 433.259 53.3851 432.047 54.5205L433.415 55.9796C434.935 54.555 435.779 52.8974 435.779 51.0261H433.779ZM432.049 54.519C431.013 55.4861 429.457 56.0421 427.227 56.0421V58.0421C429.776 58.0421 431.89 57.4034 433.414 55.9811L432.049 54.519ZM427.227 56.0421C424.725 56.0421 423.067 55.4358 422.046 54.415L420.632 55.8292C422.171 57.3683 424.439 58.0421 427.227 58.0421V56.0421ZM422.069 54.4381C420.994 53.2917 420.419 51.7608 420.419 49.7461H418.419C418.419 52.1686 419.125 54.2217 420.61 55.806L422.069 54.4381ZM420.419 49.7461C420.419 47.3099 421.403 44.8885 423.503 42.465L421.992 41.1551C419.655 43.8516 418.419 46.7209 418.419 49.7461H420.419ZM423.503 42.465C425.601 40.0442 428.493 38.0346 432.224 36.4593L431.446 34.6168C427.497 36.2842 424.331 38.4559 421.992 41.1551L423.503 42.465ZM432.242 36.4519C435.939 34.8083 440.066 33.9781 444.635 33.9781V31.9781C439.819 31.9781 435.411 32.8544 431.429 34.6243L432.242 36.4519ZM444.635 33.9781C450.087 33.9781 454.54 34.8179 458.038 36.4448L458.881 34.6313C455.04 32.8449 450.277 31.9781 444.635 31.9781V33.9781ZM458.063 36.4561C461.617 37.9909 464.259 40.3974 466.026 43.6909L467.789 42.7452C465.801 39.0414 462.811 36.3279 458.856 34.62L458.063 36.4561ZM466.026 43.6909C467.801 46.9979 468.723 51.3425 468.723 56.7861H470.723C470.723 51.1363 469.769 46.4355 467.789 42.7452L466.026 43.6909ZM468.723 56.7861V90.4501H470.723V56.7861H468.723ZM468.723 90.4501C468.723 92.8501 469.205 94.8207 470.394 96.1178L471.869 94.7663C471.18 94.0154 470.723 92.6581 470.723 90.4501H468.723ZM470.456 96.1792C471.695 97.3148 473.272 97.8501 475.099 97.8501V95.8501C473.684 95.8501 472.616 95.4466 471.807 94.7049L470.456 96.1792ZM475.099 97.8501C476.208 97.8501 477.313 97.7114 478.414 97.4362L477.929 95.4959C476.982 95.7327 476.039 95.8501 475.099 95.8501V97.8501ZM478.414 97.4362C479.54 97.1547 480.652 96.689 481.747 96.0498L480.74 94.3223C479.787 94.8778 478.851 95.2655 477.929 95.4959L478.414 97.4362ZM480.395 95.7161L481.035 96.7401L482.731 95.6801L482.091 94.6561L480.395 95.7161ZM481.124 95.5593C479.156 97.8549 477.114 99.3564 475.008 100.136L475.703 102.012C478.205 101.085 480.514 99.3439 482.643 96.8609L481.124 95.5593ZM474.966 100.153C472.86 101.044 470.773 101.482 468.699 101.482V103.482C471.063 103.482 473.414 102.981 475.745 101.995L474.966 100.153ZM468.699 101.482C464.85 101.482 462.116 100.501 460.318 98.703L458.904 100.117C461.202 102.415 464.527 103.482 468.699 103.482V101.482ZM460.347 98.733C458.574 96.8054 457.388 93.9159 456.892 89.942L454.907 90.1901C455.434 94.4082 456.724 97.7481 458.875 100.087L460.347 98.733ZM454.986 89.6599C453.654 92.6563 452.133 95.0258 450.44 96.7996L451.887 98.1805C453.778 96.1996 455.414 93.6198 456.813 90.4722L454.986 89.6599ZM450.456 96.783C448.769 98.4701 446.853 99.6646 444.703 100.381L445.336 102.279C447.793 101.46 449.974 100.094 451.87 98.1972L450.456 96.783ZM444.703 100.381C442.524 101.108 439.947 101.482 436.955 101.482V103.482C440.108 103.482 442.907 103.088 445.336 102.279L444.703 100.381ZM443.611 97.8501C446.083 97.8501 448.283 97.2527 450.172 96.0245L449.082 94.3476C447.559 95.338 445.748 95.8501 443.611 95.8501V97.8501ZM450.182 96.0181C452.125 94.7226 453.61 93.0048 454.626 90.8815L452.821 90.0186C451.959 91.8206 450.713 93.2602 449.073 94.354L450.182 96.0181ZM454.632 90.8667C455.641 88.6672 456.131 86.1744 456.131 83.4101H454.131C454.131 85.9364 453.684 88.137 452.814 90.0334L454.632 90.8667ZM456.131 83.4101V67.1541H454.131V83.4101H456.131ZM455.115 66.1542C449.86 66.2403 445.568 66.8 442.279 67.8668L442.896 69.7693C445.921 68.7882 449.992 68.2384 455.148 68.1539L455.115 66.1542ZM442.271 67.8694C439.009 68.9566 436.572 70.8021 435.063 73.4419L436.8 74.4342C438.022 72.2953 440.021 70.7275 442.904 69.7667L442.271 67.8694ZM435.071 73.4283C433.578 75.9476 432.883 79.3501 432.883 83.5381H434.883C434.883 79.534 435.554 76.5366 436.792 74.4479L435.071 73.4283ZM432.883 83.5381C432.883 87.9914 433.709 91.556 435.498 94.0976L437.133 92.9466C435.679 90.8801 434.883 87.7887 434.883 83.5381H432.883ZM435.523 94.1318C437.445 96.6303 440.189 97.8501 443.611 97.8501V95.8501C440.719 95.8501 438.599 94.8511 437.108 92.9124L435.523 94.1318ZM508.521 127.954L508.074 128.848L508.081 128.852L508.088 128.855L508.521 127.954ZM502.633 123.602L501.865 122.962L501.295 123.646L501.909 124.292L502.633 123.602ZM503.913 122.066L504.505 121.26L503.747 120.704L503.145 121.426L503.913 122.066ZM518.633 123.346L517.967 122.601L517.957 122.61L517.947 122.619L518.633 123.346ZM519.529 113.234L520.236 112.527L520.236 112.527L519.529 113.234ZM513.001 111.826L512.86 110.836L512.771 110.849L512.685 110.877L513.001 111.826ZM511.337 112.338L510.443 112.785L510.814 113.528L511.612 113.3L511.337 112.338ZM510.697 111.058L509.77 110.684L509.601 111.102L509.803 111.505L510.697 111.058ZM514.153 102.482L515.081 102.856L515.598 101.573L514.218 101.484L514.153 102.482ZM500.073 98.0021L499.531 98.8421L499.531 98.8421L500.073 98.0021ZM490.985 49.8741L490.094 49.4212L490.088 49.4326L490.985 49.8741ZM502.377 37.4581L502.89 38.317L502.901 38.3102L502.377 37.4581ZM531.049 35.2821L530.621 36.1858L530.635 36.1925L530.65 36.1988L531.049 35.2821ZM538.729 41.1701L537.919 41.7566L537.924 41.7634L537.929 41.7701L538.729 41.1701ZM540.521 53.4581L539.605 53.0572L539.599 53.0719L539.593 53.0867L540.521 53.4581ZM537.961 56.5301L537.421 55.6889L537.421 55.6889L537.961 56.5301ZM527.465 55.8901L526.783 56.6211L526.795 56.6321L526.807 56.6426L527.465 55.8901ZM531.305 38.9941L532.155 39.522L532.627 38.763L531.925 38.2092L531.305 38.9941ZM526.057 36.1781L525.716 37.1179L525.735 37.1248L525.754 37.131L526.057 36.1781ZM510.697 38.0981L510.102 37.295L510.102 37.295L510.697 38.0981ZM504.425 47.5701L503.482 47.2372L503.479 47.2482L504.425 47.5701ZM507.497 85.4581L508.299 84.8604L508.299 84.8604L507.497 85.4581ZM532.841 90.3221L532.414 89.4178L532.404 89.4226L532.841 90.3221ZM540.905 85.0741L541.519 84.2847L540.863 83.774L540.241 84.3267L540.905 85.0741ZM542.057 85.9701L542.932 86.4557L543.348 85.7067L542.671 85.1807L542.057 85.9701ZM531.433 98.1301L530.879 97.298L530.871 97.3035L531.433 98.1301ZM516.585 102.482L516.556 101.482L515.901 101.501L515.657 102.111L516.585 102.482ZM514.025 108.882L513.097 108.511L512.422 110.197L514.208 109.865L514.025 108.882ZM523.369 108.754L523.627 107.788L523.612 107.784L523.597 107.78L523.369 108.754ZM529.129 112.338L528.329 112.938L528.339 112.951L528.349 112.963L529.129 112.338ZM529.513 123.986L528.688 123.421L528.671 123.446L528.656 123.472L529.513 123.986ZM524.777 128.082L525.21 128.984L524.777 128.082ZM517.097 128.618C513.786 128.618 511.086 128.079 508.955 127.053L508.088 128.855C510.564 130.048 513.582 130.618 517.097 130.618V128.618ZM508.969 127.06C506.853 126.002 504.984 124.62 503.358 122.912L501.909 124.292C503.696 126.168 505.752 127.688 508.074 128.848L508.969 127.06ZM503.402 124.242L504.682 122.706L503.145 121.426L501.865 122.962L503.402 124.242ZM503.322 122.872C504.646 123.843 506.016 124.684 507.434 125.392L508.329 123.604C507.016 122.947 505.741 122.166 504.505 121.26L503.322 122.872ZM507.434 125.392C508.967 126.159 510.748 126.522 512.745 126.522V124.522C510.988 124.522 509.527 124.203 508.329 123.604L507.434 125.392ZM512.745 126.522C515.354 126.522 517.574 125.722 519.32 124.073L517.947 122.619C516.621 123.871 514.915 124.522 512.745 124.522V126.522ZM519.3 124.091C521.156 122.431 522.065 120.229 522.065 117.586H520.065C520.065 119.722 519.354 121.36 517.967 122.601L519.3 124.091ZM522.065 117.586C522.065 115.526 521.499 113.789 520.236 112.527L518.822 113.941C519.608 114.727 520.065 115.892 520.065 117.586H522.065ZM520.236 112.527C518.974 111.264 517.238 110.698 515.177 110.698V112.698C516.872 112.698 518.037 113.156 518.822 113.941L520.236 112.527ZM515.177 110.698C514.294 110.698 513.519 110.742 512.86 110.836L513.143 112.816C513.679 112.739 514.354 112.698 515.177 112.698V110.698ZM512.685 110.877C512.189 111.043 511.648 111.209 511.063 111.377L511.612 113.3C512.221 113.126 512.79 112.951 513.318 112.775L512.685 110.877ZM512.232 111.891L511.592 110.611L509.803 111.505L510.443 112.785L512.232 111.891ZM511.625 111.432L515.081 102.856L513.226 102.108L509.77 110.684L511.625 111.432ZM514.218 101.484C509.082 101.153 504.556 99.7068 500.616 97.162L499.531 98.8421C503.782 101.588 508.643 103.129 514.089 103.48L514.218 101.484ZM500.616 97.162C496.692 94.628 493.61 91.0238 491.377 86.31L489.57 87.1661C491.945 92.1804 495.262 96.0854 499.531 98.8421L500.616 97.162ZM491.377 86.31C489.152 81.6122 488.017 75.8786 488.017 69.0741H486.017C486.017 76.0935 487.187 82.1359 489.57 87.1661L491.377 86.31ZM488.017 69.0741C488.017 61.7673 489.319 55.5253 491.883 50.3156L490.088 49.4326C487.361 54.9748 486.017 61.5328 486.017 69.0741H488.017ZM491.877 50.3269C494.528 45.108 498.199 41.1151 502.89 38.3169L501.865 36.5992C496.828 39.6037 492.904 43.8881 490.094 49.4212L491.877 50.3269ZM502.901 38.3102C507.589 35.4316 513.035 33.9781 519.273 33.9781V31.9781C512.712 31.9781 506.894 33.5112 501.854 36.6059L502.901 38.3102ZM519.273 33.9781C523.774 33.9781 527.545 34.7285 530.621 36.1858L531.477 34.3783C528.069 32.7636 523.989 31.9781 519.273 31.9781V33.9781ZM530.65 36.1988C533.845 37.5915 536.25 39.4518 537.919 41.7566L539.539 40.5835C537.624 37.939 534.91 35.8739 531.449 34.3654L530.65 36.1988ZM537.929 41.7701C539.604 44.0035 540.417 46.3563 540.417 48.8501H542.417C542.417 45.8825 541.438 43.1153 539.529 40.5701L537.929 41.7701ZM540.417 48.8501C540.417 50.4387 540.14 51.8354 539.605 53.0572L541.438 53.8589C542.098 52.3501 542.417 50.6747 542.417 48.8501H540.417ZM539.593 53.0867C539.161 54.1674 538.446 55.0297 537.421 55.6889L538.502 57.3712C539.866 56.4944 540.858 55.3087 541.45 53.8295L539.593 53.0867ZM537.421 55.6889C536.438 56.3207 535.067 56.6821 533.225 56.6821V58.6821C535.309 58.6821 537.096 58.2754 538.502 57.3712L537.421 55.6889ZM533.225 56.6821C530.904 56.6821 529.25 56.1226 528.124 55.1375L526.807 56.6426C528.412 58.0468 530.597 58.6821 533.225 58.6821V56.6821ZM528.148 55.159C527.096 54.1773 526.545 52.8766 526.545 51.1541H524.545C524.545 53.3569 525.275 55.2135 526.783 56.6211L528.148 55.159ZM526.545 51.1541C526.545 50.0095 526.942 48.5945 527.839 46.8821L526.068 45.9541C525.087 47.8256 524.545 49.568 524.545 51.1541H526.545ZM527.839 46.8821C528.761 45.1228 530.196 42.6726 532.155 39.522L530.456 38.4661C528.489 41.6302 527.023 44.1293 526.068 45.9541L527.839 46.8821ZM531.925 38.2092C530.214 36.8582 528.358 35.8607 526.361 35.2251L525.754 37.131C527.511 37.6901 529.154 38.5699 530.686 39.7789L531.925 38.2092ZM526.399 35.2383C524.393 34.5088 522.141 34.1541 519.657 34.1541V36.1541C521.952 36.1541 523.967 36.482 525.716 37.1179L526.399 35.2383ZM519.657 34.1541C516.117 34.1541 512.921 35.203 510.102 37.295L511.293 38.9012C513.764 37.0678 516.542 36.1541 519.657 36.1541V34.1541ZM510.102 37.295C507.244 39.4151 505.059 42.77 503.482 47.2372L505.368 47.9029C506.864 43.6661 508.86 40.7063 511.293 38.9012L510.102 37.295ZM503.479 47.2482C501.979 51.6593 501.249 57.4128 501.249 64.4661H503.249C503.249 57.5246 503.971 52.0141 505.372 47.892L503.479 47.2482ZM501.249 64.4661C501.249 73.8651 503.012 81.1146 506.696 86.0557L508.299 84.8604C504.985 80.4149 503.249 73.6697 503.249 64.4661H501.249ZM506.696 86.0557C510.391 91.0125 515.472 93.4981 521.833 93.4981V91.4981C516.078 91.4981 511.601 89.2903 508.299 84.8604L506.696 86.0557ZM521.833 93.4981C526.292 93.4981 530.12 92.7556 533.278 91.2216L532.404 89.4226C529.589 90.7899 526.079 91.4981 521.833 91.4981V93.4981ZM533.268 91.2263C536.418 89.7391 539.188 87.9389 541.57 85.8215L540.241 84.3267C538.015 86.3052 535.409 88.0037 532.414 89.4178L533.268 91.2263ZM540.291 85.8634L541.443 86.7594L542.671 85.1807L541.519 84.2847L540.291 85.8634ZM541.183 85.4844C538.255 90.7551 534.813 94.675 530.879 97.298L531.988 98.9621C536.246 96.1238 539.886 91.937 542.932 86.4557L541.183 85.4844ZM530.871 97.3035C527.049 99.9057 522.295 101.316 516.556 101.482L516.614 103.482C522.652 103.307 527.797 101.816 531.996 98.9567L530.871 97.3035ZM515.657 102.111L513.097 108.511L514.954 109.253L517.514 102.853L515.657 102.111ZM514.208 109.865C517.795 109.198 520.761 109.172 523.142 109.728L523.597 107.78C520.858 107.141 517.595 107.201 513.842 107.899L514.208 109.865ZM523.112 109.72C525.509 110.359 527.214 111.451 528.329 112.938L529.929 111.738C528.485 109.812 526.35 108.514 523.627 107.788L523.112 109.72ZM528.349 112.963C529.559 114.475 530.177 116.297 530.177 118.482H532.177C532.177 115.888 531.431 113.614 529.91 111.713L528.349 112.963ZM530.177 118.482C530.177 120.338 529.679 121.974 528.688 123.421L530.339 124.551C531.567 122.756 532.177 120.723 532.177 118.482H530.177ZM528.656 123.472C527.75 124.981 526.335 126.225 524.345 127.181L525.21 128.984C527.486 127.891 529.228 126.405 530.371 124.501L528.656 123.472ZM524.345 127.181C522.377 128.125 519.972 128.618 517.097 128.618V130.618C520.196 130.618 522.911 130.087 525.21 128.984L524.345 127.181ZM566.243 98.5141L565.747 99.3824L565.759 99.389L566.243 98.5141ZM555.107 86.9941L554.219 87.4535L554.225 87.4654L555.107 86.9941ZM555.363 49.7461L554.472 49.2932L554.472 49.2932L555.363 49.7461ZM567.011 37.3301L567.511 38.1965L567.511 38.1965L567.011 37.3301ZM601.187 36.9461L601.685 36.0788L601.685 36.0788L601.187 36.9461ZM611.939 48.3381L611.051 48.7975L611.057 48.8094L611.939 48.3381ZM611.811 85.4581L612.703 85.9109L612.706 85.9053L611.811 85.4581ZM600.291 98.0021L600.808 98.8583L600.808 98.8583L600.291 98.0021ZM593.379 97.2341L594.042 97.9831L594.05 97.976L594.058 97.9689L593.379 97.2341ZM598.371 87.3781L597.403 87.1271L597.4 87.1398L598.371 87.3781ZM598.883 53.5861L597.899 53.7598L597.901 53.771L597.903 53.7822L598.883 53.5861ZM595.427 43.0901L594.556 43.5804L594.563 43.5922L595.427 43.0901ZM589.923 37.2021L589.409 38.0596L589.422 38.0673L589.435 38.0746L589.923 37.2021ZM573.923 38.2261L574.555 39.0013L574.558 38.9988L573.923 38.2261ZM568.675 47.6981L567.71 47.4381L567.71 47.4381L568.675 47.6981ZM569.187 85.5861L568.23 85.8734L568.23 85.8734L569.187 85.5861ZM575.587 96.7221L576.232 95.9578L575.587 96.7221ZM586.723 20.9461L586.393 21.8899L586.421 21.8996L586.449 21.9076L586.723 20.9461ZM580.323 18.5141L579.929 19.4332L579.941 19.438L579.952 19.4425L580.323 18.5141ZM574.819 16.3381L574.425 17.2572L574.464 17.2736L574.503 17.2867L574.819 16.3381ZM572.003 15.3141L571.729 16.2756L571.745 16.2802L571.761 16.2842L572.003 15.3141ZM567.139 15.9541L567.654 16.8115L567.684 16.7935L567.713 16.7733L567.139 15.9541ZM564.451 19.6661L564.188 20.6308L564.993 20.8504L565.354 20.0975L564.451 19.6661ZM563.043 19.2821L562.056 19.1214L561.912 20.0099L562.78 20.2468L563.043 19.2821ZM565.219 10.5781L564.304 10.1753L564.297 10.1909L564.291 10.2067L565.219 10.5781ZM578.787 5.71406L578.442 6.6524L578.464 6.66055L578.486 6.66764L578.787 5.71406ZM584.931 8.01806L585.319 7.09641L585.314 7.09404L584.931 8.01806ZM591.715 10.8341L591.344 11.7625L591.371 11.7735L591.399 11.7827L591.715 10.8341ZM598.499 10.5781L597.926 9.75882L597.905 9.77326L597.885 9.78871L598.499 10.5781ZM601.187 6.73806L601.451 5.7733L600.645 5.5537L600.285 6.3066L601.187 6.73806ZM602.595 7.12206L603.577 7.31407L603.755 6.40187L602.859 6.1573L602.595 7.12206ZM600.035 16.2101L600.944 16.6267L600.948 16.6198L600.951 16.6128L600.035 16.2101ZM596.707 20.5621L597.222 21.4196L597.242 21.4073L597.262 21.3941L596.707 20.5621ZM583.011 101.482C576.752 101.482 571.335 100.189 566.728 97.6392L565.759 99.389C570.71 102.129 576.471 103.482 583.011 103.482V101.482ZM566.74 97.6458C562.128 95.0104 558.548 91.3095 555.989 86.5227L554.225 87.4654C556.958 92.5773 560.802 96.5564 565.747 99.3823L566.74 97.6458ZM555.996 86.5346C553.525 81.7574 552.267 75.9919 552.267 69.2021H550.267C550.267 76.2362 551.57 82.332 554.219 87.4535L555.996 86.5346ZM552.267 69.2021C552.267 61.7249 553.612 55.4029 556.255 50.1989L554.472 49.2932C551.654 54.8412 550.267 61.4899 550.267 69.2021H552.267ZM556.255 50.1989C558.901 44.989 562.651 40.9972 567.511 38.1965L566.512 36.4636C561.303 39.4656 557.287 43.7511 554.472 49.2932L556.255 50.1989ZM567.511 38.1965C572.367 35.3979 578.161 33.9781 584.931 33.9781V31.9781C577.877 31.9781 571.725 33.4595 566.512 36.4636L567.511 38.1965ZM584.931 33.9781C591.016 33.9781 596.257 35.2689 600.69 37.8133L601.685 36.0788C596.901 33.3325 591.305 31.9781 584.931 31.9781V33.9781ZM600.69 37.8133C605.123 40.3582 608.575 44.01 611.051 48.7975L612.828 47.8786C610.184 42.7674 606.468 38.8246 601.685 36.0788L600.69 37.8133ZM611.057 48.8094C613.609 53.5839 614.907 59.3449 614.907 66.1301H616.907C616.907 59.0912 615.56 52.9909 612.821 47.8667L611.057 48.8094ZM614.907 66.1301C614.907 73.4318 613.565 79.7152 610.917 85.0108L612.706 85.9053C615.519 80.2783 616.907 73.6763 616.907 66.1301H614.907ZM610.92 85.0052C608.27 90.2219 604.557 94.2602 599.775 97.1459L600.808 98.8583C605.925 95.7706 609.891 91.4463 612.703 85.9109L610.92 85.0052ZM599.775 97.1459C595.002 100.026 589.425 101.482 583.011 101.482V103.482C589.739 103.482 595.682 101.951 600.808 98.8583L599.775 97.1459ZM585.059 101.178C588.599 101.178 591.618 100.128 594.042 97.9831L592.717 96.4851C590.704 98.2658 588.176 99.1781 585.059 99.1781V101.178ZM594.058 97.9689C596.479 95.7336 598.21 92.2338 599.343 87.6163L597.4 87.1398C596.314 91.5677 594.717 94.6385 592.701 96.4993L594.058 97.9689ZM599.339 87.629C600.564 82.9054 601.163 76.7096 601.163 69.0741H599.163C599.163 76.6279 598.568 82.6347 597.403 87.1271L599.339 87.629ZM601.163 69.0741C601.163 62.9731 600.734 57.7408 599.864 53.3899L597.903 53.7822C598.739 57.9647 599.163 63.0577 599.163 69.0741H601.163ZM599.868 53.4123C599.088 48.9916 597.907 45.3692 596.292 42.5879L594.563 43.5922C596.02 46.1016 597.143 49.4765 597.899 53.7598L599.868 53.4123ZM596.299 42.5998C594.698 39.7533 592.745 37.636 590.412 36.3296L589.435 38.0746C591.368 39.1574 593.085 40.9655 594.556 43.5803L596.299 42.5998ZM590.438 36.3446C588.134 34.9624 585.521 34.2821 582.627 34.2821V36.2821C585.195 36.2821 587.446 36.8818 589.409 38.0596L590.438 36.3446ZM582.627 34.2821C579.008 34.2821 575.876 35.3282 573.289 37.4533L574.558 38.9988C576.75 37.1986 579.42 36.2821 582.627 36.2821V34.2821ZM573.292 37.4508C570.758 39.5152 568.931 42.9016 567.71 47.4381L569.641 47.958C570.809 43.6198 572.481 40.6916 574.555 39.0013L573.292 37.4508ZM567.71 47.4381C566.483 51.9958 565.883 58.025 565.883 65.4901H567.883C567.883 58.1071 568.479 52.2749 569.641 47.958L567.71 47.4381ZM565.883 65.4901C565.883 73.8176 566.655 80.6238 568.23 85.8734L570.145 85.2987C568.648 80.3083 567.883 73.7172 567.883 65.4901H565.883ZM568.23 85.8734C569.795 91.0929 572.007 95.0094 574.943 97.4864L576.232 95.9578C573.707 93.8267 571.651 90.3192 570.145 85.2987L568.23 85.8734ZM574.943 97.4864C577.854 99.9431 581.24 101.178 585.059 101.178V99.1781C581.711 99.1781 578.782 98.109 576.232 95.9578L574.943 97.4864ZM591.971 20.7141C590.366 20.7141 588.709 20.4733 586.998 19.9845L586.449 21.9076C588.322 22.4428 590.164 22.7141 591.971 22.7141V20.7141ZM587.054 20.0022C585.366 19.4115 583.247 18.6066 580.695 17.5856L579.952 19.4425C582.519 20.4695 584.667 21.286 586.393 21.8899L587.054 20.0022ZM580.717 17.5949C578.321 16.568 576.456 15.8295 575.136 15.3894L574.503 17.2867C575.743 17.7 577.547 18.4121 579.929 19.4332L580.717 17.5949ZM575.213 15.4189C574.003 14.9003 573.007 14.5341 572.246 14.3439L571.761 16.2842C572.365 16.4354 573.246 16.7518 574.425 17.2572L575.213 15.4189ZM572.278 14.3525C571.61 14.1616 570.962 14.0581 570.339 14.0581V16.0581C570.741 16.0581 571.202 16.1252 571.729 16.2756L572.278 14.3525ZM570.339 14.0581C568.902 14.0581 567.622 14.3952 566.566 15.1348L567.713 16.7733C568.363 16.3182 569.217 16.0581 570.339 16.0581V14.0581ZM566.625 15.0966C565.495 15.7744 564.493 17.2607 563.549 19.2346L565.354 20.0975C566.287 18.1461 567.077 17.1577 567.654 16.8115L566.625 15.0966ZM564.715 18.7013L563.307 18.3173L562.78 20.2468L564.188 20.6308L564.715 18.7013ZM564.03 19.4427C564.622 15.8071 565.333 12.9864 566.148 10.9494L564.291 10.2067C563.399 12.4364 562.659 15.4183 562.056 19.1214L564.03 19.4427ZM566.135 10.9808C567.027 8.9528 568.071 7.65522 569.205 6.94606L568.145 5.25006C566.549 6.24757 565.289 7.93665 564.304 10.1753L566.135 10.9808ZM569.205 6.94606C570.38 6.21183 571.851 5.81806 573.667 5.81806V3.81806C571.558 3.81806 569.701 4.27762 568.145 5.25006L569.205 6.94606ZM573.667 5.81806C575.346 5.81806 576.935 6.09736 578.442 6.6524L579.133 4.77571C577.397 4.13609 575.573 3.81806 573.667 3.81806V5.81806ZM578.486 6.66764C580.069 7.16751 582.088 7.92361 584.549 8.94208L585.314 7.09404C582.826 6.0645 580.748 5.2846 579.089 4.76048L578.486 6.66764ZM584.543 8.93969C587.786 10.3049 590.055 11.2468 591.344 11.7625L592.087 9.90558C590.816 9.39734 588.562 8.46191 585.319 7.09642L584.543 8.93969ZM591.399 11.7827C592.768 12.2391 594.112 12.4741 595.427 12.4741V10.4741C594.353 10.4741 593.223 10.2824 592.032 9.88538L591.399 11.7827ZM595.427 12.4741C596.859 12.4741 598.121 12.1389 599.113 11.3674L597.885 9.78871C597.341 10.2118 596.555 10.4741 595.427 10.4741V12.4741ZM599.073 11.3973C600.153 10.6411 601.141 9.15272 602.09 7.16952L600.285 6.3066C599.356 8.24874 598.552 9.32038 597.926 9.75882L599.073 11.3973ZM600.924 7.70282L602.332 8.08683L602.859 6.1573L601.451 5.7733L600.924 7.70282ZM601.614 6.93005C600.852 10.8265 600.015 13.7728 599.12 15.8073L600.951 16.6128C601.933 14.3807 602.803 11.2682 603.577 7.31407L601.614 6.93005ZM599.126 15.7934C598.231 17.7464 597.223 19.0168 596.153 19.73L597.262 21.3941C598.752 20.4007 599.962 18.7697 600.944 16.6267L599.126 15.7934ZM596.193 19.7046C595.104 20.3581 593.714 20.7141 591.971 20.7141V22.7141C593.984 22.7141 595.751 22.302 597.222 21.4196L596.193 19.7046ZM641.344 98.6421L640.845 99.5083L640.852 99.5123L641.344 98.6421ZM630.976 87.5061L630.076 87.9408L630.08 87.9502L630.085 87.9595L630.976 87.5061ZM631.36 49.4901L630.469 49.0372L630.466 49.0428L631.36 49.4901ZM642.624 37.2021L642.123 36.3366L642.117 36.3405L642.624 37.2021ZM672.192 35.9221L671.712 36.7992L671.724 36.8059L671.737 36.8123L672.192 35.9221ZM680.64 43.9861L679.768 44.4753L679.773 44.4833L679.777 44.4912L680.64 43.9861ZM683.584 59.9861L682.587 59.9094L682.584 59.9477V59.9861H683.584ZM683.328 63.5701V64.5701H684.204L684.32 63.7022L683.328 63.5701ZM642.624 63.5701V62.5701H641.649L641.625 63.5448L642.624 63.5701ZM644.672 80.0821L643.731 80.4208L643.734 80.4291L643.738 80.4373L644.672 80.0821ZM651.712 89.5541L651.158 90.3861L651.166 90.3915L651.174 90.3968L651.712 89.5541ZM672.832 90.9621L673.134 91.9156L673.145 91.9121L673.156 91.9082L672.832 90.9621ZM682.944 84.3061L683.499 83.474L682.834 83.0307L682.255 83.5815L682.944 84.3061ZM684.096 85.0741L684.978 85.5459L685.406 84.7456L684.651 84.242L684.096 85.0741ZM672.576 98.3861L673.101 99.2378L673.112 99.2304L672.576 98.3861ZM642.752 61.5221L641.754 61.4581L641.686 62.5221H642.752V61.5221ZM668.992 61.5221V62.5221H669.906L669.988 61.6126L668.992 61.5221ZM669.12 58.4501L668.123 58.3734L668.12 58.4117V58.4501H669.12ZM666.56 39.5061L665.692 40.0022L665.701 40.017L665.71 40.0316L666.56 39.5061ZM650.432 37.4581L649.842 36.6507L649.835 36.6562L649.827 36.6619L650.432 37.4581ZM645.312 45.7781L646.261 46.0943L646.263 46.0881L645.312 45.7781ZM657.216 101.482C651.302 101.482 646.186 100.234 641.837 97.7718L640.852 99.5123C645.548 102.171 651.014 103.482 657.216 103.482V101.482ZM641.844 97.7759C637.586 95.3191 634.261 91.7558 631.868 87.0526L630.085 87.9595C632.642 92.9843 636.228 96.8451 640.845 99.5082L641.844 97.7759ZM631.877 87.0713C629.571 82.2937 628.392 76.3509 628.392 69.2021H626.392C626.392 76.5599 627.604 82.8197 630.076 87.9408L631.877 87.0713ZM628.392 69.2021C628.392 61.458 629.698 55.0513 632.255 49.9373L630.466 49.0428C627.732 54.5102 626.392 61.2448 626.392 69.2021H628.392ZM632.252 49.9429C634.904 44.7216 638.532 40.7744 643.132 38.0636L642.117 36.3405C637.159 39.2618 633.278 43.5066 630.469 49.0372L632.252 49.9429ZM643.125 38.0675C647.819 35.3501 653.231 33.9781 659.392 33.9781V31.9781C652.924 31.9781 647.158 33.422 642.123 36.3366L643.125 38.0675ZM659.392 33.9781C664.209 33.9781 668.303 34.9325 671.712 36.7992L672.673 35.045C668.913 32.9863 664.474 31.9781 659.392 31.9781V33.9781ZM671.737 36.8123C675.236 38.6025 677.905 41.1534 679.768 44.4753L681.513 43.4968C679.451 39.8214 676.487 36.9962 672.648 35.0318L671.737 36.8123ZM679.777 44.4912C681.721 47.8112 682.712 51.769 682.712 56.4021H684.712C684.712 51.4778 683.656 47.1582 681.503 43.4809L679.777 44.4912ZM682.712 56.4021C682.712 57.6602 682.67 58.829 682.587 59.9094L684.581 60.0628C684.669 58.9245 684.712 57.7039 684.712 56.4021H682.712ZM682.584 59.9861C682.584 61.0447 682.503 62.1948 682.337 63.4379L684.32 63.7022C684.495 62.3853 684.584 61.1461 684.584 59.9861H682.584ZM683.328 62.5701H642.624V64.5701H683.328V62.5701ZM641.625 63.5448C641.452 70.3554 642.138 75.9952 643.731 80.4208L645.613 79.7433C644.134 75.6356 643.455 70.2674 643.624 63.5954L641.625 63.5448ZM643.738 80.4373C645.415 84.852 647.875 88.1978 651.158 90.3861L652.267 88.722C649.406 86.8144 647.172 83.8454 645.607 79.7268L643.738 80.4373ZM651.174 90.3968C654.426 92.4745 658.202 93.4981 662.464 93.4981V91.4981C658.535 91.4981 655.143 90.559 652.251 88.7114L651.174 90.3968ZM662.464 93.4981C666.228 93.4981 669.786 92.9727 673.134 91.9156L672.531 90.0085C669.393 90.9994 666.04 91.4981 662.464 91.4981V93.4981ZM673.156 91.9082C676.579 90.7372 680.07 88.4201 683.634 85.0306L682.255 83.5815C678.821 86.848 675.571 88.9682 672.509 90.0159L673.156 91.9082ZM682.39 85.1381L683.542 85.9061L684.651 84.242L683.499 83.474L682.39 85.1381ZM683.215 84.6022C680.029 90.5544 676.294 94.8422 672.041 97.5417L673.112 99.2304C677.733 96.298 681.678 91.7111 684.978 85.5459L683.215 84.6022ZM672.052 97.5344C667.79 100.157 662.856 101.482 657.216 101.482V103.482C663.182 103.482 668.488 102.076 673.1 99.2377L672.052 97.5344ZM642.752 62.5221H668.992V60.5221H642.752V62.5221ZM669.988 61.6126C670.077 60.6391 670.12 59.5845 670.12 58.4501H668.12C668.12 59.5343 668.079 60.5277 667.996 61.4315L669.988 61.6126ZM670.117 58.5268C670.205 57.3901 670.248 56.2125 670.248 54.9941H668.248C668.248 56.165 668.207 57.2913 668.123 58.3734L670.117 58.5268ZM670.248 54.9941C670.248 47.5562 669.363 42.1404 667.411 38.9806L665.71 40.0316C667.342 42.6744 668.248 47.5839 668.248 54.9941H670.248ZM667.429 39.0099C665.52 35.6702 662.389 34.0261 658.24 34.0261V36.0261C661.772 36.0261 664.187 37.3686 665.692 40.0022L667.429 39.0099ZM658.24 34.0261C655.061 34.0261 652.247 34.8932 649.842 36.6507L651.022 38.2655C653.055 36.7803 655.446 36.0261 658.24 36.0261V34.0261ZM649.827 36.6619C647.466 38.4565 645.673 41.4468 644.362 45.468L646.263 46.0881C647.512 42.2587 649.132 39.7023 651.037 38.2542L649.827 36.6619ZM644.364 45.4618C643.045 49.4189 642.184 54.764 641.754 61.4581L643.75 61.586C644.175 54.9682 645.02 49.8172 646.261 46.0943L644.364 45.4618ZM696.943 102.61L695.946 102.686L696.016 103.61H696.943V102.61ZM695.151 78.9301L695.019 77.9388L694.083 78.0637L694.154 79.0055L695.151 78.9301ZM697.071 78.6741L698.044 78.4424L697.835 77.5634L696.939 77.6828L697.071 78.6741ZM702.063 91.3461L702.895 90.7914L702.895 90.7914L702.063 91.3461ZM709.103 98.0021L708.645 98.8907L708.662 98.8994L708.679 98.9075L709.103 98.0021ZM728.687 96.3381L728.005 95.607L728.005 95.607L728.687 96.3381ZM730.351 79.8261L729.586 80.4702L729.596 80.4817L729.606 80.4929L730.351 79.8261ZM724.591 75.9861L724.237 76.9211L724.237 76.9211L724.591 75.9861ZM716.015 73.2981L715.709 74.2501L715.735 74.2583L715.761 74.2651L716.015 73.2981ZM708.847 70.8661L708.482 71.7968L708.496 71.8025L708.511 71.8078L708.847 70.8661ZM702.319 67.2821L701.725 68.0862L701.725 68.0862L702.319 67.2821ZM697.711 61.6501L696.804 62.0712L696.81 62.0839L697.711 61.6501ZM698.607 42.7061L697.75 42.1916L697.744 42.2007L697.739 42.2099L698.607 42.7061ZM706.287 35.6661L706.744 36.5559L706.753 36.5513L706.761 36.5465L706.287 35.6661ZM727.919 34.6421L727.522 35.5596L727.54 35.5675L727.558 35.5746L727.919 34.6421ZM734.575 38.2261L733.969 39.0215L735.073 39.8626L735.522 38.5492L734.575 38.2261ZM736.367 32.9781V31.9781H735.652L735.421 32.6549L736.367 32.9781ZM737.775 32.9781L738.773 32.9042L738.704 31.9781H737.775V32.9781ZM739.311 53.7141L739.249 54.7121L740.393 54.7836L740.309 53.6402L739.311 53.7141ZM737.263 53.5861L736.303 53.8645L736.499 54.5402L737.201 54.5841L737.263 53.5861ZM730.351 40.1461L729.615 40.8227L729.624 40.8327L730.351 40.1461ZM709.231 38.3541L709.863 39.1293L709.872 39.1224L709.88 39.1153L709.231 38.3541ZM707.951 53.3301L707.206 53.9969L707.216 54.0075L707.225 54.0178L707.951 53.3301ZM713.839 57.1701L713.474 58.1008L713.493 58.1085L713.513 58.1154L713.839 57.1701ZM721.775 59.8581L721.459 60.8067L721.478 60.8129L721.497 60.8184L721.775 59.8581ZM736.111 66.3861L735.495 67.1736L735.503 67.1799L735.511 67.1861L736.111 66.3861ZM740.847 72.2741L739.94 72.6952L739.95 72.715L739.96 72.7344L740.847 72.2741ZM739.567 92.4981L740.406 93.0423L740.413 93.0321L739.567 92.4981ZM730.991 99.9221L731.413 100.829L731.422 100.825L731.43 100.821L730.991 99.9221ZM708.591 101.074L708.884 100.118L708.875 100.115L708.866 100.113L708.591 101.074ZM700.143 96.5941L700.771 95.8157L699.56 94.8385L699.174 96.3467L700.143 96.5941ZM698.607 102.61V103.61H699.384L699.576 102.857L698.607 102.61ZM697.941 102.535L696.149 78.8546L694.154 79.0055L695.946 102.686L697.941 102.535ZM695.284 79.9213L697.204 79.6653L696.939 77.6828L695.019 77.9388L695.284 79.9213ZM696.099 78.9057C697.394 84.3453 699.094 88.6941 701.231 91.9008L702.895 90.7914C700.937 87.854 699.309 83.7548 698.044 78.4424L696.099 78.9057ZM701.231 91.9008C703.351 95.0805 705.817 97.4309 708.645 98.8907L709.562 97.1134C707.1 95.8425 704.872 93.7557 702.895 90.7914L701.231 91.9008ZM708.679 98.9075C711.556 100.256 714.732 100.922 718.191 100.922V98.9221C714.995 98.9221 712.112 98.3081 709.528 97.0966L708.679 98.9075ZM718.191 100.922C722.812 100.922 726.579 99.674 729.37 97.0691L728.005 95.607C725.676 97.7808 722.446 98.9221 718.191 98.9221V100.922ZM729.37 97.0691C732.167 94.4583 733.527 90.9319 733.527 86.6101H731.527C731.527 90.4802 730.328 93.4392 728.005 95.607L729.37 97.0691ZM733.527 86.6101C733.527 83.5461 732.76 81.0178 731.097 79.1593L729.606 80.4929C730.845 81.877 731.527 83.8714 731.527 86.6101H733.527ZM731.116 79.1819C729.617 77.4017 727.541 76.0353 724.946 75.0511L724.237 76.9211C726.591 77.8141 728.355 79.0078 729.586 80.4702L731.116 79.1819ZM724.946 75.0511C722.431 74.0972 719.538 73.191 716.27 72.331L715.761 74.2651C718.978 75.1118 721.802 75.9976 724.237 76.9211L724.946 75.0511ZM716.321 72.346C713.942 71.5813 711.563 70.7741 709.184 69.9243L708.511 71.8078C710.91 72.6647 713.31 73.4788 715.709 74.2501L716.321 72.346ZM709.213 69.9353C706.901 69.027 704.803 67.8739 702.914 66.4779L701.725 68.0862C703.762 69.5916 706.015 70.8278 708.482 71.7968L709.213 69.9353ZM702.914 66.4779C701.088 65.1286 699.655 63.3809 698.612 61.2162L696.81 62.0839C697.987 64.5272 699.625 66.5342 701.725 68.0862L702.914 66.4779ZM698.618 61.229C697.586 59.0045 697.047 56.2553 697.047 52.9461H695.047C695.047 56.4635 695.618 59.517 696.804 62.0712L698.618 61.229ZM697.047 52.9461C697.047 49.2594 697.865 46.0208 699.476 43.2022L697.739 42.2099C695.936 45.3647 695.047 48.9527 695.047 52.9461H697.047ZM699.465 43.2206C701.154 40.4059 703.569 38.1839 706.744 36.5559L705.831 34.7762C702.35 36.5616 699.645 39.0329 697.75 42.1916L699.465 43.2206ZM706.761 36.5465C709.91 34.851 713.791 33.9781 718.447 33.9781V31.9781C713.546 31.9781 709.321 32.8971 705.813 34.7856L706.761 36.5465ZM718.447 33.9781C722.11 33.9781 725.123 34.52 727.522 35.5596L728.317 33.7245C725.596 32.5455 722.294 31.9781 718.447 31.9781V33.9781ZM727.558 35.5746C730.138 36.573 732.269 37.7257 733.969 39.0215L735.181 37.4306C733.298 35.9958 730.992 34.7591 728.28 33.7095L727.558 35.5746ZM735.522 38.5492L737.314 33.3012L735.421 32.6549L733.629 37.9029L735.522 38.5492ZM736.367 33.9781H737.775V31.9781H736.367V33.9781ZM736.778 33.0519L738.314 53.7879L740.309 53.6402L738.773 32.9042L736.778 33.0519ZM739.374 52.716L737.326 52.588L737.201 54.5841L739.249 54.7121L739.374 52.716ZM738.224 53.3077C736.491 47.3309 734.127 42.6873 731.078 39.4594L729.624 40.8327C732.379 43.7488 734.622 48.0652 736.303 53.8645L738.224 53.3077ZM731.088 39.4694C727.967 36.0735 723.757 34.4101 718.575 34.4101V36.4101C723.292 36.4101 726.933 37.9039 729.615 40.8227L731.088 39.4694ZM718.575 34.4101C714.484 34.4101 711.116 35.4351 708.583 37.5928L709.88 39.1153C711.955 37.3477 714.816 36.4101 718.575 36.4101V34.4101ZM708.6 37.5788C706.02 39.6806 704.775 42.6781 704.775 46.4181H706.775C706.775 43.1607 707.835 40.7822 709.863 39.1293L708.6 37.5788ZM704.775 46.4181C704.775 49.5585 705.539 52.1334 707.206 53.9969L708.697 52.6633C707.463 51.284 706.775 49.2509 706.775 46.4181H704.775ZM707.225 54.0178C708.876 55.7604 710.968 57.1165 713.474 58.1008L714.205 56.2393C711.932 55.3463 710.098 54.1424 708.677 52.6423L707.225 54.0178ZM713.513 58.1154C715.992 58.97 718.64 59.8671 721.459 60.8067L722.092 58.9094C719.278 57.9717 716.636 57.0768 714.165 56.2247L713.513 58.1154ZM721.497 60.8184C724.108 61.5765 726.633 62.4605 729.073 63.4701L729.838 61.622C727.328 60.5837 724.734 59.6756 722.054 58.8977L721.497 60.8184ZM729.073 63.4701C731.47 64.462 733.609 65.6975 735.495 67.1736L736.728 65.5986C734.688 64.0026 732.39 62.6782 729.838 61.622L729.073 63.4701ZM735.511 67.1861C737.423 68.6201 738.898 70.451 739.94 72.6952L741.754 71.8529C740.578 69.3184 738.895 67.224 736.711 65.5861L735.511 67.1861ZM739.96 72.7344C741.061 74.8585 741.639 77.5483 741.639 80.8501H743.639C743.639 77.3251 743.023 74.2976 741.735 71.8137L739.96 72.7344ZM741.639 80.8501C741.639 85.2181 740.652 88.908 738.722 91.9641L740.413 93.0321C742.579 89.6028 743.639 85.5274 743.639 80.8501H741.639ZM738.728 91.9539C736.788 94.9461 734.073 97.3041 730.553 99.0235L731.43 100.821C735.248 98.956 738.251 96.3647 740.406 93.0423L738.728 91.9539ZM730.57 99.0153C727.059 100.648 722.899 101.482 718.063 101.482V103.482C723.127 103.482 727.586 102.609 731.413 100.829L730.57 99.0153ZM718.063 101.482C714.919 101.482 711.86 101.027 708.884 100.118L708.299 102.03C711.467 102.998 714.723 103.482 718.063 103.482V101.482ZM708.866 100.113C706.02 99.2993 703.322 97.8729 700.771 95.8157L699.516 97.3725C702.255 99.5819 705.19 101.142 708.317 102.036L708.866 100.113ZM699.174 96.3467L697.638 102.363L699.576 102.857L701.112 96.8414L699.174 96.3467ZM698.607 101.61H696.943V103.61H698.607V101.61Z" fill="#A6B1E1" mask="url(#path-1-outside-1_64_124)"/>
</svg>
