<svg width="694" height="102" viewBox="0 0 694 102" fill="none" xmlns="http://www.w3.org/2000/svg">
<mask id="path-1-outside-1_63_123" maskUnits="userSpaceOnUse" x="24.5074" y="-1.30994" width="647" height="103" fill="black">
<rect fill="white" x="24.5074" y="-1.30994" width="647" height="103"/>
<path d="M27.9434 100.61L26.1514 76.9301L28.0714 76.6741C29.3514 82.0501 31.0154 86.2741 33.0634 89.3461C35.1114 92.4181 37.4581 94.6367 40.1034 96.0021C42.8341 97.2821 45.8634 97.9221 49.1914 97.9221C53.6287 97.9221 57.1274 96.7274 59.6874 94.3381C62.2474 91.9487 63.5274 88.7061 63.5274 84.6101C63.5274 81.7087 62.8021 79.4474 61.3514 77.8261C59.9861 76.2047 58.0661 74.9247 55.5914 73.9861C53.1167 73.0474 50.2581 72.1514 47.0154 71.2981C44.6261 70.5301 42.2367 69.7194 39.8474 68.8661C37.4581 67.9274 35.2821 66.7327 33.3194 65.2821C31.3567 63.8314 29.8207 61.9541 28.7114 59.6501C27.6021 57.2607 27.0474 54.3594 27.0474 50.9461C27.0474 47.1061 27.9007 43.6927 29.6074 40.7061C31.3994 37.7194 33.9594 35.3727 37.2874 33.6661C40.6154 31.8741 44.6687 30.9781 49.4474 30.9781C53.2021 30.9781 56.3594 31.5327 58.9194 32.6421C61.5647 33.6661 63.7834 34.8607 65.5754 36.2261L67.3674 30.9781H68.7754L70.3114 51.7141L68.2634 51.5861C66.5567 45.6981 64.2527 41.2181 61.3514 38.1461C58.4501 34.9887 54.5247 33.4101 49.5754 33.4101C45.6501 33.4101 42.5354 34.3914 40.2314 36.3541C37.9274 38.2314 36.7754 40.9194 36.7754 44.4181C36.7754 47.4047 37.5007 49.7087 38.9514 51.3301C40.4874 52.9514 42.4501 54.2314 44.8394 55.1701C47.3141 56.0234 49.9594 56.9194 52.7754 57.8581C55.4207 58.6261 57.9807 59.5221 60.4554 60.5461C62.9301 61.5701 65.1487 62.8501 67.1114 64.3861C69.1594 65.9221 70.7381 67.8847 71.8474 70.2741C73.0421 72.5781 73.6394 75.4367 73.6394 78.8501C73.6394 83.3727 72.6154 87.2554 70.5674 90.4981C68.5194 93.6554 65.6607 96.1301 61.9914 97.9221C58.3221 99.6287 54.0127 100.482 49.0634 100.482C45.8207 100.482 42.6634 100.013 39.5914 99.0741C36.6047 98.2207 33.7887 96.7274 31.1434 94.5941L29.6074 100.61H27.9434ZM116.011 100.482C109.611 100.482 104.022 99.1594 99.2434 96.5141C94.4647 93.7834 90.7527 89.9434 88.1074 84.9941C85.5474 80.0447 84.2674 74.1141 84.2674 67.2021C84.2674 59.6074 85.6327 53.1221 88.3634 47.7461C91.0941 42.3701 94.9767 38.2314 100.011 35.3301C105.046 32.4287 111.019 30.9781 117.931 30.9781C124.161 30.9781 129.579 32.3007 134.187 34.9461C138.795 37.5914 142.379 41.3887 144.939 46.3381C147.585 51.2874 148.907 57.2181 148.907 64.1301C148.907 71.5541 147.542 77.9967 144.811 83.4581C142.081 88.8341 138.241 93.0154 133.291 96.0021C128.342 98.9887 122.582 100.482 116.011 100.482ZM118.059 98.1781C121.387 98.1781 124.161 97.1967 126.379 95.2341C128.598 93.1861 130.262 89.9007 131.371 85.3781C132.566 80.7701 133.163 74.6687 133.163 67.0741C133.163 61.0154 132.737 55.8527 131.883 51.5861C131.115 47.2341 129.963 43.7354 128.427 41.0901C126.891 38.3594 125.057 36.3967 122.923 35.2021C120.79 33.9221 118.358 33.2821 115.627 33.2821C112.214 33.2821 109.313 34.2634 106.923 36.2261C104.619 38.1034 102.87 41.2607 101.675 45.6981C100.481 50.1354 99.8834 56.0661 99.8834 63.4901C99.8834 71.7674 100.651 78.4661 102.187 83.5861C103.723 88.7061 105.857 92.4181 108.587 94.7221C111.318 97.0261 114.475 98.1781 118.059 98.1781ZM167.09 100.482L165.554 99.5861V11.0101C165.554 8.27939 165.341 6.3594 164.914 5.25006C164.488 4.05539 163.122 3.37273 160.818 3.20206L155.186 2.69006L155.314 1.41006L179.25 0.642059L180.146 1.28206V42.6261H180.274C181.725 39.8101 183.474 37.5914 185.522 35.9701C187.57 34.2634 189.832 33.0261 192.306 32.2581C194.866 31.4047 197.597 30.9781 200.498 30.9781C205.96 30.9781 210.696 32.1727 214.706 34.5621C218.717 36.8661 221.789 40.4074 223.922 45.1861C226.141 49.8794 227.25 55.8527 227.25 63.1061C227.25 70.8714 226.013 77.5701 223.538 83.2021C221.064 88.7487 217.48 93.0154 212.786 96.0021C208.093 98.9887 202.333 100.482 195.506 100.482C192.093 100.482 188.722 99.9701 185.394 98.9461C182.152 97.9221 179.293 96.5994 176.818 94.9781L167.09 100.482ZM194.61 98.1781C198.109 98.1781 201.138 97.2394 203.698 95.3621C206.344 93.3994 208.349 90.0714 209.714 85.3781C211.08 80.6847 211.762 74.2421 211.762 66.0501C211.762 58.7967 211.165 52.9941 209.97 48.6421C208.776 44.2901 206.941 41.1327 204.466 39.1701C201.992 37.2074 198.92 36.2261 195.25 36.2261C192.349 36.2261 189.746 36.8661 187.442 38.1461C185.224 39.3407 183.432 41.2181 182.066 43.7781C180.786 46.2527 180.146 49.4101 180.146 53.2501V92.1621C181.938 93.8687 184.029 95.3194 186.418 96.5141C188.893 97.6234 191.624 98.1781 194.61 98.1781ZM237.502 98.6901V97.1541L243.262 96.5141C244.628 96.3434 245.524 95.8314 245.95 94.9781C246.377 94.1247 246.59 92.5887 246.59 90.3701V43.0101C246.59 40.1087 246.334 38.1034 245.822 36.9941C245.31 35.8847 244.073 35.2874 242.11 35.2021L236.222 34.6901L236.35 33.2821L260.03 32.1301L260.67 32.7701V45.8261H260.926C262.718 41.0474 265.278 37.3781 268.606 34.8181C272.02 32.2581 275.604 30.9781 279.358 30.9781C283.54 30.9781 286.825 32.0874 289.214 34.3061C291.689 36.5247 292.926 39.3407 292.926 42.7541C292.926 44.5461 292.628 46.2101 292.03 47.7461C291.433 49.1967 290.452 50.3487 289.086 51.2021C287.721 52.0554 286.014 52.4821 283.966 52.4821C281.236 52.4821 279.188 51.8847 277.822 50.6901C276.542 49.4101 275.902 47.9594 275.902 46.3381C275.902 45.3994 276.073 44.4607 276.414 43.5221C276.841 42.4981 277.438 41.3887 278.206 40.1941C279.06 38.9141 280.084 37.4207 281.278 35.7141C279.06 35.0314 276.756 34.9887 274.366 35.5861C271.977 36.1834 269.801 37.3354 267.838 39.0421C265.876 40.7487 264.254 42.9247 262.974 45.5701C261.78 48.2154 261.182 51.2021 261.182 54.5301V90.6261C261.182 92.5887 261.353 93.9541 261.694 94.7221C262.036 95.4901 262.932 95.9594 264.382 96.1301L274.494 97.2821V98.6901H237.502ZM329.216 100.482C323.158 100.482 317.867 99.2021 313.344 96.6421C308.907 94.0821 305.451 90.3701 302.976 85.5061C300.587 80.5567 299.392 74.4554 299.392 67.2021C299.392 59.3514 300.715 52.7807 303.36 47.4901C306.091 42.1141 309.846 38.0181 314.624 35.2021C319.488 32.3861 325.078 30.9781 331.392 30.9781C336.342 30.9781 340.608 31.9594 344.192 33.9221C347.862 35.7994 350.678 38.4874 352.64 41.9861C354.688 45.4847 355.712 49.6234 355.712 54.4021C355.712 55.6821 355.67 56.8767 355.584 57.9861C355.584 59.0954 355.499 60.2901 355.328 61.5701H314.624C314.454 68.3114 315.136 73.8154 316.672 78.0821C318.294 82.3487 320.64 85.5061 323.712 87.5541C326.784 89.5167 330.368 90.4981 334.464 90.4981C338.134 90.4981 341.59 89.9861 344.832 88.9621C348.075 87.8527 351.446 85.6341 354.944 82.3061L356.096 83.0741C352.854 89.1327 349.014 93.5701 344.576 96.3861C340.139 99.1167 335.019 100.482 329.216 100.482ZM314.752 59.5221H340.992C341.078 58.5834 341.12 57.5594 341.12 56.4501C341.206 55.3407 341.248 54.1887 341.248 52.9941C341.248 45.5701 340.352 40.4074 338.56 37.5061C336.854 34.5194 334.08 33.0261 330.24 33.0261C327.254 33.0261 324.651 33.8367 322.432 35.4581C320.299 37.0794 318.592 39.8527 317.312 43.7781C316.032 47.6181 315.179 52.8661 314.752 59.5221ZM392.002 98.6901V97.1541L397.762 96.5141C399.128 96.3434 400.024 95.8314 400.45 94.9781C400.877 94.1247 401.09 92.5887 401.09 90.3701V43.0101C401.09 40.1087 400.834 38.1034 400.322 36.9941C399.81 35.8847 398.573 35.2874 396.61 35.2021L390.722 34.6901L390.85 33.2821L414.53 32.1301L415.298 32.7701L415.17 45.5701H415.298C416.578 42.4981 418.242 39.8954 420.29 37.7621C422.424 35.5434 424.813 33.8794 427.458 32.7701C430.104 31.5754 432.877 30.9781 435.778 30.9781C440.728 30.9781 444.866 32.1727 448.194 34.5621C451.522 36.8661 453.826 40.5354 455.106 45.5701C456.813 40.9621 459.544 37.3781 463.298 34.8181C467.138 32.2581 471.32 30.9781 475.842 30.9781C480.109 30.9781 483.736 31.8741 486.722 33.6661C489.709 35.3727 491.97 37.8901 493.506 41.2181C495.128 44.4607 495.938 48.5141 495.938 53.3781V91.2661C495.938 93.2287 496.194 94.5514 496.706 95.2341C497.218 95.9167 498.285 96.3434 499.906 96.5141L505.41 97.1541V98.6901H473.538V97.2821L477.762 96.6421C479.213 96.4714 480.152 96.0447 480.578 95.3621C481.09 94.6794 481.346 93.3141 481.346 91.2661V52.4821C481.346 48.3861 481.005 45.1861 480.322 42.8821C479.64 40.4927 478.53 38.8287 476.994 37.8901C475.458 36.8661 473.325 36.3541 470.594 36.3541C467.778 36.3541 465.261 37.0367 463.042 38.4021C460.824 39.7674 459.032 41.6874 457.666 44.1621C456.386 46.6367 455.746 49.6234 455.746 53.1221V90.8821C455.746 92.5034 455.874 93.7834 456.13 94.7221C456.472 95.5754 457.368 96.1301 458.818 96.3861L464.066 97.2821V98.6901H433.346V97.2821L437.57 96.6421C439.021 96.4714 440.002 96.0447 440.514 95.3621C441.026 94.6794 441.282 93.3141 441.282 91.2661V52.4821C441.282 48.3007 440.898 45.0581 440.13 42.7541C439.448 40.3647 438.338 38.7007 436.802 37.7621C435.352 36.8234 433.261 36.3541 430.53 36.3541C427.714 36.3541 425.154 37.0794 422.85 38.5301C420.632 39.9807 418.882 42.0287 417.602 44.6741C416.322 47.2341 415.682 50.2207 415.682 53.6341V90.8821C415.682 92.8447 415.853 94.2101 416.194 94.9781C416.621 95.6607 417.474 96.1301 418.754 96.3861L423.874 97.2821V98.6901H392.002ZM513.246 98.6901V97.1541L519.646 96.5141C521.012 96.3434 521.865 95.8314 522.206 94.9781C522.633 94.0394 522.846 92.5034 522.846 90.3701V43.0101C522.846 40.1087 522.59 38.1034 522.078 36.9941C521.566 35.8847 520.372 35.2874 518.494 35.2021L512.478 34.6901L512.606 33.2821L536.542 32.1301L537.438 32.7701V90.8821C537.438 92.8447 537.652 94.2101 538.078 94.9781C538.505 95.7461 539.401 96.2154 540.766 96.3861L547.422 97.2821V98.6901H513.246ZM528.478 19.5861C525.662 19.5861 523.358 18.7754 521.566 17.1541C519.774 15.4474 518.878 13.2714 518.878 10.6261C518.878 7.98073 519.774 5.80473 521.566 4.09806C523.358 2.39139 525.662 1.53806 528.478 1.53806C531.55 1.53806 533.94 2.39139 535.646 4.09806C537.353 5.71939 538.206 7.85273 538.206 10.4981C538.206 13.2287 537.31 15.4474 535.518 17.1541C533.812 18.7754 531.465 19.5861 528.478 19.5861ZM556.127 98.6901V97.1541L561.887 96.5141C563.253 96.3434 564.149 95.8314 564.575 94.9781C565.002 94.1247 565.215 92.5887 565.215 90.3701V43.0101C565.215 40.1087 564.959 38.1034 564.447 36.9941C563.935 35.8847 562.698 35.2874 560.735 35.2021L554.847 34.6901L554.975 33.2821L578.655 32.1301L579.423 32.7701L579.295 45.5701H579.423C580.703 42.4981 582.367 39.8954 584.415 37.7621C586.549 35.5434 588.938 33.8794 591.583 32.7701C594.229 31.5754 597.002 30.9781 599.903 30.9781C604.853 30.9781 608.991 32.1727 612.319 34.5621C615.647 36.8661 617.951 40.5354 619.231 45.5701C620.938 40.9621 623.669 37.3781 627.423 34.8181C631.263 32.2581 635.445 30.9781 639.967 30.9781C644.234 30.9781 647.861 31.8741 650.847 33.6661C653.834 35.3727 656.095 37.8901 657.631 41.2181C659.253 44.4607 660.063 48.5141 660.063 53.3781V91.2661C660.063 93.2287 660.319 94.5514 660.831 95.2341C661.343 95.9167 662.41 96.3434 664.031 96.5141L669.535 97.1541V98.6901H637.663V97.2821L641.887 96.6421C643.338 96.4714 644.277 96.0447 644.703 95.3621C645.215 94.6794 645.471 93.3141 645.471 91.2661V52.4821C645.471 48.3861 645.13 45.1861 644.447 42.8821C643.765 40.4927 642.655 38.8287 641.119 37.8901C639.583 36.8661 637.45 36.3541 634.719 36.3541C631.903 36.3541 629.386 37.0367 627.167 38.4021C624.949 39.7674 623.157 41.6874 621.791 44.1621C620.511 46.6367 619.871 49.6234 619.871 53.1221V90.8821C619.871 92.5034 619.999 93.7834 620.255 94.7221C620.597 95.5754 621.493 96.1301 622.943 96.3861L628.191 97.2821V98.6901H597.471V97.2821L601.695 96.6421C603.146 96.4714 604.127 96.0447 604.639 95.3621C605.151 94.6794 605.407 93.3141 605.407 91.2661V52.4821C605.407 48.3007 605.023 45.0581 604.255 42.7541C603.573 40.3647 602.463 38.7007 600.927 37.7621C599.477 36.8234 597.386 36.3541 594.655 36.3541C591.839 36.3541 589.279 37.0794 586.975 38.5301C584.757 39.9807 583.007 42.0287 581.727 44.6741C580.447 47.2341 579.807 50.2207 579.807 53.6341V90.8821C579.807 92.8447 579.978 94.2101 580.319 94.9781C580.746 95.6607 581.599 96.1301 582.879 96.3861L587.999 97.2821V98.6901H556.127Z"/>
</mask>
<path d="M27.9434 100.61L26.9462 100.686L27.0162 101.61H27.9434V100.61ZM26.1514 76.9301L26.0192 75.9388L25.083 76.0637L25.1542 77.0055L26.1514 76.9301ZM28.0714 76.6741L29.0442 76.4424L28.8349 75.5634L27.9392 75.6828L28.0714 76.6741ZM33.0634 89.3461L33.8954 88.7914L33.8954 88.7914L33.0634 89.3461ZM40.1034 96.0021L39.6447 96.8907L39.6617 96.8994L39.679 96.9075L40.1034 96.0021ZM59.6874 94.3381L59.0051 93.607L59.0051 93.607L59.6874 94.3381ZM61.3514 77.8261L60.5865 78.4702L60.5961 78.4817L60.6061 78.4929L61.3514 77.8261ZM55.5914 73.9861L55.2367 74.9211L55.2367 74.9211L55.5914 73.9861ZM47.0154 71.2981L46.7094 72.2501L46.7349 72.2583L46.7609 72.2651L47.0154 71.2981ZM39.8474 68.8661L39.4817 69.7968L39.4963 69.8025L39.511 69.8078L39.8474 68.8661ZM33.3194 65.2821L32.725 66.0862L32.725 66.0862L33.3194 65.2821ZM28.7114 59.6501L27.8043 60.0712L27.8104 60.0839L28.7114 59.6501ZM29.6074 40.7061L28.7499 40.1916L28.7444 40.2007L28.7391 40.2099L29.6074 40.7061ZM37.2874 33.6661L37.7437 34.5559L37.7526 34.5513L37.7615 34.5465L37.2874 33.6661ZM58.9194 32.6421L58.5218 33.5596L58.5399 33.5675L58.5584 33.5746L58.9194 32.6421ZM65.5754 36.2261L64.9693 37.0215L66.0733 37.8626L66.5217 36.5492L65.5754 36.2261ZM67.3674 30.9781V29.9781H66.6522L66.421 30.6549L67.3674 30.9781ZM68.7754 30.9781L69.7727 30.9042L69.7041 29.9781H68.7754V30.9781ZM70.3114 51.7141L70.249 52.7121L71.3934 52.7836L71.3087 51.6402L70.3114 51.7141ZM68.2634 51.5861L67.3029 51.8645L67.4988 52.5402L68.201 52.5841L68.2634 51.5861ZM61.3514 38.1461L60.615 38.8227L60.6244 38.8327L61.3514 38.1461ZM40.2314 36.3541L40.8631 37.1293L40.8715 37.1224L40.8799 37.1153L40.2314 36.3541ZM38.9514 51.3301L38.2061 51.9969L38.2156 52.0075L38.2254 52.0178L38.9514 51.3301ZM44.8394 55.1701L44.4737 56.1008L44.4934 56.1085L44.5134 56.1154L44.8394 55.1701ZM52.7754 57.8581L52.4592 58.8067L52.4778 58.8129L52.4966 58.8184L52.7754 57.8581ZM67.1114 64.3861L66.4951 65.1736L66.5032 65.1799L66.5114 65.1861L67.1114 64.3861ZM71.8474 70.2741L70.9404 70.6952L70.9496 70.715L70.9596 70.7344L71.8474 70.2741ZM70.5674 90.4981L71.4064 91.0423L71.4129 91.0321L70.5674 90.4981ZM61.9914 97.9221L62.4131 98.8288L62.4217 98.8248L62.4302 98.8206L61.9914 97.9221ZM39.5914 99.0741L39.8836 98.1177L39.8749 98.115L39.8661 98.1125L39.5914 99.0741ZM31.1434 94.5941L31.7711 93.8157L30.5595 92.8385L30.1745 94.3467L31.1434 94.5941ZM29.6074 100.61V101.61H30.3841L30.5763 100.857L29.6074 100.61ZM28.9405 100.535L27.1485 76.8546L25.1542 77.0055L26.9462 100.686L28.9405 100.535ZM26.2835 77.9213L28.2035 77.6653L27.9392 75.6828L26.0192 75.9388L26.2835 77.9213ZM27.0986 76.9057C28.3937 82.3453 30.0936 86.6941 32.2313 89.9008L33.8954 88.7914C31.9372 85.854 30.309 81.7548 29.0442 76.4424L27.0986 76.9057ZM32.2313 89.9008C34.3511 93.0805 36.8165 95.4309 39.6447 96.8907L40.562 95.1134C38.0996 93.8425 35.8716 91.7557 33.8954 88.7914L32.2313 89.9008ZM39.679 96.9075C42.5557 98.256 45.732 98.9221 49.1914 98.9221V96.9221C45.9947 96.9221 43.1124 96.3081 40.5278 95.0966L39.679 96.9075ZM49.1914 98.9221C53.8116 98.9221 57.5788 97.674 60.3697 95.0691L59.0051 93.607C56.676 95.7808 53.4458 96.9221 49.1914 96.9221V98.9221ZM60.3697 95.0691C63.167 92.4583 64.5274 88.9319 64.5274 84.6101H62.5274C62.5274 88.4802 61.3277 91.4392 59.0051 93.607L60.3697 95.0691ZM64.5274 84.6101C64.5274 81.5461 63.7595 79.0178 62.0966 77.1593L60.6061 78.4929C61.8446 79.877 62.5274 81.8714 62.5274 84.6101H64.5274ZM62.1163 77.1819C60.6171 75.4017 58.541 74.0353 55.946 73.0511L55.2367 74.9211C57.5911 75.8141 59.355 77.0078 60.5865 78.4702L62.1163 77.1819ZM55.946 73.0511C53.4313 72.0972 50.538 71.191 47.2699 70.331L46.7609 72.2651C49.9781 73.1118 52.8022 73.9976 55.2367 74.9211L55.946 73.0511ZM47.3214 70.346C44.9423 69.5813 42.5631 68.7741 40.1837 67.9243L39.511 69.8078C41.9103 70.6647 44.3098 71.4788 46.7094 72.2501L47.3214 70.346ZM40.213 67.9353C37.9009 67.027 35.8025 65.8739 33.9138 64.4779L32.725 66.0862C34.7616 67.5916 37.0152 68.8278 39.4817 69.7968L40.213 67.9353ZM33.9138 64.4779C32.0882 63.1286 30.6546 61.3809 29.6124 59.2162L27.8104 60.0839C28.9868 62.5272 30.6252 64.5342 32.725 66.0862L33.9138 64.4779ZM29.6184 59.229C28.5856 57.0045 28.0474 54.2553 28.0474 50.9461H26.0474C26.0474 54.4635 26.6185 57.517 27.8044 60.0712L29.6184 59.229ZM28.0474 50.9461C28.0474 47.2594 28.865 44.0208 30.4756 41.2022L28.7391 40.2099C26.9364 43.3647 26.0474 46.9527 26.0474 50.9461H28.0474ZM30.4649 41.2206C32.1537 38.4059 34.5691 36.1839 37.7437 34.5559L36.8311 32.7762C33.3497 34.5616 30.6451 37.0329 28.7499 40.1916L30.4649 41.2206ZM37.7615 34.5465C40.9102 32.851 44.7914 31.9781 49.4474 31.9781V29.9781C44.546 29.9781 40.3205 30.8971 36.8133 32.7856L37.7615 34.5465ZM49.4474 31.9781C53.1099 31.9781 56.1226 32.52 58.5218 33.5596L59.317 31.7245C56.5961 30.5455 53.2942 29.9781 49.4474 29.9781V31.9781ZM58.5584 33.5746C61.1376 34.573 63.2686 35.7257 64.9693 37.0215L66.1814 35.4306C64.2982 33.9958 61.9918 32.7591 59.2804 31.7095L58.5584 33.5746ZM66.5217 36.5492L68.3137 31.3012L66.421 30.6549L64.629 35.9029L66.5217 36.5492ZM67.3674 31.9781H68.7754V29.9781H67.3674V31.9781ZM67.7781 31.0519L69.3141 51.7879L71.3087 51.6402L69.7727 30.9042L67.7781 31.0519ZM70.3738 50.716L68.3258 50.588L68.201 52.5841L70.249 52.7121L70.3738 50.716ZM69.2239 51.3077C67.4915 45.3309 65.1269 40.6873 62.0784 37.4594L60.6244 38.8327C63.3785 41.7488 65.622 46.0652 67.3029 51.8645L69.2239 51.3077ZM62.0877 37.4694C58.9671 34.0735 54.7572 32.4101 49.5754 32.4101V34.4101C54.2922 34.4101 57.933 35.9039 60.6151 38.8227L62.0877 37.4694ZM49.5754 32.4101C45.4843 32.4101 42.1159 33.4351 39.5829 35.5928L40.8799 37.1153C42.9548 35.3477 45.8158 34.4101 49.5754 34.4101V32.4101ZM39.5997 35.5788C37.0202 37.6806 35.7754 40.6781 35.7754 44.4181H37.7754C37.7754 41.1607 38.8345 38.7822 40.8631 37.1293L39.5997 35.5788ZM35.7754 44.4181C35.7754 47.5585 36.5389 50.1334 38.2061 51.9969L39.6966 50.6633C38.4626 49.284 37.7754 47.2509 37.7754 44.4181H35.7754ZM38.2254 52.0178C39.8763 53.7604 41.9683 55.1165 44.4737 56.1008L45.205 54.2393C42.9318 53.3463 41.0985 52.1424 39.6773 50.6423L38.2254 52.0178ZM44.5134 56.1154C46.9917 56.97 49.6403 57.8671 52.4592 58.8067L53.0916 56.9094C50.2785 55.9717 47.6364 55.0768 45.1654 54.2247L44.5134 56.1154ZM52.4966 58.8184C55.1078 59.5765 57.6331 60.4605 60.073 61.4701L60.8377 59.622C58.3283 58.5837 55.7337 57.6756 53.0542 56.8977L52.4966 58.8184ZM60.073 61.4701C62.4701 62.462 64.609 63.6975 66.4951 65.1736L67.7277 63.5986C65.6885 62.0026 63.39 60.6782 60.8377 59.622L60.073 61.4701ZM66.5114 65.1861C68.4234 66.6201 69.8985 68.451 70.9404 70.6952L72.7544 69.8529C71.5777 67.3184 69.8954 65.224 67.7114 63.5861L66.5114 65.1861ZM70.9596 70.7344C72.061 72.8585 72.6394 75.5483 72.6394 78.8501H74.6394C74.6394 75.3251 74.0231 72.2976 72.7351 69.8137L70.9596 70.7344ZM72.6394 78.8501C72.6394 83.2181 71.6521 86.908 69.7219 89.9641L71.4129 91.0321C73.5787 87.6028 74.6394 83.5274 74.6394 78.8501H72.6394ZM69.7284 89.9539C67.7875 92.9461 65.0732 95.3041 61.5526 97.0235L62.4302 98.8206C66.2483 96.956 69.2513 94.3647 71.4063 91.0423L69.7284 89.9539ZM61.5697 97.0153C58.0585 98.6484 53.8988 99.4821 49.0634 99.4821V101.482C54.1266 101.482 58.5856 100.609 62.4131 98.8288L61.5697 97.0153ZM49.0634 99.4821C45.9188 99.4821 42.86 99.0272 39.8836 98.1177L39.2992 100.03C42.4668 100.998 45.7226 101.482 49.0634 101.482V99.4821ZM39.8661 98.1125C37.0198 97.2993 34.3221 95.8729 31.7711 93.8157L30.5156 95.3725C33.2553 97.5819 36.1896 99.1421 39.3167 100.036L39.8661 98.1125ZM30.1745 94.3467L28.6385 100.363L30.5763 100.857L32.1123 94.8414L30.1745 94.3467ZM29.6074 99.6101H27.9434V101.61H29.6074V99.6101ZM99.2434 96.5141L98.7472 97.3824L98.7591 97.389L99.2434 96.5141ZM88.1074 84.9941L87.2191 85.4535L87.2255 85.4654L88.1074 84.9941ZM88.3634 47.7461L87.4718 47.2932L87.4718 47.2932L88.3634 47.7461ZM100.011 35.3301L100.511 36.1965L100.511 36.1965L100.011 35.3301ZM134.187 34.9461L134.685 34.0788L134.685 34.0788L134.187 34.9461ZM144.939 46.3381L144.051 46.7975L144.057 46.8094L144.939 46.3381ZM144.811 83.4581L145.703 83.9109L145.706 83.9053L144.811 83.4581ZM133.291 96.0021L133.808 96.8583L133.808 96.8583L133.291 96.0021ZM126.379 95.2341L127.042 95.9831L127.05 95.976L127.058 95.9689L126.379 95.2341ZM131.371 85.3781L130.403 85.1271L130.4 85.1398L131.371 85.3781ZM131.883 51.5861L130.899 51.7598L130.901 51.771L130.903 51.7822L131.883 51.5861ZM128.427 41.0901L127.556 41.5804L127.563 41.5922L128.427 41.0901ZM122.923 35.2021L122.409 36.0596L122.422 36.0673L122.435 36.0746L122.923 35.2021ZM106.923 36.2261L107.555 37.0013L107.558 36.9988L106.923 36.2261ZM101.675 45.6981L100.71 45.4381L100.71 45.4381L101.675 45.6981ZM102.187 83.5861L101.23 83.8734L101.23 83.8734L102.187 83.5861ZM108.587 94.7221L109.232 93.9578L108.587 94.7221ZM116.011 99.4821C109.752 99.4821 104.335 98.1894 99.7277 95.6392L98.7591 97.389C103.71 100.129 109.471 101.482 116.011 101.482V99.4821ZM99.7395 95.6458C95.1276 93.0104 91.5478 89.3095 88.9893 84.5227L87.2255 85.4654C89.9576 90.5773 93.8018 94.5564 98.7472 97.3823L99.7395 95.6458ZM88.9956 84.5346C86.5246 79.7574 85.2674 73.9919 85.2674 67.2021H83.2674C83.2674 74.2362 84.5701 80.332 87.2192 85.4535L88.9956 84.5346ZM85.2674 67.2021C85.2674 59.7249 86.6117 53.4029 89.255 48.1989L87.4718 47.2932C84.6538 52.8412 83.2674 59.4899 83.2674 67.2021H85.2674ZM89.255 48.1989C91.9013 42.989 95.6507 38.9972 100.511 36.1965L99.5121 34.4636C94.3027 37.4656 90.2868 41.7511 87.4718 47.2932L89.255 48.1989ZM100.511 36.1965C105.367 33.3979 111.161 31.9781 117.931 31.9781V29.9781C110.877 29.9781 104.725 31.4595 99.5121 34.4636L100.511 36.1965ZM117.931 31.9781C124.016 31.9781 129.257 33.2689 133.69 35.8133L134.685 34.0788C129.901 31.3325 124.305 29.9781 117.931 29.9781V31.9781ZM133.69 35.8133C138.123 38.3582 141.575 42.01 144.051 46.7975L145.828 45.8786C143.184 40.7674 139.468 36.8246 134.685 34.0788L133.69 35.8133ZM144.057 46.8094C146.609 51.5839 147.907 57.3449 147.907 64.1301H149.907C149.907 57.0912 148.56 50.9909 145.821 45.8667L144.057 46.8094ZM147.907 64.1301C147.907 71.4318 146.565 77.7152 143.917 83.0108L145.706 83.9053C148.519 78.2783 149.907 71.6763 149.907 64.1301H147.907ZM143.92 83.0052C141.27 88.2219 137.557 92.2602 132.775 95.1459L133.808 96.8583C138.925 93.7706 142.891 89.4463 145.703 83.9109L143.92 83.0052ZM132.775 95.1459C128.002 98.0261 122.425 99.4821 116.011 99.4821V101.482C122.739 101.482 128.682 99.9513 133.808 96.8583L132.775 95.1459ZM118.059 99.1781C121.599 99.1781 124.618 98.1277 127.042 95.9831L125.717 94.4851C123.704 96.2658 121.176 97.1781 118.059 97.1781V99.1781ZM127.058 95.9689C129.479 93.7336 131.21 90.2338 132.343 85.6163L130.4 85.1398C129.314 89.5677 127.717 92.6385 125.701 94.4993L127.058 95.9689ZM132.339 85.629C133.564 80.9054 134.163 74.7096 134.163 67.0741H132.163C132.163 74.6279 131.568 80.6347 130.403 85.1271L132.339 85.629ZM134.163 67.0741C134.163 60.9731 133.734 55.7408 132.864 51.3899L130.903 51.7822C131.739 55.9647 132.163 61.0577 132.163 67.0741H134.163ZM132.868 51.4123C132.088 46.9916 130.907 43.3692 129.292 40.5879L127.563 41.5922C129.02 44.1016 130.143 47.4765 130.899 51.7598L132.868 51.4123ZM129.299 40.5998C127.698 37.7533 125.745 35.636 123.412 34.3296L122.435 36.0746C124.368 37.1574 126.085 38.9655 127.556 41.5803L129.299 40.5998ZM123.438 34.3446C121.134 32.9624 118.521 32.2821 115.627 32.2821V34.2821C118.195 34.2821 120.446 34.8818 122.409 36.0596L123.438 34.3446ZM115.627 32.2821C112.008 32.2821 108.876 33.3282 106.289 35.4533L107.558 36.9988C109.75 35.1986 112.42 34.2821 115.627 34.2821V32.2821ZM106.292 35.4508C103.758 37.5152 101.931 40.9016 100.71 45.4381L102.641 45.958C103.809 41.6198 105.481 38.6916 107.555 37.0013L106.292 35.4508ZM100.71 45.4381C99.4827 49.9958 98.8834 56.025 98.8834 63.4901H100.883C100.883 56.1071 101.479 50.2749 102.641 45.958L100.71 45.4381ZM98.8834 63.4901C98.8834 71.8176 99.6547 78.6238 101.23 83.8734L103.145 83.2987C101.648 78.3083 100.883 71.7172 100.883 63.4901H98.8834ZM101.23 83.8734C102.795 89.0929 105.007 93.0094 107.943 95.4864L109.232 93.9578C106.707 91.8267 104.651 88.3192 103.145 83.2987L101.23 83.8734ZM107.943 95.4864C110.854 97.9431 114.24 99.1781 118.059 99.1781V97.1781C114.711 97.1781 111.782 96.109 109.232 93.9578L107.943 95.4864ZM167.09 100.482L166.587 101.346L167.083 101.635L167.583 101.352L167.09 100.482ZM165.554 99.5861H164.554V100.16L165.051 100.45L165.554 99.5861ZM164.914 5.25006L163.973 5.5864L163.977 5.59777L163.981 5.60904L164.914 5.25006ZM160.818 3.20206L160.728 4.19795L160.736 4.19871L160.745 4.19932L160.818 3.20206ZM155.186 2.69006L154.191 2.59055L154.091 3.59459L155.096 3.68595L155.186 2.69006ZM155.314 1.41006L155.282 0.410571L154.407 0.438671L154.319 1.31055L155.314 1.41006ZM179.25 0.642059L179.832 -0.171674L179.556 -0.368273L179.218 -0.357426L179.25 0.642059ZM180.146 1.28206H181.146V0.767441L180.728 0.468325L180.146 1.28206ZM180.146 42.6261H179.146V43.6261H180.146V42.6261ZM180.274 42.6261V43.6261H180.884L181.163 43.084L180.274 42.6261ZM185.522 35.9701L186.143 36.7541L186.153 36.7463L186.163 36.7383L185.522 35.9701ZM192.306 32.2581L192.603 33.2131L192.613 33.21L192.623 33.2067L192.306 32.2581ZM214.706 34.5621L214.195 35.4212L214.201 35.4252L214.208 35.4292L214.706 34.5621ZM223.922 45.1861L223.009 45.5937L223.014 45.6036L223.018 45.6134L223.922 45.1861ZM223.538 83.2021L224.452 83.6095L224.454 83.6043L223.538 83.2021ZM212.786 96.0021L213.323 96.8457L213.323 96.8457L212.786 96.0021ZM185.394 98.9461L185.093 99.8997L185.1 99.9018L185.394 98.9461ZM176.818 94.9781L177.366 94.1416L176.857 93.8075L176.326 94.1077L176.818 94.9781ZM203.698 95.3621L204.29 96.1685L204.294 96.1652L203.698 95.3621ZM209.714 85.3781L210.675 85.6574L210.675 85.6574L209.714 85.3781ZM209.97 48.6421L210.935 48.3773L210.935 48.3773L209.97 48.6421ZM204.466 39.1701L205.088 38.3866L205.088 38.3866L204.466 39.1701ZM187.442 38.1461L187.917 39.0266L187.928 39.0202L187.442 38.1461ZM182.066 43.7781L181.184 43.3074L181.178 43.3186L182.066 43.7781ZM180.146 92.1621H179.146V92.5906L179.457 92.8862L180.146 92.1621ZM186.418 96.5141L185.971 97.4085L185.99 97.4179L186.009 97.4266L186.418 96.5141ZM167.594 99.6183L166.058 98.7223L165.051 100.45L166.587 101.346L167.594 99.6183ZM166.554 99.5861V11.0101H164.554V99.5861H166.554ZM166.554 11.0101C166.554 8.27489 166.347 6.18908 165.848 4.89108L163.981 5.60904C164.335 6.52971 164.554 8.2839 164.554 11.0101H166.554ZM165.856 4.91372C165.211 3.10786 163.253 2.37966 160.892 2.20479L160.745 4.19932C162.992 4.36579 163.764 5.00293 163.973 5.5864L165.856 4.91372ZM160.909 2.20616L155.277 1.69416L155.096 3.68595L160.728 4.19795L160.909 2.20616ZM156.181 2.78956L156.309 1.50956L154.319 1.31055L154.191 2.59055L156.181 2.78956ZM155.346 2.40954L179.282 1.64154L179.218 -0.357426L155.282 0.410571L155.346 2.40954ZM178.669 1.45579L179.565 2.09579L180.728 0.468325L179.832 -0.171674L178.669 1.45579ZM179.146 1.28206V42.6261H181.146V1.28206H179.146ZM180.146 43.6261H180.274V41.6261H180.146V43.6261ZM181.163 43.084C182.562 40.3682 184.228 38.2703 186.143 36.7541L184.902 35.186C182.721 36.9124 180.888 39.2519 179.385 42.1681L181.163 43.084ZM186.163 36.7383C188.112 35.1134 190.258 33.9409 192.603 33.2131L192.01 31.303C189.406 32.1112 187.028 33.4133 184.882 35.2018L186.163 36.7383ZM192.623 33.2067C195.073 32.3899 197.696 31.9781 200.498 31.9781V29.9781C197.498 29.9781 194.66 30.4196 191.99 31.3094L192.623 33.2067ZM200.498 31.9781C205.81 31.9781 210.363 33.1387 214.195 35.4212L215.218 33.703C211.028 31.2068 206.109 29.9781 200.498 29.9781V31.9781ZM214.208 35.4292C218.012 37.6142 220.95 40.9818 223.009 45.5937L224.836 44.7784C222.628 39.833 219.422 36.1179 215.205 33.695L214.208 35.4292ZM223.018 45.6134C225.154 50.131 226.25 55.9455 226.25 63.1061H228.25C228.25 55.7599 227.128 49.6277 224.826 44.7587L223.018 45.6134ZM226.25 63.1061C226.25 70.768 225.029 77.3232 222.623 82.7998L224.454 83.6043C226.997 77.8169 228.25 70.9748 228.25 63.1061H226.25ZM222.625 82.7946C220.223 88.1793 216.762 92.2867 212.25 95.1584L213.323 96.8457C218.197 93.7441 221.905 89.3182 224.452 83.6095L222.625 82.7946ZM212.25 95.1584C207.75 98.022 202.186 99.4821 195.506 99.4821V101.482C202.48 101.482 208.436 99.9555 213.323 96.8457L212.25 95.1584ZM195.506 99.4821C192.195 99.4821 188.923 98.9856 185.688 97.9903L185.1 99.9018C188.522 100.955 191.991 101.482 195.506 101.482V99.4821ZM185.696 97.9925C182.527 96.992 179.754 95.706 177.366 94.1416L176.27 95.8145C178.832 97.4928 181.776 98.8521 185.093 99.8996L185.696 97.9925ZM176.326 94.1077L166.598 99.6117L167.583 101.352L177.311 95.8484L176.326 94.1077ZM194.61 99.1781C198.299 99.1781 201.541 98.1844 204.29 96.1685L203.107 94.5557C200.736 96.2943 197.919 97.1781 194.61 97.1781V99.1781ZM204.294 96.1652C207.182 94.0229 209.276 90.4634 210.675 85.6574L208.754 85.0987C207.422 89.6794 205.506 92.7759 203.103 94.559L204.294 96.1652ZM210.675 85.6574C212.078 80.8327 212.762 74.282 212.762 66.0501H210.762C210.762 74.2021 210.081 80.5368 208.754 85.0987L210.675 85.6574ZM212.762 66.0501C212.762 58.7544 212.163 52.8516 210.935 48.3773L209.006 48.9068C210.167 53.1366 210.762 58.839 210.762 66.0501H212.762ZM210.935 48.3773C209.707 43.9053 207.787 40.5272 205.088 38.3866L203.845 39.9536C206.095 41.7383 207.844 44.6749 209.006 48.9068L210.935 48.3773ZM205.088 38.3866C202.409 36.2617 199.107 35.2261 195.25 35.2261V37.2261C198.732 37.2261 201.575 38.1531 203.845 39.9536L205.088 38.3866ZM195.25 35.2261C192.197 35.2261 189.424 35.9013 186.957 37.2719L187.928 39.0202C190.069 37.8309 192.501 37.2261 195.25 37.2261V35.2261ZM186.968 37.2656C184.551 38.5672 182.628 40.6007 181.184 43.3075L182.949 44.2486C184.236 41.8355 185.896 40.1142 187.916 39.0265L186.968 37.2656ZM181.178 43.3186C179.802 45.9787 179.146 49.3075 179.146 53.2501H181.146C181.146 49.5127 181.77 46.5268 182.955 44.2375L181.178 43.3186ZM179.146 53.2501V92.1621H181.146V53.2501H179.146ZM179.457 92.8862C181.326 94.6666 183.5 96.1729 185.971 97.4085L186.866 95.6196C184.558 94.4659 182.551 93.0709 180.836 91.4379L179.457 92.8862ZM186.009 97.4266C188.625 98.5992 191.497 99.1781 194.61 99.1781V97.1781C191.75 97.1781 189.161 96.6476 186.827 95.6016L186.009 97.4266ZM237.502 98.6901H236.502V99.6901H237.502V98.6901ZM237.502 97.1541L237.392 96.1602L236.502 96.259V97.1541H237.502ZM243.262 96.5141L243.373 97.508L243.386 97.5063L243.262 96.5141ZM245.822 36.9941L244.914 37.4131L244.914 37.4131L245.822 36.9941ZM242.11 35.2021L242.024 36.1983L242.045 36.2002L242.067 36.2011L242.11 35.2021ZM236.222 34.6901L235.226 34.5995L235.136 35.5993L236.136 35.6863L236.222 34.6901ZM236.35 33.2821L236.302 32.2832L235.433 32.3255L235.354 33.1915L236.35 33.2821ZM260.03 32.1301L260.737 31.423L260.424 31.1097L259.982 31.1312L260.03 32.1301ZM260.67 32.7701H261.67V32.3558L261.377 32.0629L260.67 32.7701ZM260.67 45.8261H259.67V46.8261H260.67V45.8261ZM260.926 45.8261V46.8261H261.619L261.863 46.1772L260.926 45.8261ZM268.606 34.8181L268.006 34.018L267.997 34.0254L268.606 34.8181ZM289.214 34.3061L288.534 35.0389L288.54 35.0448L288.547 35.0506L289.214 34.3061ZM292.03 47.7461L292.955 48.1268L292.959 48.1177L292.962 48.1085L292.03 47.7461ZM277.822 50.6901L277.115 51.3972L277.139 51.4207L277.164 51.4426L277.822 50.6901ZM276.414 43.5221L275.491 43.1374L275.482 43.1587L275.475 43.1803L276.414 43.5221ZM278.206 40.1941L277.374 39.6394L277.37 39.6463L277.365 39.6533L278.206 40.1941ZM281.278 35.7141L282.098 36.2875L282.885 35.1622L281.572 34.7583L281.278 35.7141ZM274.366 35.5861L274.124 34.6159L274.124 34.6159L274.366 35.5861ZM262.974 45.5701L262.074 45.1345L262.068 45.1464L262.063 45.1585L262.974 45.5701ZM261.694 94.7221L262.608 94.3159L262.608 94.3159L261.694 94.7221ZM264.382 96.1301L264.266 97.1232L264.269 97.1236L264.382 96.1301ZM274.494 97.2821H275.494V96.3895L274.608 96.2885L274.494 97.2821ZM274.494 98.6901V99.6901H275.494V98.6901H274.494ZM238.502 98.6901V97.1541H236.502V98.6901H238.502ZM237.613 98.1479L243.373 97.5079L243.152 95.5202L237.392 96.1602L237.613 98.1479ZM243.386 97.5063C244.926 97.3139 246.209 96.6963 246.845 95.4253L245.056 94.5308C244.838 94.9664 244.33 95.3729 243.138 95.5218L243.386 97.5063ZM246.845 95.4253C247.387 94.3411 247.59 92.5901 247.59 90.3701H245.59C245.59 92.5873 245.367 93.9083 245.056 94.5308L246.845 95.4253ZM247.59 90.3701V43.0101H245.59V90.3701H247.59ZM247.59 43.0101C247.59 40.1104 247.344 37.9037 246.73 36.575L244.914 37.4131C245.325 38.3031 245.59 40.1071 245.59 43.0101H247.59ZM246.73 36.575C245.98 34.9494 244.246 34.2939 242.154 34.203L242.067 36.2011C243.901 36.2808 244.641 36.82 244.914 37.4131L246.73 36.575ZM242.197 34.2058L236.309 33.6938L236.136 35.6863L242.024 36.1983L242.197 34.2058ZM237.218 34.7806L237.346 33.3726L235.354 33.1915L235.226 34.5995L237.218 34.7806ZM236.399 34.2809L260.079 33.1289L259.982 31.1312L236.302 32.2832L236.399 34.2809ZM259.323 32.8372L259.963 33.4772L261.377 32.0629L260.737 31.423L259.323 32.8372ZM259.67 32.7701V45.8261H261.67V32.7701H259.67ZM260.67 46.8261H260.926V44.8261H260.67V46.8261ZM261.863 46.1772C263.603 41.5355 266.065 38.0345 269.216 35.6107L267.997 34.0254C264.492 36.7216 261.833 40.5593 259.99 45.4749L261.863 46.1772ZM269.206 35.6181C272.471 33.1694 275.849 31.9781 279.358 31.9781V29.9781C275.358 29.9781 271.568 31.3467 268.006 34.0181L269.206 35.6181ZM279.358 31.9781C283.361 31.9781 286.377 33.0363 288.534 35.0389L289.895 33.5733C287.273 31.1385 283.718 29.9781 279.358 29.9781V31.9781ZM288.547 35.0506C290.804 37.0739 291.926 39.6161 291.926 42.7541H293.926C293.926 39.0653 292.575 35.9756 289.882 33.5615L288.547 35.0506ZM291.926 42.7541C291.926 44.4329 291.647 45.9729 291.098 47.3836L292.962 48.1085C293.608 46.4472 293.926 44.6592 293.926 42.7541H291.926ZM291.106 47.3653C290.59 48.6175 289.75 49.6083 288.556 50.3541L289.616 52.0501C291.154 51.0891 292.276 49.776 292.955 48.1268L291.106 47.3653ZM288.556 50.3541C287.388 51.0843 285.877 51.4821 283.966 51.4821V53.4821C286.151 53.4821 288.054 53.0264 289.616 52.0501L288.556 50.3541ZM283.966 51.4821C281.36 51.4821 279.591 50.9089 278.481 49.9375L277.164 51.4426C278.784 52.8605 281.112 53.4821 283.966 53.4821V51.4821ZM278.529 49.983C277.413 48.8666 276.902 47.6622 276.902 46.3381H274.902C274.902 48.2566 275.672 49.9535 277.115 51.3972L278.529 49.983ZM276.902 46.3381C276.902 45.5232 277.05 44.7 277.354 43.8638L275.475 43.1803C275.096 44.2215 274.902 45.2756 274.902 46.3381H276.902ZM277.337 43.9067C277.736 42.9496 278.303 41.893 279.048 40.7348L277.365 39.6533C276.574 40.8845 275.946 42.0465 275.491 43.1374L277.337 43.9067ZM279.038 40.7488C279.886 39.4768 280.906 37.99 282.098 36.2875L280.459 35.1406C279.262 36.8515 278.233 38.3513 277.374 39.6394L279.038 40.7488ZM281.572 34.7583C279.169 34.0187 276.679 33.9772 274.124 34.6159L274.609 36.5562C276.833 36.0003 278.951 36.0441 280.984 36.6698L281.572 34.7583ZM274.124 34.6159C271.573 35.2536 269.257 36.4833 267.182 38.2875L268.495 39.7967C270.345 38.1875 272.381 37.1132 274.609 36.5562L274.124 34.6159ZM267.182 38.2875C265.105 40.0937 263.406 42.3832 262.074 45.1345L263.875 46.0056C265.103 43.4663 266.646 41.4038 268.495 39.7967L267.182 38.2875ZM262.063 45.1585C260.802 47.9508 260.182 51.0809 260.182 54.5301H262.182C262.182 51.3233 262.757 48.48 263.886 45.9816L262.063 45.1585ZM260.182 54.5301V90.6261H262.182V54.5301H260.182ZM260.182 90.6261C260.182 92.5902 260.345 94.148 260.781 95.1282L262.608 94.3159C262.361 93.7602 262.182 92.5873 262.182 90.6261H260.182ZM260.781 95.1282C261.347 96.4031 262.726 96.9421 264.266 97.1232L264.499 95.1369C263.137 94.9767 262.724 94.577 262.608 94.3159L260.781 95.1282ZM264.269 97.1236L274.381 98.2756L274.608 96.2885L264.496 95.1365L264.269 97.1236ZM273.494 97.2821V98.6901H275.494V97.2821H273.494ZM274.494 97.6901H237.502V99.6901H274.494V97.6901ZM313.344 96.6421L312.845 97.5083L312.852 97.5123L313.344 96.6421ZM302.976 85.5061L302.076 85.9408L302.08 85.9502L302.085 85.9595L302.976 85.5061ZM303.36 47.4901L302.469 47.0372L302.466 47.0428L303.36 47.4901ZM314.624 35.2021L314.123 34.3366L314.117 34.3405L314.624 35.2021ZM344.192 33.9221L343.712 34.7992L343.724 34.8059L343.737 34.8123L344.192 33.9221ZM352.64 41.9861L351.768 42.4753L351.773 42.4833L351.777 42.4912L352.64 41.9861ZM355.584 57.9861L354.587 57.9094L354.584 57.9477V57.9861H355.584ZM355.328 61.5701V62.5701H356.204L356.32 61.7022L355.328 61.5701ZM314.624 61.5701V60.5701H313.649L313.625 61.5448L314.624 61.5701ZM316.672 78.0821L315.731 78.4208L315.734 78.4291L315.738 78.4373L316.672 78.0821ZM323.712 87.5541L323.158 88.3861L323.166 88.3915L323.174 88.3968L323.712 87.5541ZM344.832 88.9621L345.134 89.9156L345.145 89.9121L345.156 89.9082L344.832 88.9621ZM354.944 82.3061L355.499 81.474L354.834 81.0307L354.255 81.5815L354.944 82.3061ZM356.096 83.0741L356.978 83.5459L357.406 82.7456L356.651 82.242L356.096 83.0741ZM344.576 96.3861L345.101 97.2378L345.112 97.2304L344.576 96.3861ZM314.752 59.5221L313.754 59.4581L313.686 60.5221H314.752V59.5221ZM340.992 59.5221V60.5221H341.906L341.988 59.6126L340.992 59.5221ZM341.12 56.4501L340.123 56.3734L340.12 56.4117V56.4501H341.12ZM338.56 37.5061L337.692 38.0022L337.701 38.017L337.71 38.0316L338.56 37.5061ZM322.432 35.4581L321.842 34.6507L321.835 34.6562L321.827 34.6619L322.432 35.4581ZM317.312 43.7781L318.261 44.0943L318.263 44.0881L317.312 43.7781ZM329.216 99.4821C323.302 99.4821 318.186 98.2336 313.837 95.7718L312.852 97.5123C317.548 100.171 323.014 101.482 329.216 101.482V99.4821ZM313.844 95.7759C309.586 93.3191 306.261 89.7558 303.868 85.0526L302.085 85.9595C304.642 90.9843 308.228 94.8451 312.845 97.5082L313.844 95.7759ZM303.877 85.0713C301.571 80.2937 300.392 74.3509 300.392 67.2021H298.392C298.392 74.5599 299.604 80.8197 302.076 85.9408L303.877 85.0713ZM300.392 67.2021C300.392 59.458 301.698 53.0513 304.255 47.9373L302.466 47.0428C299.732 52.5102 298.392 59.2448 298.392 67.2021H300.392ZM304.252 47.9429C306.904 42.7216 310.532 38.7744 315.132 36.0636L314.117 34.3405C309.159 37.2618 305.278 41.5066 302.469 47.0372L304.252 47.9429ZM315.125 36.0675C319.819 33.3501 325.231 31.9781 331.392 31.9781V29.9781C324.924 29.9781 319.158 31.422 314.123 34.3366L315.125 36.0675ZM331.392 31.9781C336.209 31.9781 340.303 32.9325 343.712 34.7992L344.673 33.045C340.913 30.9863 336.474 29.9781 331.392 29.9781V31.9781ZM343.737 34.8123C347.236 36.6025 349.905 39.1534 351.768 42.4753L353.513 41.4968C351.451 37.8214 348.487 34.9962 344.648 33.0318L343.737 34.8123ZM351.777 42.4912C353.721 45.8112 354.712 49.769 354.712 54.4021H356.712C356.712 49.4778 355.656 45.1582 353.503 41.4809L351.777 42.4912ZM354.712 54.4021C354.712 55.6602 354.67 56.829 354.587 57.9094L356.581 58.0628C356.669 56.9245 356.712 55.7039 356.712 54.4021H354.712ZM354.584 57.9861C354.584 59.0447 354.503 60.1948 354.337 61.4379L356.32 61.7022C356.495 60.3853 356.584 59.1461 356.584 57.9861H354.584ZM355.328 60.5701H314.624V62.5701H355.328V60.5701ZM313.625 61.5448C313.452 68.3554 314.138 73.9952 315.731 78.4208L317.613 77.7433C316.134 73.6356 315.455 68.2674 315.624 61.5954L313.625 61.5448ZM315.738 78.4373C317.415 82.852 319.875 86.1978 323.158 88.3861L324.267 86.722C321.406 84.8144 319.172 81.8454 317.607 77.7268L315.738 78.4373ZM323.174 88.3968C326.426 90.4745 330.202 91.4981 334.464 91.4981V89.4981C330.535 89.4981 327.143 88.559 324.251 86.7114L323.174 88.3968ZM334.464 91.4981C338.228 91.4981 341.786 90.9727 345.134 89.9156L344.531 88.0085C341.393 88.9994 338.04 89.4981 334.464 89.4981V91.4981ZM345.156 89.9082C348.579 88.7372 352.07 86.4201 355.634 83.0306L354.255 81.5815C350.821 84.848 347.571 86.9682 344.509 88.0159L345.156 89.9082ZM354.39 83.1381L355.542 83.9061L356.651 82.242L355.499 81.474L354.39 83.1381ZM355.215 82.6022C352.029 88.5544 348.294 92.8422 344.041 95.5417L345.112 97.2304C349.733 94.298 353.678 89.7111 356.978 83.5459L355.215 82.6022ZM344.052 95.5344C339.79 98.1573 334.856 99.4821 329.216 99.4821V101.482C335.182 101.482 340.488 100.076 345.1 97.2377L344.052 95.5344ZM314.752 60.5221H340.992V58.5221H314.752V60.5221ZM341.988 59.6126C342.077 58.6391 342.12 57.5845 342.12 56.4501H340.12C340.12 57.5343 340.079 58.5277 339.996 59.4315L341.988 59.6126ZM342.117 56.5268C342.205 55.3901 342.248 54.2125 342.248 52.9941H340.248C340.248 54.165 340.207 55.2913 340.123 56.3734L342.117 56.5268ZM342.248 52.9941C342.248 45.5562 341.363 40.1404 339.411 36.9806L337.71 38.0316C339.342 40.6744 340.248 45.5839 340.248 52.9941H342.248ZM339.429 37.0099C337.52 33.6702 334.389 32.0261 330.24 32.0261V34.0261C333.772 34.0261 336.187 35.3686 337.692 38.0022L339.429 37.0099ZM330.24 32.0261C327.061 32.0261 324.247 32.8932 321.842 34.6507L323.022 36.2655C325.055 34.7803 327.446 34.0261 330.24 34.0261V32.0261ZM321.827 34.6619C319.466 36.4565 317.673 39.4468 316.362 43.468L318.263 44.0881C319.512 40.2587 321.132 37.7023 323.037 36.2542L321.827 34.6619ZM316.364 43.4618C315.045 47.4189 314.184 52.764 313.754 59.4581L315.75 59.586C316.175 52.9682 317.02 47.8172 318.261 44.0943L316.364 43.4618ZM392.002 98.6901H391.002V99.6901H392.002V98.6901ZM392.002 97.1541L391.892 96.1602L391.002 96.259V97.1541H392.002ZM397.762 96.5141L397.873 97.508L397.886 97.5063L397.762 96.5141ZM400.322 36.9941L399.414 37.4131L399.414 37.4131L400.322 36.9941ZM396.61 35.2021L396.524 36.1983L396.545 36.2002L396.567 36.2011L396.61 35.2021ZM390.722 34.6901L389.726 34.5995L389.636 35.5993L390.636 35.6863L390.722 34.6901ZM390.85 33.2821L390.802 32.2832L389.933 32.3255L389.854 33.1915L390.85 33.2821ZM414.53 32.1301L415.171 31.3618L414.871 31.1123L414.482 31.1312L414.53 32.1301ZM415.298 32.7701L416.298 32.7801L416.303 32.3056L415.939 32.0018L415.298 32.7701ZM415.17 45.5701L414.17 45.5601L414.16 46.5701H415.17V45.5701ZM415.298 45.5701V46.5701H415.965L416.221 45.9547L415.298 45.5701ZM420.29 37.7621L419.57 37.069L419.569 37.0695L420.29 37.7621ZM427.458 32.7701L427.845 33.6923L427.858 33.687L427.87 33.6814L427.458 32.7701ZM448.194 34.5621L447.611 35.3744L447.618 35.3794L447.625 35.3842L448.194 34.5621ZM455.106 45.5701L454.137 45.8165L454.929 48.9293L456.044 45.9174L455.106 45.5701ZM463.298 34.8181L462.744 33.986L462.735 33.9918L463.298 34.8181ZM486.722 33.6661L486.208 34.5236L486.217 34.529L486.226 34.5343L486.722 33.6661ZM493.506 41.2181L492.598 41.6371L492.605 41.6513L492.612 41.6653L493.506 41.2181ZM499.906 96.5141L500.022 95.5207L500.011 95.5196L499.906 96.5141ZM505.41 97.1541H506.41V96.2636L505.526 96.1608L505.41 97.1541ZM505.41 98.6901V99.6901H506.41V98.6901H505.41ZM473.538 98.6901H472.538V99.6901H473.538V98.6901ZM473.538 97.2821L473.389 96.2933L472.538 96.4222V97.2821H473.538ZM477.762 96.6421L477.646 95.6489L477.629 95.6509L477.613 95.6533L477.762 96.6421ZM480.578 95.3621L479.778 94.7621L479.753 94.796L479.73 94.8321L480.578 95.3621ZM480.322 42.8821L479.361 43.1568L479.364 43.1661L480.322 42.8821ZM476.994 37.8901L476.44 38.7221L476.456 38.7331L476.473 38.7433L476.994 37.8901ZM457.666 44.1621L456.791 43.679L456.784 43.6907L456.778 43.7026L457.666 44.1621ZM456.13 94.7221L455.166 94.9852L455.181 95.0404L455.202 95.0935L456.13 94.7221ZM458.818 96.3861L458.645 97.3709L458.65 97.3718L458.818 96.3861ZM464.066 97.2821H465.066V96.4383L464.235 96.2963L464.066 97.2821ZM464.066 98.6901V99.6901H465.066V98.6901H464.066ZM433.346 98.6901H432.346V99.6901H433.346V98.6901ZM433.346 97.2821L433.197 96.2933L432.346 96.4222V97.2821H433.346ZM437.57 96.6421L437.454 95.6489L437.437 95.6509L437.421 95.6533L437.57 96.6421ZM440.514 95.3621L441.314 95.9621L441.314 95.9621L440.514 95.3621ZM440.13 42.7541L439.169 43.0288L439.175 43.0497L439.182 43.0703L440.13 42.7541ZM436.802 37.7621L436.259 38.6016L436.27 38.6086L436.281 38.6153L436.802 37.7621ZM422.85 38.5301L422.318 37.6838L422.31 37.6884L422.303 37.6931L422.85 38.5301ZM417.602 44.6741L418.497 45.1213L418.503 45.1096L417.602 44.6741ZM416.194 94.9781L415.281 95.3842L415.309 95.4484L415.346 95.5081L416.194 94.9781ZM418.754 96.3861L418.558 97.3666L418.57 97.369L418.582 97.3711L418.754 96.3861ZM423.874 97.2821H424.874V96.4419L424.047 96.297L423.874 97.2821ZM423.874 98.6901V99.6901H424.874V98.6901H423.874ZM393.002 98.6901V97.1541H391.002V98.6901H393.002ZM392.113 98.1479L397.873 97.5079L397.652 95.5202L391.892 96.1602L392.113 98.1479ZM397.886 97.5063C399.426 97.3139 400.709 96.6963 401.345 95.4253L399.556 94.5308C399.338 94.9664 398.83 95.3729 397.638 95.5218L397.886 97.5063ZM401.345 95.4253C401.887 94.3411 402.09 92.5901 402.09 90.3701H400.09C400.09 92.5873 399.867 93.9083 399.556 94.5308L401.345 95.4253ZM402.09 90.3701V43.0101H400.09V90.3701H402.09ZM402.09 43.0101C402.09 40.1104 401.844 37.9037 401.23 36.575L399.414 37.4131C399.825 38.3031 400.09 40.1071 400.09 43.0101H402.09ZM401.23 36.575C400.48 34.9494 398.746 34.2939 396.654 34.203L396.567 36.2011C398.401 36.2808 399.141 36.82 399.414 37.4131L401.23 36.575ZM396.697 34.2058L390.809 33.6938L390.636 35.6863L396.524 36.1983L396.697 34.2058ZM391.718 34.7806L391.846 33.3726L389.854 33.1915L389.726 34.5995L391.718 34.7806ZM390.899 34.2809L414.579 33.1289L414.482 31.1312L390.802 32.2832L390.899 34.2809ZM413.89 32.8983L414.658 33.5383L415.939 32.0018L415.171 31.3618L413.89 32.8983ZM414.298 32.7601L414.17 45.5601L416.17 45.5801L416.298 32.7801L414.298 32.7601ZM415.17 46.5701H415.298V44.5701H415.17V46.5701ZM416.221 45.9547C417.46 42.9827 419.06 40.4882 421.012 38.4546L419.569 37.0695C417.425 39.3026 415.697 42.0134 414.375 45.1854L416.221 45.9547ZM421.011 38.4552C423.057 36.3276 425.335 34.7451 427.845 33.6923L427.072 31.8479C424.292 33.0137 421.79 34.7592 419.57 37.069L421.011 38.4552ZM427.87 33.6814C430.386 32.5452 433.019 31.9781 435.778 31.9781V29.9781C432.735 29.9781 429.821 30.6056 427.047 31.8587L427.87 33.6814ZM435.778 31.9781C440.563 31.9781 444.486 33.1307 447.611 35.3744L448.778 33.7497C445.247 31.2148 440.893 29.9781 435.778 29.9781V31.9781ZM447.625 35.3842C450.704 37.5156 452.899 40.9477 454.137 45.8165L456.076 45.3237C454.753 40.1231 452.341 36.2165 448.764 33.7399L447.625 35.3842ZM456.044 45.9174C457.685 41.4873 460.293 38.0777 463.862 35.6443L462.735 33.9918C458.795 36.6784 455.941 40.4368 454.169 45.2227L456.044 45.9174ZM463.853 35.6501C467.532 33.1972 471.521 31.9781 475.842 31.9781V29.9781C471.118 29.9781 466.744 31.3189 462.744 33.986L463.853 35.6501ZM475.842 31.9781C479.969 31.9781 483.408 32.8437 486.208 34.5236L487.237 32.8086C484.063 30.9044 480.25 29.9781 475.842 29.9781V31.9781ZM486.226 34.5343C489.02 36.1308 491.144 38.4849 492.598 41.6371L494.414 40.799C492.797 37.2952 490.398 34.6147 487.219 32.7978L486.226 34.5343ZM492.612 41.6653C494.144 44.73 494.938 48.6187 494.938 53.3781H496.938C496.938 48.4094 496.111 44.1915 494.401 40.7708L492.612 41.6653ZM494.938 53.3781V91.2661H496.938V53.3781H494.938ZM494.938 91.2661C494.938 92.2851 495.004 93.1749 495.149 93.9201C495.29 94.653 495.522 95.3215 495.906 95.8341L497.506 94.6341C497.379 94.464 497.226 94.1298 497.112 93.54C497 92.9626 496.938 92.2097 496.938 91.2661H494.938ZM495.906 95.8341C496.685 96.872 498.13 97.3326 499.802 97.5086L500.011 95.5196C498.44 95.3542 497.752 94.9615 497.506 94.6341L495.906 95.8341ZM499.791 97.5074L505.295 98.1474L505.526 96.1608L500.022 95.5208L499.791 97.5074ZM504.41 97.1541V98.6901H506.41V97.1541H504.41ZM505.41 97.6901H473.538V99.6901H505.41V97.6901ZM474.538 98.6901V97.2821H472.538V98.6901H474.538ZM473.688 98.2708L477.912 97.6308L477.613 95.6533L473.389 96.2933L473.688 98.2708ZM477.879 97.6352C479.4 97.4563 480.747 96.9798 481.426 95.8921L479.73 94.8321C479.557 95.1097 479.026 95.4865 477.646 95.6489L477.879 97.6352ZM481.378 95.9621C481.767 95.4444 481.997 94.76 482.137 94.0104C482.281 93.2457 482.346 92.3258 482.346 91.2661H480.346C480.346 92.2544 480.284 93.0411 480.172 93.6418C480.056 94.2575 479.902 94.5971 479.778 94.7621L481.378 95.9621ZM482.346 91.2661V52.4821H480.346V91.2661H482.346ZM482.346 52.4821C482.346 48.3474 482.004 45.0366 481.281 42.598L479.364 43.1661C480.006 45.3355 480.346 48.4248 480.346 52.4821H482.346ZM481.284 42.6073C480.559 40.0693 479.336 38.149 477.516 37.0368L476.473 38.7433C477.725 39.5085 478.721 40.9162 479.361 43.1568L481.284 42.6073ZM477.549 37.058C475.788 35.8837 473.433 35.3541 470.594 35.3541V37.3541C473.217 37.3541 475.129 37.8484 476.44 38.7221L477.549 37.058ZM470.594 35.3541C467.609 35.3541 464.907 36.0802 462.518 37.5504L463.566 39.2537C465.615 37.9932 467.948 37.3541 470.594 37.3541V35.3541ZM462.518 37.5504C460.14 39.0138 458.232 41.0664 456.791 43.679L458.542 44.6451C459.831 42.3084 461.507 40.521 463.566 39.2537L462.518 37.5504ZM456.778 43.7026C455.408 46.351 454.746 49.5035 454.746 53.1221H456.746C456.746 49.7433 457.364 46.9224 458.555 44.6215L456.778 43.7026ZM454.746 53.1221V90.8821H456.746V53.1221H454.746ZM454.746 90.8821C454.746 92.5417 454.876 93.9228 455.166 94.9852L457.095 94.4589C456.873 93.644 456.746 92.4651 456.746 90.8821H454.746ZM455.202 95.0935C455.736 96.4283 457.067 97.0925 458.645 97.3708L458.992 95.4013C457.668 95.1676 457.208 94.7225 457.059 94.3507L455.202 95.0935ZM458.65 97.3718L463.898 98.2678L464.235 96.2963L458.987 95.4003L458.65 97.3718ZM463.066 97.2821V98.6901H465.066V97.2821H463.066ZM464.066 97.6901H433.346V99.6901H464.066V97.6901ZM434.346 98.6901V97.2821H432.346V98.6901H434.346ZM433.496 98.2708L437.72 97.6308L437.421 95.6533L433.197 96.2933L433.496 98.2708ZM437.687 97.6352C439.228 97.454 440.553 96.9766 441.314 95.9621L439.714 94.7621C439.451 95.1129 438.814 95.4888 437.454 95.6489L437.687 97.6352ZM441.314 95.9621C441.703 95.4444 441.933 94.76 442.073 94.0104C442.217 93.2457 442.282 92.3258 442.282 91.2661H440.282C440.282 92.2544 440.22 93.0411 440.108 93.6418C439.992 94.2575 439.838 94.5971 439.714 94.7621L441.314 95.9621ZM442.282 91.2661V52.4821H440.282V91.2661H442.282ZM442.282 52.4821C442.282 48.259 441.897 44.8916 441.079 42.4378L439.182 43.0703C439.9 45.2245 440.282 48.3424 440.282 52.4821H442.282ZM441.092 42.4793C440.367 39.9413 439.144 38.021 437.324 36.9088L436.281 38.6153C437.533 39.3805 438.529 40.7882 439.169 43.0288L441.092 42.4793ZM437.346 36.9225C435.664 35.8347 433.351 35.3541 430.53 35.3541V37.3541C433.171 37.3541 435.039 37.8121 436.259 38.6016L437.346 36.9225ZM430.53 35.3541C427.533 35.3541 424.787 36.1291 422.318 37.6838L423.383 39.3763C425.522 38.0297 427.896 37.3541 430.53 37.3541V35.3541ZM422.303 37.6931C419.916 39.2536 418.052 41.4481 416.702 44.2385L418.503 45.1096C419.712 42.6094 421.347 40.7079 423.398 39.367L422.303 37.6931ZM416.708 44.2268C415.346 46.95 414.682 50.0951 414.682 53.6341H416.682C416.682 50.3463 417.298 47.5181 418.497 45.1213L416.708 44.2268ZM414.682 53.6341V90.8821H416.682V53.6341H414.682ZM414.682 90.8821C414.682 92.8462 414.845 94.404 415.281 95.3842L417.108 94.5719C416.861 94.0162 416.682 92.8433 416.682 90.8821H414.682ZM415.346 95.5081C415.988 96.5348 417.17 97.089 418.558 97.3666L418.951 95.4055C417.779 95.1711 417.254 94.7867 417.042 94.4481L415.346 95.5081ZM418.582 97.3711L423.702 98.2671L424.047 96.297L418.927 95.401L418.582 97.3711ZM422.874 97.2821V98.6901H424.874V97.2821H422.874ZM423.874 97.6901H392.002V99.6901H423.874V97.6901ZM513.246 98.6901H512.246V99.6901H513.246V98.6901ZM513.246 97.1541L513.147 96.159L512.246 96.2491V97.1541H513.246ZM519.646 96.5141L519.746 97.5091L519.758 97.5079L519.77 97.5063L519.646 96.5141ZM522.206 94.9781L521.296 94.5643L521.286 94.5853L521.278 94.6067L522.206 94.9781ZM522.078 36.9941L522.986 36.575L522.986 36.575L522.078 36.9941ZM518.494 35.2021L518.41 36.1985L518.429 36.2001L518.449 36.201L518.494 35.2021ZM512.478 34.6901L511.482 34.5995L511.391 35.6012L512.394 35.6865L512.478 34.6901ZM512.606 33.2821L512.558 32.2832L511.689 32.325L511.61 33.1915L512.606 33.2821ZM536.542 32.1301L537.124 31.3163L536.841 31.1145L536.494 31.1312L536.542 32.1301ZM537.438 32.7701H538.438V32.2554L538.02 31.9563L537.438 32.7701ZM538.078 94.9781L537.204 95.4637L537.204 95.4637L538.078 94.9781ZM540.766 96.3861L540.9 95.395L540.89 95.3938L540.766 96.3861ZM547.422 97.2821H548.422V96.4077L547.556 96.291L547.422 97.2821ZM547.422 98.6901V99.6901H548.422V98.6901H547.422ZM521.566 17.1541L520.877 17.8782L520.886 17.887L520.895 17.8956L521.566 17.1541ZM521.566 4.09806L522.256 4.8222L522.256 4.8222L521.566 4.09806ZM535.646 4.09806L534.939 4.80517L534.948 4.81423L534.958 4.82306L535.646 4.09806ZM535.518 17.1541L536.207 17.8791L536.208 17.8782L535.518 17.1541ZM514.246 98.6901V97.1541H512.246V98.6901H514.246ZM513.346 98.1491L519.746 97.5091L519.547 95.519L513.147 96.159L513.346 98.1491ZM519.77 97.5063C521.3 97.3151 522.598 96.6917 523.135 95.3495L521.278 94.6067C521.132 94.9711 520.723 95.3716 519.522 95.5218L519.77 97.5063ZM523.117 95.3919C523.638 94.2461 523.846 92.5257 523.846 90.3701H521.846C521.846 92.4811 521.629 93.8327 521.296 94.5643L523.117 95.3919ZM523.846 90.3701V43.0101H521.846V90.3701H523.846ZM523.846 43.0101C523.846 40.1104 523.6 37.9037 522.986 36.575L521.17 37.4131C521.581 38.3031 521.846 40.1071 521.846 43.0101H523.846ZM522.986 36.575C522.243 34.9643 520.57 34.2954 518.54 34.2031L518.449 36.201C520.173 36.2794 520.89 36.8052 521.17 37.4131L522.986 36.575ZM518.579 34.2057L512.563 33.6937L512.394 35.6865L518.41 36.1985L518.579 34.2057ZM513.474 34.7806L513.602 33.3726L511.61 33.1915L511.482 34.5995L513.474 34.7806ZM512.654 34.2809L536.59 33.1289L536.494 31.1312L512.558 32.2832L512.654 34.2809ZM535.961 32.9438L536.857 33.5838L538.02 31.9563L537.124 31.3163L535.961 32.9438ZM536.438 32.7701V90.8821H538.438V32.7701H536.438ZM536.438 90.8821C536.438 92.8534 536.642 94.4512 537.204 95.4637L538.953 94.4924C538.662 93.9689 538.438 92.8361 538.438 90.8821H536.438ZM537.204 95.4637C537.858 96.64 539.144 97.191 540.642 97.3783L540.89 95.3938C539.658 95.2398 539.152 94.8521 538.953 94.4924L537.204 95.4637ZM540.633 97.3771L547.289 98.2731L547.556 96.291L540.9 95.395L540.633 97.3771ZM546.422 97.2821V98.6901H548.422V97.2821H546.422ZM547.422 97.6901H513.246V99.6901H547.422V97.6901ZM528.478 18.5861C525.867 18.5861 523.815 17.8404 522.237 16.4125L520.895 17.8956C522.901 19.7104 525.458 20.5861 528.478 20.5861V18.5861ZM522.256 16.4299C520.677 14.9261 519.878 13.0188 519.878 10.6261H517.878C517.878 13.524 518.872 15.9687 520.877 17.8782L522.256 16.4299ZM519.878 10.6261C519.878 8.23334 520.677 6.32607 522.256 4.8222L520.877 3.37392C518.872 5.28338 517.878 7.72812 517.878 10.6261H519.878ZM522.256 4.8222C523.836 3.31734 525.881 2.53806 528.478 2.53806V0.538055C525.444 0.538055 522.881 1.46544 520.877 3.37392L522.256 4.8222ZM528.478 2.53806C531.361 2.53806 533.468 3.33367 534.939 4.80517L536.353 3.39095C534.412 1.44911 531.74 0.538055 528.478 0.538055V2.53806ZM534.958 4.82306C536.44 6.23133 537.206 8.08949 537.206 10.4981H539.206C539.206 7.61596 538.266 5.20745 536.335 3.37306L534.958 4.82306ZM537.206 10.4981C537.206 12.9864 536.401 14.9326 534.829 16.4299L536.208 17.8782C538.22 15.9622 539.206 13.4711 539.206 10.4981H537.206ZM534.83 16.4291C533.355 17.8299 531.281 18.5861 528.478 18.5861V20.5861C531.65 20.5861 534.268 19.7209 536.207 17.8791L534.83 16.4291ZM556.127 98.6901H555.127V99.6901H556.127V98.6901ZM556.127 97.1541L556.017 96.1602L555.127 96.259V97.1541H556.127ZM561.887 96.5141L561.998 97.508L562.011 97.5063L561.887 96.5141ZM564.447 36.9941L563.539 37.4131L563.539 37.4131L564.447 36.9941ZM560.735 35.2021L560.649 36.1983L560.67 36.2002L560.692 36.2011L560.735 35.2021ZM554.847 34.6901L553.851 34.5995L553.761 35.5993L554.761 35.6863L554.847 34.6901ZM554.975 33.2821L554.927 32.2832L554.058 32.3255L553.979 33.1915L554.975 33.2821ZM578.655 32.1301L579.296 31.3618L578.996 31.1123L578.607 31.1312L578.655 32.1301ZM579.423 32.7701L580.423 32.7801L580.428 32.3056L580.064 32.0018L579.423 32.7701ZM579.295 45.5701L578.295 45.5601L578.285 46.5701H579.295V45.5701ZM579.423 45.5701V46.5701H580.09L580.346 45.9547L579.423 45.5701ZM584.415 37.7621L583.695 37.069L583.694 37.0695L584.415 37.7621ZM591.583 32.7701L591.97 33.6923L591.983 33.687L591.995 33.6814L591.583 32.7701ZM612.319 34.5621L611.736 35.3744L611.743 35.3794L611.75 35.3842L612.319 34.5621ZM619.231 45.5701L618.262 45.8165L619.054 48.9293L620.169 45.9174L619.231 45.5701ZM627.423 34.8181L626.869 33.986L626.86 33.9918L627.423 34.8181ZM650.847 33.6661L650.333 34.5236L650.342 34.529L650.351 34.5343L650.847 33.6661ZM657.631 41.2181L656.723 41.6371L656.73 41.6513L656.737 41.6653L657.631 41.2181ZM664.031 96.5141L664.147 95.5207L664.136 95.5196L664.031 96.5141ZM669.535 97.1541H670.535V96.2636L669.651 96.1608L669.535 97.1541ZM669.535 98.6901V99.6901H670.535V98.6901H669.535ZM637.663 98.6901H636.663V99.6901H637.663V98.6901ZM637.663 97.2821L637.514 96.2933L636.663 96.4222V97.2821H637.663ZM641.887 96.6421L641.771 95.6489L641.754 95.6509L641.738 95.6533L641.887 96.6421ZM644.703 95.3621L643.903 94.7621L643.878 94.796L643.855 94.8321L644.703 95.3621ZM644.447 42.8821L643.486 43.1568L643.489 43.1661L644.447 42.8821ZM641.119 37.8901L640.565 38.7221L640.581 38.7331L640.598 38.7433L641.119 37.8901ZM621.791 44.1621L620.916 43.679L620.909 43.6907L620.903 43.7026L621.791 44.1621ZM620.255 94.7221L619.291 94.9852L619.306 95.0404L619.327 95.0935L620.255 94.7221ZM622.943 96.3861L622.77 97.3709L622.775 97.3718L622.943 96.3861ZM628.191 97.2821H629.191V96.4383L628.36 96.2963L628.191 97.2821ZM628.191 98.6901V99.6901H629.191V98.6901H628.191ZM597.471 98.6901H596.471V99.6901H597.471V98.6901ZM597.471 97.2821L597.322 96.2933L596.471 96.4222V97.2821H597.471ZM601.695 96.6421L601.579 95.6489L601.562 95.6509L601.546 95.6533L601.695 96.6421ZM604.639 95.3621L605.439 95.9621L605.439 95.9621L604.639 95.3621ZM604.255 42.7541L603.294 43.0288L603.3 43.0497L603.307 43.0703L604.255 42.7541ZM600.927 37.7621L600.384 38.6016L600.395 38.6086L600.406 38.6153L600.927 37.7621ZM586.975 38.5301L586.443 37.6838L586.435 37.6884L586.428 37.6931L586.975 38.5301ZM581.727 44.6741L582.622 45.1213L582.628 45.1096L581.727 44.6741ZM580.319 94.9781L579.406 95.3842L579.434 95.4484L579.471 95.5081L580.319 94.9781ZM582.879 96.3861L582.683 97.3666L582.695 97.369L582.707 97.3711L582.879 96.3861ZM587.999 97.2821H588.999V96.4419L588.172 96.297L587.999 97.2821ZM587.999 98.6901V99.6901H588.999V98.6901H587.999ZM557.127 98.6901V97.1541H555.127V98.6901H557.127ZM556.238 98.1479L561.998 97.5079L561.777 95.5202L556.017 96.1602L556.238 98.1479ZM562.011 97.5063C563.551 97.3139 564.834 96.6963 565.47 95.4253L563.681 94.5308C563.463 94.9664 562.955 95.3729 561.763 95.5218L562.011 97.5063ZM565.47 95.4253C566.012 94.3411 566.215 92.5901 566.215 90.3701H564.215C564.215 92.5873 563.992 93.9083 563.681 94.5308L565.47 95.4253ZM566.215 90.3701V43.0101H564.215V90.3701H566.215ZM566.215 43.0101C566.215 40.1104 565.969 37.9037 565.355 36.575L563.539 37.4131C563.95 38.3031 564.215 40.1071 564.215 43.0101H566.215ZM565.355 36.575C564.605 34.9494 562.871 34.2939 560.779 34.203L560.692 36.2011C562.526 36.2808 563.266 36.82 563.539 37.4131L565.355 36.575ZM560.822 34.2058L554.934 33.6938L554.761 35.6863L560.649 36.1983L560.822 34.2058ZM555.843 34.7806L555.971 33.3726L553.979 33.1915L553.851 34.5995L555.843 34.7806ZM555.024 34.2809L578.704 33.1289L578.607 31.1312L554.927 32.2832L555.024 34.2809ZM578.015 32.8983L578.783 33.5383L580.064 32.0018L579.296 31.3618L578.015 32.8983ZM578.423 32.7601L578.295 45.5601L580.295 45.5801L580.423 32.7801L578.423 32.7601ZM579.295 46.5701H579.423V44.5701H579.295V46.5701ZM580.346 45.9547C581.585 42.9827 583.185 40.4882 585.137 38.4546L583.694 37.0695C581.55 39.3026 579.822 42.0134 578.5 45.1854L580.346 45.9547ZM585.136 38.4552C587.182 36.3276 589.46 34.7451 591.97 33.6923L591.197 31.8479C588.417 33.0137 585.915 34.7592 583.695 37.069L585.136 38.4552ZM591.995 33.6814C594.511 32.5452 597.144 31.9781 599.903 31.9781V29.9781C596.86 29.9781 593.946 30.6056 591.172 31.8587L591.995 33.6814ZM599.903 31.9781C604.688 31.9781 608.611 33.1307 611.736 35.3744L612.903 33.7497C609.372 31.2148 605.018 29.9781 599.903 29.9781V31.9781ZM611.75 35.3842C614.829 37.5156 617.024 40.9477 618.262 45.8165L620.201 45.3237C618.878 40.1231 616.466 36.2165 612.889 33.7399L611.75 35.3842ZM620.169 45.9174C621.81 41.4873 624.418 38.0777 627.987 35.6443L626.86 33.9918C622.92 36.6784 620.066 40.4368 618.294 45.2227L620.169 45.9174ZM627.978 35.6501C631.657 33.1972 635.646 31.9781 639.967 31.9781V29.9781C635.243 29.9781 630.869 31.3189 626.869 33.986L627.978 35.6501ZM639.967 31.9781C644.094 31.9781 647.533 32.8437 650.333 34.5236L651.362 32.8086C648.188 30.9044 644.375 29.9781 639.967 29.9781V31.9781ZM650.351 34.5343C653.145 36.1308 655.269 38.4849 656.723 41.6371L658.539 40.799C656.922 37.2952 654.523 34.6147 651.344 32.7978L650.351 34.5343ZM656.737 41.6653C658.269 44.73 659.063 48.6187 659.063 53.3781H661.063C661.063 48.4094 660.236 44.1915 658.526 40.7708L656.737 41.6653ZM659.063 53.3781V91.2661H661.063V53.3781H659.063ZM659.063 91.2661C659.063 92.2851 659.129 93.1749 659.274 93.9201C659.415 94.653 659.647 95.3215 660.031 95.8341L661.631 94.6341C661.504 94.464 661.351 94.1298 661.237 93.54C661.125 92.9626 661.063 92.2097 661.063 91.2661H659.063ZM660.031 95.8341C660.81 96.872 662.255 97.3326 663.927 97.5086L664.136 95.5196C662.565 95.3542 661.877 94.9615 661.631 94.6341L660.031 95.8341ZM663.916 97.5074L669.42 98.1474L669.651 96.1608L664.147 95.5208L663.916 97.5074ZM668.535 97.1541V98.6901H670.535V97.1541H668.535ZM669.535 97.6901H637.663V99.6901H669.535V97.6901ZM638.663 98.6901V97.2821H636.663V98.6901H638.663ZM637.813 98.2708L642.037 97.6308L641.738 95.6533L637.514 96.2933L637.813 98.2708ZM642.004 97.6352C643.525 97.4563 644.872 96.9798 645.551 95.8921L643.855 94.8321C643.682 95.1097 643.151 95.4865 641.771 95.6489L642.004 97.6352ZM645.503 95.9621C645.892 95.4444 646.122 94.76 646.262 94.0104C646.406 93.2457 646.471 92.3258 646.471 91.2661H644.471C644.471 92.2544 644.409 93.0411 644.297 93.6418C644.181 94.2575 644.027 94.5971 643.903 94.7621L645.503 95.9621ZM646.471 91.2661V52.4821H644.471V91.2661H646.471ZM646.471 52.4821C646.471 48.3474 646.129 45.0366 645.406 42.598L643.489 43.1661C644.131 45.3355 644.471 48.4248 644.471 52.4821H646.471ZM645.409 42.6073C644.684 40.0693 643.461 38.149 641.641 37.0368L640.598 38.7433C641.85 39.5085 642.846 40.9162 643.486 43.1568L645.409 42.6073ZM641.674 37.058C639.913 35.8837 637.558 35.3541 634.719 35.3541V37.3541C637.342 37.3541 639.254 37.8484 640.565 38.7221L641.674 37.058ZM634.719 35.3541C631.734 35.3541 629.032 36.0802 626.643 37.5504L627.691 39.2537C629.74 37.9932 632.073 37.3541 634.719 37.3541V35.3541ZM626.643 37.5504C624.265 39.0138 622.357 41.0664 620.916 43.679L622.667 44.6451C623.956 42.3084 625.632 40.521 627.691 39.2537L626.643 37.5504ZM620.903 43.7026C619.533 46.351 618.871 49.5035 618.871 53.1221H620.871C620.871 49.7433 621.489 46.9224 622.68 44.6215L620.903 43.7026ZM618.871 53.1221V90.8821H620.871V53.1221H618.871ZM618.871 90.8821C618.871 92.5417 619.001 93.9228 619.291 94.9852L621.22 94.4589C620.998 93.644 620.871 92.4651 620.871 90.8821H618.871ZM619.327 95.0935C619.861 96.4283 621.192 97.0925 622.77 97.3708L623.117 95.4013C621.793 95.1676 621.333 94.7225 621.184 94.3507L619.327 95.0935ZM622.775 97.3718L628.023 98.2678L628.36 96.2963L623.112 95.4003L622.775 97.3718ZM627.191 97.2821V98.6901H629.191V97.2821H627.191ZM628.191 97.6901H597.471V99.6901H628.191V97.6901ZM598.471 98.6901V97.2821H596.471V98.6901H598.471ZM597.621 98.2708L601.845 97.6308L601.546 95.6533L597.322 96.2933L597.621 98.2708ZM601.812 97.6352C603.353 97.454 604.678 96.9766 605.439 95.9621L603.839 94.7621C603.576 95.1129 602.939 95.4888 601.579 95.6489L601.812 97.6352ZM605.439 95.9621C605.828 95.4444 606.058 94.76 606.198 94.0104C606.342 93.2457 606.407 92.3258 606.407 91.2661H604.407C604.407 92.2544 604.345 93.0411 604.233 93.6418C604.117 94.2575 603.963 94.5971 603.839 94.7621L605.439 95.9621ZM606.407 91.2661V52.4821H604.407V91.2661H606.407ZM606.407 52.4821C606.407 48.259 606.022 44.8916 605.204 42.4378L603.307 43.0703C604.025 45.2245 604.407 48.3424 604.407 52.4821H606.407ZM605.217 42.4793C604.492 39.9413 603.269 38.021 601.449 36.9088L600.406 38.6153C601.658 39.3805 602.654 40.7882 603.294 43.0288L605.217 42.4793ZM601.471 36.9225C599.789 35.8347 597.476 35.3541 594.655 35.3541V37.3541C597.296 37.3541 599.164 37.8121 600.384 38.6016L601.471 36.9225ZM594.655 35.3541C591.658 35.3541 588.912 36.1291 586.443 37.6838L587.508 39.3763C589.647 38.0297 592.021 37.3541 594.655 37.3541V35.3541ZM586.428 37.6931C584.041 39.2536 582.177 41.4481 580.827 44.2385L582.628 45.1096C583.837 42.6094 585.472 40.7079 587.523 39.367L586.428 37.6931ZM580.833 44.2268C579.471 46.95 578.807 50.0951 578.807 53.6341H580.807C580.807 50.3463 581.423 47.5181 582.622 45.1213L580.833 44.2268ZM578.807 53.6341V90.8821H580.807V53.6341H578.807ZM578.807 90.8821C578.807 92.8462 578.97 94.404 579.406 95.3842L581.233 94.5719C580.986 94.0162 580.807 92.8433 580.807 90.8821H578.807ZM579.471 95.5081C580.113 96.5348 581.295 97.089 582.683 97.3666L583.076 95.4055C581.904 95.1711 581.379 94.7867 581.167 94.4481L579.471 95.5081ZM582.707 97.3711L587.827 98.2671L588.172 96.297L583.052 95.401L582.707 97.3711ZM586.999 97.2821V98.6901H588.999V97.2821H586.999ZM587.999 97.6901H556.127V99.6901H587.999V97.6901Z" fill="white" mask="url(#path-1-outside-1_63_123)"/>
</svg>
