<svg width="899" height="319" viewBox="0 0 899 319" fill="none" xmlns="http://www.w3.org/2000/svg">
<path fill-rule="evenodd" clip-rule="evenodd" d="M430.584 59.5074C400.087 59.5097 375.365 84.2331 375.365 114.732V297.375C375.365 300.481 372.847 302.999 369.741 302.999C366.634 302.999 364.116 300.481 364.116 297.375V114.732C364.116 78.019 393.877 48.2581 430.589 48.2581H430.597L484.526 48.3393C521.136 48.412 550.777 78.1113 550.777 114.723V153.599C550.777 190.312 521.015 220.073 484.303 220.073H408.102C404.996 220.073 402.477 217.554 402.477 214.448C402.477 211.342 404.996 208.823 408.102 208.823H484.303C514.802 208.823 539.528 184.099 539.528 153.599V114.723C539.528 84.3163 514.911 59.6505 484.507 59.5886C484.506 59.5886 484.505 59.5886 484.504 59.5886L430.589 59.5074C430.587 59.5074 430.586 59.5074 430.584 59.5074Z" fill="#939598"/>
<path fill-rule="evenodd" clip-rule="evenodd" d="M554.598 53.8583C554.598 50.7519 557.116 48.2336 560.222 48.2336H583.614C600.513 48.2336 614.21 61.9323 614.21 78.8303V215.265C614.21 218.371 611.691 220.89 608.585 220.89C605.479 220.89 602.96 218.371 602.96 215.265V78.8303C602.96 68.1443 594.3 59.483 583.614 59.483H560.222C557.116 59.483 554.598 56.9647 554.598 53.8583Z" fill="#939598"/>
<path d="M603.57 32.721L592.962 22.1117C590.328 19.4797 590.328 15.2117 592.962 12.5797L603.563 1.977C606.2 -0.658999 610.474 -0.658999 613.109 1.977L623.71 12.5797C626.343 15.2117 626.343 19.4797 623.71 22.1117L613.102 32.721C610.47 35.353 606.203 35.353 603.57 32.721Z" fill="#32BCAD"/>
<path fill-rule="evenodd" clip-rule="evenodd" d="M647.838 53.7365C647.838 50.6301 650.357 48.1118 653.463 48.1118H676.662C690.088 48.1118 702.964 53.4458 712.456 62.9379L766.718 117.199L766.718 117.2C771.549 122.032 779.383 122.032 784.216 117.199L838.279 63.1366L838.28 63.1363C847.773 53.6446 860.647 48.3105 874.074 48.3105H892.935C896.041 48.3105 898.56 50.8287 898.56 53.9351C898.56 57.0416 896.041 59.5598 892.935 59.5598H874.074C863.631 59.5598 853.618 63.7084 846.233 71.0914L792.171 125.154C782.945 134.379 767.988 134.38 758.763 125.154C758.763 125.154 758.763 125.153 758.763 125.153L704.502 70.8924C697.119 63.5099 687.105 59.3611 676.662 59.3611H653.463C650.357 59.3611 647.838 56.8429 647.838 53.7365Z" fill="#939598"/>
<path fill-rule="evenodd" clip-rule="evenodd" d="M784.216 150.608C779.383 145.775 771.549 145.775 766.718 150.607L766.718 150.608L712.456 204.869C702.964 214.361 690.088 219.695 676.662 219.695H653.463C650.357 219.695 647.838 217.177 647.838 214.071C647.838 210.964 650.357 208.446 653.463 208.446H676.662C687.105 208.446 697.119 204.297 704.502 196.915L758.763 142.654C758.763 142.654 758.763 142.653 758.763 142.653C767.988 133.427 782.945 133.428 792.171 142.653L846.233 196.716C853.618 204.099 863.631 208.247 874.074 208.247H892.935C896.041 208.247 898.56 210.765 898.56 213.872C898.56 216.978 896.041 219.497 892.935 219.497H874.074C860.647 219.497 847.773 214.162 838.28 204.671L838.279 204.67L784.216 150.608Z" fill="#939598"/>
<path d="M231.433 248.736C219.791 248.736 208.84 244.203 200.607 235.973L156.096 191.461C152.971 188.328 147.524 188.337 144.4 191.461L99.7266 236.136C91.4932 244.365 80.5425 248.899 68.8998 248.899H60.1281L116.503 305.272C134.108 322.877 162.653 322.877 180.26 305.272L236.795 248.736H231.433Z" fill="#32BCAD"/>
<path d="M68.8992 91.2926C80.5419 91.2926 91.4927 95.8259 99.726 104.055L144.399 148.737C147.617 151.955 152.87 151.967 156.095 148.733L200.606 104.218C208.839 95.9888 219.79 91.4555 231.433 91.4555H236.794L180.261 34.9208C162.653 17.3142 134.107 17.3142 116.502 34.9208L60.13 91.2928L68.8992 91.2926Z" fill="#32BCAD"/>
<path d="M283.557 138.217L249.393 104.053C248.641 104.354 247.826 104.543 246.966 104.543H231.433C223.402 104.543 215.541 107.8 209.866 113.479L165.357 157.989C161.192 162.155 155.718 164.239 150.25 164.239C144.777 164.239 139.308 162.155 135.144 157.993L90.4662 113.316C84.7915 107.636 76.9302 104.38 68.8995 104.38H49.7996C48.9849 104.38 48.2236 104.188 47.5049 103.917L13.205 138.217C-4.40167 155.824 -4.40167 184.368 13.205 201.975L47.5036 236.273C48.2236 236.003 48.9849 235.811 49.7996 235.811H68.8995C76.9302 235.811 84.7915 232.555 90.4662 226.876L135.14 182.203C143.214 174.135 157.29 174.132 165.357 182.206L209.866 226.713C215.541 232.392 223.402 235.649 231.433 235.649H246.966C247.826 235.649 248.641 235.837 249.393 236.138L283.557 201.974C301.162 184.368 301.162 155.824 283.557 138.217Z" fill="#32BCAD"/>
</svg>
